G04 #@! TF.FileFunction,Legend,Bot*
%FSLAX46Y46*%
G04 Gerber Fmt 4.6, Leading zero omitted, Abs format (unit mm)*
G04 Created by KiCad (PCBNEW 4.0.7) date 04/15/18 19:55:42*
%MOMM*%
%LPD*%
G01*
G04 APERTURE LIST*
%ADD10C,0.100000*%
%ADD11C,0.150000*%
%ADD12C,0.200000*%
%ADD13C,0.127000*%
%ADD14C,0.120000*%
%ADD15C,0.050000*%
G04 APERTURE END LIST*
D10*
D11*
X138684000Y-120891300D02*
X113284000Y-120891300D01*
X113284000Y-82791300D02*
X138684000Y-82791300D01*
X138684000Y-125971300D02*
X138684000Y-120891300D01*
X113284000Y-120891300D02*
X113284000Y-125971300D01*
X113284000Y-125971300D02*
X138684000Y-125971300D01*
X138684000Y-82791300D02*
X138684000Y-77711300D01*
X138684000Y-77711300D02*
X113284000Y-77711300D01*
X113284000Y-77711300D02*
X113284000Y-82791300D01*
D12*
X138025000Y-56617000D02*
G75*
G03X138025000Y-56617000I-100000J0D01*
G01*
D13*
X139224000Y-56602000D02*
X143224000Y-56602000D01*
X139224000Y-51602000D02*
X143224000Y-51602000D01*
D12*
X127357000Y-56617000D02*
G75*
G03X127357000Y-56617000I-100000J0D01*
G01*
D13*
X128556000Y-56602000D02*
X132556000Y-56602000D01*
X128556000Y-51602000D02*
X132556000Y-51602000D01*
D11*
X147277000Y-86609000D02*
X147277000Y-86584000D01*
X151427000Y-86609000D02*
X151427000Y-86504000D01*
X151427000Y-76459000D02*
X151427000Y-76564000D01*
X147277000Y-76459000D02*
X147277000Y-76564000D01*
X147277000Y-86609000D02*
X151427000Y-86609000D01*
X147277000Y-76459000D02*
X151427000Y-76459000D01*
X147277000Y-86584000D02*
X145902000Y-86584000D01*
D14*
X135798000Y-53498000D02*
X135798000Y-54198000D01*
X136998000Y-54198000D02*
X136998000Y-53498000D01*
X146466000Y-53498000D02*
X146466000Y-54198000D01*
X147666000Y-54198000D02*
X147666000Y-53498000D01*
X131984000Y-51146000D02*
X132684000Y-51146000D01*
X132684000Y-49946000D02*
X131984000Y-49946000D01*
X142652000Y-51146000D02*
X143352000Y-51146000D01*
X143352000Y-49946000D02*
X142652000Y-49946000D01*
X133698500Y-61306000D02*
X134398500Y-61306000D01*
X134398500Y-60106000D02*
X133698500Y-60106000D01*
X123536000Y-53563000D02*
X123536000Y-52863000D01*
X122336000Y-52863000D02*
X122336000Y-53563000D01*
X154397000Y-85948000D02*
X154397000Y-85248000D01*
X153197000Y-85248000D02*
X153197000Y-85948000D01*
X144364000Y-85059000D02*
X144364000Y-84359000D01*
X143164000Y-84359000D02*
X143164000Y-85059000D01*
X144364000Y-81376000D02*
X144364000Y-80676000D01*
X143164000Y-80676000D02*
X143164000Y-81376000D01*
X144364000Y-88742000D02*
X144364000Y-88042000D01*
X143164000Y-88042000D02*
X143164000Y-88742000D01*
X143164000Y-76993000D02*
X143164000Y-77693000D01*
X144364000Y-77693000D02*
X144364000Y-76993000D01*
X134401000Y-53498000D02*
X134401000Y-54198000D01*
X135601000Y-54198000D02*
X135601000Y-53498000D01*
X133698500Y-58512000D02*
X134398500Y-58512000D01*
X134398500Y-57312000D02*
X133698500Y-57312000D01*
X134398500Y-58709000D02*
X133698500Y-58709000D01*
X133698500Y-59909000D02*
X134398500Y-59909000D01*
X126330000Y-53563000D02*
X126330000Y-52863000D01*
X125130000Y-52863000D02*
X125130000Y-53563000D01*
X123733000Y-52863000D02*
X123733000Y-53563000D01*
X124933000Y-53563000D02*
X124933000Y-52863000D01*
X145069000Y-53498000D02*
X145069000Y-54198000D01*
X146269000Y-54198000D02*
X146269000Y-53498000D01*
D11*
X137579076Y-76106281D02*
X138150505Y-76106281D01*
X137864791Y-76106281D02*
X137864791Y-75106281D01*
X137960029Y-75249138D01*
X138055267Y-75344376D01*
X138150505Y-75391995D01*
X136626695Y-76106281D02*
X137198124Y-76106281D01*
X136912410Y-76106281D02*
X136912410Y-75106281D01*
X137007648Y-75249138D01*
X137102886Y-75344376D01*
X137198124Y-75391995D01*
X115366705Y-75277719D02*
X115319086Y-75230100D01*
X115223848Y-75182481D01*
X114985752Y-75182481D01*
X114890514Y-75230100D01*
X114842895Y-75277719D01*
X114795276Y-75372957D01*
X114795276Y-75468195D01*
X114842895Y-75611052D01*
X115414324Y-76182481D01*
X114795276Y-76182481D01*
X114176229Y-75182481D02*
X114080990Y-75182481D01*
X113985752Y-75230100D01*
X113938133Y-75277719D01*
X113890514Y-75372957D01*
X113842895Y-75563433D01*
X113842895Y-75801529D01*
X113890514Y-75992005D01*
X113938133Y-76087243D01*
X113985752Y-76134862D01*
X114080990Y-76182481D01*
X114176229Y-76182481D01*
X114271467Y-76134862D01*
X114319086Y-76087243D01*
X114366705Y-75992005D01*
X114414324Y-75801529D01*
X114414324Y-75563433D01*
X114366705Y-75372957D01*
X114319086Y-75277719D01*
X114271467Y-75230100D01*
X114176229Y-75182481D01*
X138223524Y-118413281D02*
X137604476Y-118413281D01*
X137937810Y-118794233D01*
X137794952Y-118794233D01*
X137699714Y-118841852D01*
X137652095Y-118889471D01*
X137604476Y-118984710D01*
X137604476Y-119222805D01*
X137652095Y-119318043D01*
X137699714Y-119365662D01*
X137794952Y-119413281D01*
X138080667Y-119413281D01*
X138175905Y-119365662D01*
X138223524Y-119318043D01*
X136985429Y-118413281D02*
X136890190Y-118413281D01*
X136794952Y-118460900D01*
X136747333Y-118508519D01*
X136699714Y-118603757D01*
X136652095Y-118794233D01*
X136652095Y-119032329D01*
X136699714Y-119222805D01*
X136747333Y-119318043D01*
X136794952Y-119365662D01*
X136890190Y-119413281D01*
X136985429Y-119413281D01*
X137080667Y-119365662D01*
X137128286Y-119318043D01*
X137175905Y-119222805D01*
X137223524Y-119032329D01*
X137223524Y-118794233D01*
X137175905Y-118603757D01*
X137128286Y-118508519D01*
X137080667Y-118460900D01*
X136985429Y-118413281D01*
X115366705Y-118483119D02*
X115319086Y-118435500D01*
X115223848Y-118387881D01*
X114985752Y-118387881D01*
X114890514Y-118435500D01*
X114842895Y-118483119D01*
X114795276Y-118578357D01*
X114795276Y-118673595D01*
X114842895Y-118816452D01*
X115414324Y-119387881D01*
X114795276Y-119387881D01*
X113842895Y-119387881D02*
X114414324Y-119387881D01*
X114128610Y-119387881D02*
X114128610Y-118387881D01*
X114223848Y-118530738D01*
X114319086Y-118625976D01*
X114414324Y-118673595D01*
X114865114Y-84736014D02*
X114865114Y-85402681D01*
X115103210Y-84355062D02*
X115341305Y-85069348D01*
X114722257Y-85069348D01*
X114150829Y-84402681D02*
X114055590Y-84402681D01*
X113960352Y-84450300D01*
X113912733Y-84497919D01*
X113865114Y-84593157D01*
X113817495Y-84783633D01*
X113817495Y-85021729D01*
X113865114Y-85212205D01*
X113912733Y-85307443D01*
X113960352Y-85355062D01*
X114055590Y-85402681D01*
X114150829Y-85402681D01*
X114246067Y-85355062D01*
X114293686Y-85307443D01*
X114341305Y-85212205D01*
X114388924Y-85021729D01*
X114388924Y-84783633D01*
X114341305Y-84593157D01*
X114293686Y-84497919D01*
X114246067Y-84450300D01*
X114150829Y-84402681D01*
X138248924Y-84301081D02*
X137629876Y-84301081D01*
X137963210Y-84682033D01*
X137820352Y-84682033D01*
X137725114Y-84729652D01*
X137677495Y-84777271D01*
X137629876Y-84872510D01*
X137629876Y-85110605D01*
X137677495Y-85205843D01*
X137725114Y-85253462D01*
X137820352Y-85301081D01*
X138106067Y-85301081D01*
X138201305Y-85253462D01*
X138248924Y-85205843D01*
X136677495Y-85301081D02*
X137248924Y-85301081D01*
X136963210Y-85301081D02*
X136963210Y-84301081D01*
X137058448Y-84443938D01*
X137153686Y-84539176D01*
X137248924Y-84586795D01*
X137680676Y-128379481D02*
X138252105Y-128379481D01*
X137966391Y-128379481D02*
X137966391Y-127379481D01*
X138061629Y-127522338D01*
X138156867Y-127617576D01*
X138252105Y-127665195D01*
X137061629Y-127379481D02*
X136966390Y-127379481D01*
X136871152Y-127427100D01*
X136823533Y-127474719D01*
X136775914Y-127569957D01*
X136728295Y-127760433D01*
X136728295Y-127998529D01*
X136775914Y-128189005D01*
X136823533Y-128284243D01*
X136871152Y-128331862D01*
X136966390Y-128379481D01*
X137061629Y-128379481D01*
X137156867Y-128331862D01*
X137204486Y-128284243D01*
X137252105Y-128189005D01*
X137299724Y-127998529D01*
X137299724Y-127760433D01*
X137252105Y-127569957D01*
X137204486Y-127474719D01*
X137156867Y-127427100D01*
X137061629Y-127379481D01*
X114192085Y-128506481D02*
X114763514Y-128506481D01*
X114477800Y-128506481D02*
X114477800Y-127506481D01*
X114573038Y-127649338D01*
X114668276Y-127744576D01*
X114763514Y-127792195D01*
X140033333Y-80973681D02*
X140033333Y-81687967D01*
X140080953Y-81830824D01*
X140176191Y-81926062D01*
X140319048Y-81973681D01*
X140414286Y-81973681D01*
X139128571Y-81307014D02*
X139128571Y-81973681D01*
X139366667Y-80926062D02*
X139604762Y-81640348D01*
X138985714Y-81640348D01*
X140033333Y-78179681D02*
X140033333Y-78893967D01*
X140080953Y-79036824D01*
X140176191Y-79132062D01*
X140319048Y-79179681D01*
X140414286Y-79179681D01*
X139604762Y-78274919D02*
X139557143Y-78227300D01*
X139461905Y-78179681D01*
X139223809Y-78179681D01*
X139128571Y-78227300D01*
X139080952Y-78274919D01*
X139033333Y-78370157D01*
X139033333Y-78465395D01*
X139080952Y-78608252D01*
X139652381Y-79179681D01*
X139033333Y-79179681D01*
X140795333Y-121359681D02*
X140795333Y-122073967D01*
X140842953Y-122216824D01*
X140938191Y-122312062D01*
X141081048Y-122359681D01*
X141176286Y-122359681D01*
X140414381Y-121359681D02*
X139795333Y-121359681D01*
X140128667Y-121740633D01*
X139985809Y-121740633D01*
X139890571Y-121788252D01*
X139842952Y-121835871D01*
X139795333Y-121931110D01*
X139795333Y-122169205D01*
X139842952Y-122264443D01*
X139890571Y-122312062D01*
X139985809Y-122359681D01*
X140271524Y-122359681D01*
X140366762Y-122312062D01*
X140414381Y-122264443D01*
X140795333Y-124153681D02*
X140795333Y-124867967D01*
X140842953Y-125010824D01*
X140938191Y-125106062D01*
X141081048Y-125153681D01*
X141176286Y-125153681D01*
X139795333Y-125153681D02*
X140366762Y-125153681D01*
X140081048Y-125153681D02*
X140081048Y-124153681D01*
X140176286Y-124296538D01*
X140271524Y-124391776D01*
X140366762Y-124439395D01*
D15*
X142897669Y-59389776D02*
X142897669Y-61945532D01*
X142747331Y-62246209D01*
X142596992Y-62396548D01*
X142296315Y-62546886D01*
X141694961Y-62546886D01*
X141394283Y-62396548D01*
X141243945Y-62246209D01*
X141093606Y-61945532D01*
X141093606Y-59389776D01*
X138237173Y-60442146D02*
X138237173Y-62546886D01*
X138988866Y-59239438D02*
X139740559Y-61494516D01*
X137786157Y-61494516D01*
X150823913Y-47622910D02*
X149323170Y-47622910D01*
X151124061Y-48523356D02*
X150073541Y-45371796D01*
X149023021Y-48523356D01*
X146171610Y-48223207D02*
X146321684Y-48373281D01*
X146771907Y-48523356D01*
X147072056Y-48523356D01*
X147522279Y-48373281D01*
X147822427Y-48073133D01*
X147972502Y-47772984D01*
X148122576Y-47172687D01*
X148122576Y-46722464D01*
X147972502Y-46122167D01*
X147822427Y-45822019D01*
X147522279Y-45521870D01*
X147072056Y-45371796D01*
X146771907Y-45371796D01*
X146321684Y-45521870D01*
X146171610Y-45671944D01*
X144971016Y-48373281D02*
X144520793Y-48523356D01*
X143770422Y-48523356D01*
X143470273Y-48373281D01*
X143320199Y-48223207D01*
X143170124Y-47923059D01*
X143170124Y-47622910D01*
X143320199Y-47322761D01*
X143470273Y-47172687D01*
X143770422Y-47022613D01*
X144370719Y-46872539D01*
X144670867Y-46722464D01*
X144820942Y-46572390D01*
X144971016Y-46272241D01*
X144971016Y-45972093D01*
X144820942Y-45671944D01*
X144670867Y-45521870D01*
X144370719Y-45371796D01*
X143620347Y-45371796D01*
X143170124Y-45521870D01*
X142119604Y-45371796D02*
X140018564Y-45371796D01*
X141369233Y-48523356D01*
X137167152Y-48523356D02*
X138968044Y-48523356D01*
X138067598Y-48523356D02*
X138067598Y-45371796D01*
X138367747Y-45822019D01*
X138667895Y-46122167D01*
X138968044Y-46272241D01*
X134165666Y-48523356D02*
X135966558Y-48523356D01*
X135066112Y-48523356D02*
X135066112Y-45371796D01*
X135366261Y-45822019D01*
X135666409Y-46122167D01*
X135966558Y-46272241D01*
X132229669Y-59389776D02*
X132229669Y-61945532D01*
X132079331Y-62246209D01*
X131928992Y-62396548D01*
X131628315Y-62546886D01*
X131026961Y-62546886D01*
X130726283Y-62396548D01*
X130575945Y-62246209D01*
X130425606Y-61945532D01*
X130425606Y-59389776D01*
X129222897Y-59389776D02*
X127118157Y-59389776D01*
X128471204Y-62546886D01*
X140155913Y-47622910D02*
X138655170Y-47622910D01*
X140456061Y-48523356D02*
X139405541Y-45371796D01*
X138355021Y-48523356D01*
X135503610Y-48223207D02*
X135653684Y-48373281D01*
X136103907Y-48523356D01*
X136404056Y-48523356D01*
X136854279Y-48373281D01*
X137154427Y-48073133D01*
X137304502Y-47772984D01*
X137454576Y-47172687D01*
X137454576Y-46722464D01*
X137304502Y-46122167D01*
X137154427Y-45822019D01*
X136854279Y-45521870D01*
X136404056Y-45371796D01*
X136103907Y-45371796D01*
X135653684Y-45521870D01*
X135503610Y-45671944D01*
X134303016Y-48373281D02*
X133852793Y-48523356D01*
X133102422Y-48523356D01*
X132802273Y-48373281D01*
X132652199Y-48223207D01*
X132502124Y-47923059D01*
X132502124Y-47622910D01*
X132652199Y-47322761D01*
X132802273Y-47172687D01*
X133102422Y-47022613D01*
X133702719Y-46872539D01*
X134002867Y-46722464D01*
X134152942Y-46572390D01*
X134303016Y-46272241D01*
X134303016Y-45972093D01*
X134152942Y-45671944D01*
X134002867Y-45521870D01*
X133702719Y-45371796D01*
X132952347Y-45371796D01*
X132502124Y-45521870D01*
X131451604Y-45371796D02*
X129350564Y-45371796D01*
X130701233Y-48523356D01*
X126499152Y-48523356D02*
X128300044Y-48523356D01*
X127399598Y-48523356D02*
X127399598Y-45371796D01*
X127699747Y-45822019D01*
X127999895Y-46122167D01*
X128300044Y-46272241D01*
X123497666Y-48523356D02*
X125298558Y-48523356D01*
X124398112Y-48523356D02*
X124398112Y-45371796D01*
X124698261Y-45822019D01*
X124998409Y-46122167D01*
X125298558Y-46272241D01*
D11*
X150113905Y-86986381D02*
X150113905Y-87795905D01*
X150066286Y-87891143D01*
X150018667Y-87938762D01*
X149923429Y-87986381D01*
X149732952Y-87986381D01*
X149637714Y-87938762D01*
X149590095Y-87891143D01*
X149542476Y-87795905D01*
X149542476Y-86986381D01*
X148923429Y-87414952D02*
X149018667Y-87367333D01*
X149066286Y-87319714D01*
X149113905Y-87224476D01*
X149113905Y-87176857D01*
X149066286Y-87081619D01*
X149018667Y-87034000D01*
X148923429Y-86986381D01*
X148732952Y-86986381D01*
X148637714Y-87034000D01*
X148590095Y-87081619D01*
X148542476Y-87176857D01*
X148542476Y-87224476D01*
X148590095Y-87319714D01*
X148637714Y-87367333D01*
X148732952Y-87414952D01*
X148923429Y-87414952D01*
X149018667Y-87462571D01*
X149066286Y-87510190D01*
X149113905Y-87605429D01*
X149113905Y-87795905D01*
X149066286Y-87891143D01*
X149018667Y-87938762D01*
X148923429Y-87986381D01*
X148732952Y-87986381D01*
X148637714Y-87938762D01*
X148590095Y-87891143D01*
X148542476Y-87795905D01*
X148542476Y-87605429D01*
X148590095Y-87510190D01*
X148637714Y-87462571D01*
X148732952Y-87414952D01*
X136882143Y-50887334D02*
X136929762Y-50839715D01*
X136977381Y-50696858D01*
X136977381Y-50601620D01*
X136929762Y-50458762D01*
X136834524Y-50363524D01*
X136739286Y-50315905D01*
X136548810Y-50268286D01*
X136405952Y-50268286D01*
X136215476Y-50315905D01*
X136120238Y-50363524D01*
X136025000Y-50458762D01*
X135977381Y-50601620D01*
X135977381Y-50696858D01*
X136025000Y-50839715D01*
X136072619Y-50887334D01*
X135977381Y-51220667D02*
X135977381Y-51887334D01*
X136977381Y-51458762D01*
X147550143Y-50887334D02*
X147597762Y-50839715D01*
X147645381Y-50696858D01*
X147645381Y-50601620D01*
X147597762Y-50458762D01*
X147502524Y-50363524D01*
X147407286Y-50315905D01*
X147216810Y-50268286D01*
X147073952Y-50268286D01*
X146883476Y-50315905D01*
X146788238Y-50363524D01*
X146693000Y-50458762D01*
X146645381Y-50601620D01*
X146645381Y-50696858D01*
X146693000Y-50839715D01*
X146740619Y-50887334D01*
X147645381Y-51363524D02*
X147645381Y-51554000D01*
X147597762Y-51649239D01*
X147550143Y-51696858D01*
X147407286Y-51792096D01*
X147216810Y-51839715D01*
X146835857Y-51839715D01*
X146740619Y-51792096D01*
X146693000Y-51744477D01*
X146645381Y-51649239D01*
X146645381Y-51458762D01*
X146693000Y-51363524D01*
X146740619Y-51315905D01*
X146835857Y-51268286D01*
X147073952Y-51268286D01*
X147169190Y-51315905D01*
X147216810Y-51363524D01*
X147264429Y-51458762D01*
X147264429Y-51649239D01*
X147216810Y-51744477D01*
X147169190Y-51792096D01*
X147073952Y-51839715D01*
X132976857Y-49633143D02*
X133024476Y-49680762D01*
X133167333Y-49728381D01*
X133262571Y-49728381D01*
X133405429Y-49680762D01*
X133500667Y-49585524D01*
X133548286Y-49490286D01*
X133595905Y-49299810D01*
X133595905Y-49156952D01*
X133548286Y-48966476D01*
X133500667Y-48871238D01*
X133405429Y-48776000D01*
X133262571Y-48728381D01*
X133167333Y-48728381D01*
X133024476Y-48776000D01*
X132976857Y-48823619D01*
X132024476Y-49728381D02*
X132595905Y-49728381D01*
X132310191Y-49728381D02*
X132310191Y-48728381D01*
X132405429Y-48871238D01*
X132500667Y-48966476D01*
X132595905Y-49014095D01*
X131072095Y-49728381D02*
X131643524Y-49728381D01*
X131357810Y-49728381D02*
X131357810Y-48728381D01*
X131453048Y-48871238D01*
X131548286Y-48966476D01*
X131643524Y-49014095D01*
X143771857Y-49633143D02*
X143819476Y-49680762D01*
X143962333Y-49728381D01*
X144057571Y-49728381D01*
X144200429Y-49680762D01*
X144295667Y-49585524D01*
X144343286Y-49490286D01*
X144390905Y-49299810D01*
X144390905Y-49156952D01*
X144343286Y-48966476D01*
X144295667Y-48871238D01*
X144200429Y-48776000D01*
X144057571Y-48728381D01*
X143962333Y-48728381D01*
X143819476Y-48776000D01*
X143771857Y-48823619D01*
X143390905Y-48823619D02*
X143343286Y-48776000D01*
X143248048Y-48728381D01*
X143009952Y-48728381D01*
X142914714Y-48776000D01*
X142867095Y-48823619D01*
X142819476Y-48918857D01*
X142819476Y-49014095D01*
X142867095Y-49156952D01*
X143438524Y-49728381D01*
X142819476Y-49728381D01*
X142486143Y-48728381D02*
X141819476Y-48728381D01*
X142248048Y-49728381D01*
X131516357Y-62333143D02*
X131563976Y-62380762D01*
X131706833Y-62428381D01*
X131802071Y-62428381D01*
X131944929Y-62380762D01*
X132040167Y-62285524D01*
X132087786Y-62190286D01*
X132135405Y-61999810D01*
X132135405Y-61856952D01*
X132087786Y-61666476D01*
X132040167Y-61571238D01*
X131944929Y-61476000D01*
X131802071Y-61428381D01*
X131706833Y-61428381D01*
X131563976Y-61476000D01*
X131516357Y-61523619D01*
X131183024Y-61428381D02*
X130563976Y-61428381D01*
X130897310Y-61809333D01*
X130754452Y-61809333D01*
X130659214Y-61856952D01*
X130611595Y-61904571D01*
X130563976Y-61999810D01*
X130563976Y-62237905D01*
X130611595Y-62333143D01*
X130659214Y-62380762D01*
X130754452Y-62428381D01*
X131040167Y-62428381D01*
X131135405Y-62380762D01*
X131183024Y-62333143D01*
X130230643Y-61428381D02*
X129611595Y-61428381D01*
X129944929Y-61809333D01*
X129802071Y-61809333D01*
X129706833Y-61856952D01*
X129659214Y-61904571D01*
X129611595Y-61999810D01*
X129611595Y-62237905D01*
X129659214Y-62333143D01*
X129706833Y-62380762D01*
X129802071Y-62428381D01*
X130087786Y-62428381D01*
X130183024Y-62380762D01*
X130230643Y-62333143D01*
X123420143Y-49268143D02*
X123467762Y-49220524D01*
X123515381Y-49077667D01*
X123515381Y-48982429D01*
X123467762Y-48839571D01*
X123372524Y-48744333D01*
X123277286Y-48696714D01*
X123086810Y-48649095D01*
X122943952Y-48649095D01*
X122753476Y-48696714D01*
X122658238Y-48744333D01*
X122563000Y-48839571D01*
X122515381Y-48982429D01*
X122515381Y-49077667D01*
X122563000Y-49220524D01*
X122610619Y-49268143D01*
X122515381Y-49601476D02*
X122515381Y-50220524D01*
X122896333Y-49887190D01*
X122896333Y-50030048D01*
X122943952Y-50125286D01*
X122991571Y-50172905D01*
X123086810Y-50220524D01*
X123324905Y-50220524D01*
X123420143Y-50172905D01*
X123467762Y-50125286D01*
X123515381Y-50030048D01*
X123515381Y-49744333D01*
X123467762Y-49649095D01*
X123420143Y-49601476D01*
X122848714Y-51077667D02*
X123515381Y-51077667D01*
X122467762Y-50839571D02*
X123182048Y-50601476D01*
X123182048Y-51220524D01*
X155404143Y-84955143D02*
X155451762Y-84907524D01*
X155499381Y-84764667D01*
X155499381Y-84669429D01*
X155451762Y-84526571D01*
X155356524Y-84431333D01*
X155261286Y-84383714D01*
X155070810Y-84336095D01*
X154927952Y-84336095D01*
X154737476Y-84383714D01*
X154642238Y-84431333D01*
X154547000Y-84526571D01*
X154499381Y-84669429D01*
X154499381Y-84764667D01*
X154547000Y-84907524D01*
X154594619Y-84955143D01*
X154499381Y-85288476D02*
X154499381Y-85907524D01*
X154880333Y-85574190D01*
X154880333Y-85717048D01*
X154927952Y-85812286D01*
X154975571Y-85859905D01*
X155070810Y-85907524D01*
X155308905Y-85907524D01*
X155404143Y-85859905D01*
X155451762Y-85812286D01*
X155499381Y-85717048D01*
X155499381Y-85431333D01*
X155451762Y-85336095D01*
X155404143Y-85288476D01*
X154499381Y-86812286D02*
X154499381Y-86336095D01*
X154975571Y-86288476D01*
X154927952Y-86336095D01*
X154880333Y-86431333D01*
X154880333Y-86669429D01*
X154927952Y-86764667D01*
X154975571Y-86812286D01*
X155070810Y-86859905D01*
X155308905Y-86859905D01*
X155404143Y-86812286D01*
X155451762Y-86764667D01*
X155499381Y-86669429D01*
X155499381Y-86431333D01*
X155451762Y-86336095D01*
X155404143Y-86288476D01*
X145371143Y-84066143D02*
X145418762Y-84018524D01*
X145466381Y-83875667D01*
X145466381Y-83780429D01*
X145418762Y-83637571D01*
X145323524Y-83542333D01*
X145228286Y-83494714D01*
X145037810Y-83447095D01*
X144894952Y-83447095D01*
X144704476Y-83494714D01*
X144609238Y-83542333D01*
X144514000Y-83637571D01*
X144466381Y-83780429D01*
X144466381Y-83875667D01*
X144514000Y-84018524D01*
X144561619Y-84066143D01*
X144466381Y-84399476D02*
X144466381Y-85018524D01*
X144847333Y-84685190D01*
X144847333Y-84828048D01*
X144894952Y-84923286D01*
X144942571Y-84970905D01*
X145037810Y-85018524D01*
X145275905Y-85018524D01*
X145371143Y-84970905D01*
X145418762Y-84923286D01*
X145466381Y-84828048D01*
X145466381Y-84542333D01*
X145418762Y-84447095D01*
X145371143Y-84399476D01*
X144466381Y-85875667D02*
X144466381Y-85685190D01*
X144514000Y-85589952D01*
X144561619Y-85542333D01*
X144704476Y-85447095D01*
X144894952Y-85399476D01*
X145275905Y-85399476D01*
X145371143Y-85447095D01*
X145418762Y-85494714D01*
X145466381Y-85589952D01*
X145466381Y-85780429D01*
X145418762Y-85875667D01*
X145371143Y-85923286D01*
X145275905Y-85970905D01*
X145037810Y-85970905D01*
X144942571Y-85923286D01*
X144894952Y-85875667D01*
X144847333Y-85780429D01*
X144847333Y-85589952D01*
X144894952Y-85494714D01*
X144942571Y-85447095D01*
X145037810Y-85399476D01*
X145371143Y-80383143D02*
X145418762Y-80335524D01*
X145466381Y-80192667D01*
X145466381Y-80097429D01*
X145418762Y-79954571D01*
X145323524Y-79859333D01*
X145228286Y-79811714D01*
X145037810Y-79764095D01*
X144894952Y-79764095D01*
X144704476Y-79811714D01*
X144609238Y-79859333D01*
X144514000Y-79954571D01*
X144466381Y-80097429D01*
X144466381Y-80192667D01*
X144514000Y-80335524D01*
X144561619Y-80383143D01*
X144799714Y-81240286D02*
X145466381Y-81240286D01*
X144418762Y-81002190D02*
X145133048Y-80764095D01*
X145133048Y-81383143D01*
X145466381Y-82287905D02*
X145466381Y-81716476D01*
X145466381Y-82002190D02*
X144466381Y-82002190D01*
X144609238Y-81906952D01*
X144704476Y-81811714D01*
X144752095Y-81716476D01*
X145371143Y-87749143D02*
X145418762Y-87701524D01*
X145466381Y-87558667D01*
X145466381Y-87463429D01*
X145418762Y-87320571D01*
X145323524Y-87225333D01*
X145228286Y-87177714D01*
X145037810Y-87130095D01*
X144894952Y-87130095D01*
X144704476Y-87177714D01*
X144609238Y-87225333D01*
X144514000Y-87320571D01*
X144466381Y-87463429D01*
X144466381Y-87558667D01*
X144514000Y-87701524D01*
X144561619Y-87749143D01*
X144799714Y-88606286D02*
X145466381Y-88606286D01*
X144418762Y-88368190D02*
X145133048Y-88130095D01*
X145133048Y-88749143D01*
X144561619Y-89082476D02*
X144514000Y-89130095D01*
X144466381Y-89225333D01*
X144466381Y-89463429D01*
X144514000Y-89558667D01*
X144561619Y-89606286D01*
X144656857Y-89653905D01*
X144752095Y-89653905D01*
X144894952Y-89606286D01*
X145466381Y-89034857D01*
X145466381Y-89653905D01*
X145391143Y-76700143D02*
X145438762Y-76652524D01*
X145486381Y-76509667D01*
X145486381Y-76414429D01*
X145438762Y-76271571D01*
X145343524Y-76176333D01*
X145248286Y-76128714D01*
X145057810Y-76081095D01*
X144914952Y-76081095D01*
X144724476Y-76128714D01*
X144629238Y-76176333D01*
X144534000Y-76271571D01*
X144486381Y-76414429D01*
X144486381Y-76509667D01*
X144534000Y-76652524D01*
X144581619Y-76700143D01*
X144819714Y-77557286D02*
X145486381Y-77557286D01*
X144438762Y-77319190D02*
X145153048Y-77081095D01*
X145153048Y-77700143D01*
X144486381Y-77985857D02*
X144486381Y-78604905D01*
X144867333Y-78271571D01*
X144867333Y-78414429D01*
X144914952Y-78509667D01*
X144962571Y-78557286D01*
X145057810Y-78604905D01*
X145295905Y-78604905D01*
X145391143Y-78557286D01*
X145438762Y-78509667D01*
X145486381Y-78414429D01*
X145486381Y-78128714D01*
X145438762Y-78033476D01*
X145391143Y-77985857D01*
X135580381Y-50030143D02*
X135104190Y-49696809D01*
X135580381Y-49458714D02*
X134580381Y-49458714D01*
X134580381Y-49839667D01*
X134628000Y-49934905D01*
X134675619Y-49982524D01*
X134770857Y-50030143D01*
X134913714Y-50030143D01*
X135008952Y-49982524D01*
X135056571Y-49934905D01*
X135104190Y-49839667D01*
X135104190Y-49458714D01*
X135580381Y-50982524D02*
X135580381Y-50411095D01*
X135580381Y-50696809D02*
X134580381Y-50696809D01*
X134723238Y-50601571D01*
X134818476Y-50506333D01*
X134866095Y-50411095D01*
X134580381Y-51315857D02*
X134580381Y-51934905D01*
X134961333Y-51601571D01*
X134961333Y-51744429D01*
X135008952Y-51839667D01*
X135056571Y-51887286D01*
X135151810Y-51934905D01*
X135389905Y-51934905D01*
X135485143Y-51887286D01*
X135532762Y-51839667D01*
X135580381Y-51744429D01*
X135580381Y-51458714D01*
X135532762Y-51363476D01*
X135485143Y-51315857D01*
X131516357Y-58237381D02*
X131849691Y-57761190D01*
X132087786Y-58237381D02*
X132087786Y-57237381D01*
X131706833Y-57237381D01*
X131611595Y-57285000D01*
X131563976Y-57332619D01*
X131516357Y-57427857D01*
X131516357Y-57570714D01*
X131563976Y-57665952D01*
X131611595Y-57713571D01*
X131706833Y-57761190D01*
X132087786Y-57761190D01*
X131183024Y-57237381D02*
X130563976Y-57237381D01*
X130897310Y-57618333D01*
X130754452Y-57618333D01*
X130659214Y-57665952D01*
X130611595Y-57713571D01*
X130563976Y-57808810D01*
X130563976Y-58046905D01*
X130611595Y-58142143D01*
X130659214Y-58189762D01*
X130754452Y-58237381D01*
X131040167Y-58237381D01*
X131135405Y-58189762D01*
X131183024Y-58142143D01*
X129944929Y-57237381D02*
X129849690Y-57237381D01*
X129754452Y-57285000D01*
X129706833Y-57332619D01*
X129659214Y-57427857D01*
X129611595Y-57618333D01*
X129611595Y-57856429D01*
X129659214Y-58046905D01*
X129706833Y-58142143D01*
X129754452Y-58189762D01*
X129849690Y-58237381D01*
X129944929Y-58237381D01*
X130040167Y-58189762D01*
X130087786Y-58142143D01*
X130135405Y-58046905D01*
X130183024Y-57856429D01*
X130183024Y-57618333D01*
X130135405Y-57427857D01*
X130087786Y-57332619D01*
X130040167Y-57285000D01*
X129944929Y-57237381D01*
X131516357Y-58364381D02*
X131849691Y-57888190D01*
X132087786Y-58364381D02*
X132087786Y-57364381D01*
X131706833Y-57364381D01*
X131611595Y-57412000D01*
X131563976Y-57459619D01*
X131516357Y-57554857D01*
X131516357Y-57697714D01*
X131563976Y-57792952D01*
X131611595Y-57840571D01*
X131706833Y-57888190D01*
X132087786Y-57888190D01*
X131183024Y-57364381D02*
X130563976Y-57364381D01*
X130897310Y-57745333D01*
X130754452Y-57745333D01*
X130659214Y-57792952D01*
X130611595Y-57840571D01*
X130563976Y-57935810D01*
X130563976Y-58173905D01*
X130611595Y-58269143D01*
X130659214Y-58316762D01*
X130754452Y-58364381D01*
X131040167Y-58364381D01*
X131135405Y-58316762D01*
X131183024Y-58269143D01*
X129611595Y-58364381D02*
X130183024Y-58364381D01*
X129897310Y-58364381D02*
X129897310Y-57364381D01*
X129992548Y-57507238D01*
X130087786Y-57602476D01*
X130183024Y-57650095D01*
X126182381Y-49268143D02*
X125706190Y-48934809D01*
X126182381Y-48696714D02*
X125182381Y-48696714D01*
X125182381Y-49077667D01*
X125230000Y-49172905D01*
X125277619Y-49220524D01*
X125372857Y-49268143D01*
X125515714Y-49268143D01*
X125610952Y-49220524D01*
X125658571Y-49172905D01*
X125706190Y-49077667D01*
X125706190Y-48696714D01*
X125182381Y-49601476D02*
X125182381Y-50220524D01*
X125563333Y-49887190D01*
X125563333Y-50030048D01*
X125610952Y-50125286D01*
X125658571Y-50172905D01*
X125753810Y-50220524D01*
X125991905Y-50220524D01*
X126087143Y-50172905D01*
X126134762Y-50125286D01*
X126182381Y-50030048D01*
X126182381Y-49744333D01*
X126134762Y-49649095D01*
X126087143Y-49601476D01*
X125277619Y-50601476D02*
X125230000Y-50649095D01*
X125182381Y-50744333D01*
X125182381Y-50982429D01*
X125230000Y-51077667D01*
X125277619Y-51125286D01*
X125372857Y-51172905D01*
X125468095Y-51172905D01*
X125610952Y-51125286D01*
X126182381Y-50553857D01*
X126182381Y-51172905D01*
X124785381Y-49268143D02*
X124309190Y-48934809D01*
X124785381Y-48696714D02*
X123785381Y-48696714D01*
X123785381Y-49077667D01*
X123833000Y-49172905D01*
X123880619Y-49220524D01*
X123975857Y-49268143D01*
X124118714Y-49268143D01*
X124213952Y-49220524D01*
X124261571Y-49172905D01*
X124309190Y-49077667D01*
X124309190Y-48696714D01*
X123785381Y-49601476D02*
X123785381Y-50220524D01*
X124166333Y-49887190D01*
X124166333Y-50030048D01*
X124213952Y-50125286D01*
X124261571Y-50172905D01*
X124356810Y-50220524D01*
X124594905Y-50220524D01*
X124690143Y-50172905D01*
X124737762Y-50125286D01*
X124785381Y-50030048D01*
X124785381Y-49744333D01*
X124737762Y-49649095D01*
X124690143Y-49601476D01*
X123785381Y-50553857D02*
X123785381Y-51172905D01*
X124166333Y-50839571D01*
X124166333Y-50982429D01*
X124213952Y-51077667D01*
X124261571Y-51125286D01*
X124356810Y-51172905D01*
X124594905Y-51172905D01*
X124690143Y-51125286D01*
X124737762Y-51077667D01*
X124785381Y-50982429D01*
X124785381Y-50696714D01*
X124737762Y-50601476D01*
X124690143Y-50553857D01*
X146248381Y-49903143D02*
X145772190Y-49569809D01*
X146248381Y-49331714D02*
X145248381Y-49331714D01*
X145248381Y-49712667D01*
X145296000Y-49807905D01*
X145343619Y-49855524D01*
X145438857Y-49903143D01*
X145581714Y-49903143D01*
X145676952Y-49855524D01*
X145724571Y-49807905D01*
X145772190Y-49712667D01*
X145772190Y-49331714D01*
X145248381Y-50236476D02*
X145248381Y-50855524D01*
X145629333Y-50522190D01*
X145629333Y-50665048D01*
X145676952Y-50760286D01*
X145724571Y-50807905D01*
X145819810Y-50855524D01*
X146057905Y-50855524D01*
X146153143Y-50807905D01*
X146200762Y-50760286D01*
X146248381Y-50665048D01*
X146248381Y-50379333D01*
X146200762Y-50284095D01*
X146153143Y-50236476D01*
X145248381Y-51188857D02*
X145248381Y-51855524D01*
X146248381Y-51426952D01*
M02*
