G04 #@! TF.FileFunction,Soldermask,Top*
%FSLAX46Y46*%
G04 Gerber Fmt 4.6, Leading zero omitted, Abs format (unit mm)*
G04 Created by KiCad (PCBNEW 4.0.7) date 04/17/18 20:34:35*
%MOMM*%
%LPD*%
G01*
G04 APERTURE LIST*
%ADD10C,0.100000*%
%ADD11R,2.800000X2.800000*%
%ADD12C,2.800000*%
%ADD13R,0.950000X2.150000*%
%ADD14R,2.076400X0.704800*%
%ADD15R,4.010000X6.750000*%
%ADD16R,2.400000X2.000000*%
%ADD17R,2.000000X2.400000*%
%ADD18C,5.480000*%
%ADD19R,2.400000X2.100000*%
%ADD20R,1.400000X1.400000*%
%ADD21R,3.651200X2.889200*%
%ADD22R,1.200000X2.300000*%
%ADD23C,2.899360*%
%ADD24R,1.400000X1.100000*%
%ADD25C,1.924000*%
%ADD26C,3.850000*%
%ADD27R,1.300000X1.600000*%
%ADD28R,1.600000X1.300000*%
%ADD29C,1.162000*%
%ADD30R,1.600000X1.150000*%
%ADD31R,1.150000X1.600000*%
G04 APERTURE END LIST*
D10*
D11*
X154000200Y-70078600D03*
D12*
X154000200Y-65078600D03*
D13*
X141859000Y-59580000D03*
X143129000Y-59580000D03*
X144399000Y-59580000D03*
X145669000Y-59580000D03*
X145669000Y-52180000D03*
X144399000Y-52180000D03*
X143129000Y-52180000D03*
X141859000Y-52180000D03*
D14*
X131737100Y-95891414D03*
X131737100Y-96391412D03*
X131737100Y-96891412D03*
X131737100Y-97391410D03*
X131737100Y-97891410D03*
X131737100Y-98391409D03*
X131737100Y-98891408D03*
X131737100Y-99391406D03*
X131737100Y-99891406D03*
X131737100Y-100391404D03*
X131737100Y-100891404D03*
X131737100Y-101391403D03*
X131737100Y-101891402D03*
X131737100Y-102391400D03*
X131737100Y-102891400D03*
X131737100Y-103391398D03*
X131737100Y-103891397D03*
X131737100Y-104391396D03*
X131737100Y-104891396D03*
X131737100Y-105391394D03*
X131737100Y-105891394D03*
X131737100Y-106391392D03*
X131737100Y-106891391D03*
X131737100Y-107391390D03*
X131737100Y-107891390D03*
X131737100Y-108391388D03*
X131737100Y-108891388D03*
X131737100Y-109391386D03*
X139077700Y-109391386D03*
X139077700Y-108891388D03*
X139077700Y-108391388D03*
X139077700Y-107891390D03*
X139077700Y-107391390D03*
X139077700Y-106891391D03*
X139077700Y-106391392D03*
X139077700Y-105891394D03*
X139077700Y-105391394D03*
X139077700Y-104891396D03*
X139077700Y-104391396D03*
X139077700Y-103891397D03*
X139077700Y-103391398D03*
X139077700Y-102891400D03*
X139077700Y-102391400D03*
X139077700Y-101891402D03*
X139077700Y-101391403D03*
X139077700Y-100891404D03*
X139077700Y-100391404D03*
X139077700Y-99891406D03*
X139077700Y-99391406D03*
X139077700Y-98891408D03*
X139077700Y-98391409D03*
X139077700Y-97891410D03*
X139077700Y-97391410D03*
X139077700Y-96891412D03*
X139077700Y-96391412D03*
X139077700Y-95891414D03*
D15*
X135407400Y-102641400D03*
D11*
X151434800Y-54254400D03*
D12*
X156434800Y-54254400D03*
D16*
X123234200Y-104165400D03*
X119234200Y-104165400D03*
D17*
X142748000Y-115284000D03*
X142748000Y-111284000D03*
X145034000Y-98901000D03*
X145034000Y-94901000D03*
D16*
X127412500Y-49276000D03*
X123412500Y-49276000D03*
X139732000Y-49276000D03*
X143732000Y-49276000D03*
X131223000Y-49276000D03*
X135223000Y-49276000D03*
D18*
X149351000Y-44602400D03*
X157352000Y-44602400D03*
D19*
X160941000Y-108077000D03*
X164941000Y-108077000D03*
X160941000Y-110490000D03*
X164941000Y-110490000D03*
X160941000Y-112903000D03*
X164941000Y-112903000D03*
X160941000Y-115316000D03*
X164941000Y-115316000D03*
D20*
X151130000Y-103866000D03*
X151130000Y-101366000D03*
X122448000Y-77216000D03*
X124948000Y-77216000D03*
X147975000Y-84963000D03*
X150475000Y-84963000D03*
X132568000Y-83566000D03*
X130068000Y-83566000D03*
X118110000Y-71481000D03*
X118110000Y-68981000D03*
X150475000Y-78359000D03*
X147975000Y-78359000D03*
X132568000Y-76581000D03*
X130068000Y-76581000D03*
D21*
X157226000Y-103581200D03*
X157226000Y-97586800D03*
D22*
X163769000Y-121896000D03*
X165669000Y-121896000D03*
X164719000Y-118896000D03*
X159959000Y-121896000D03*
X161859000Y-121896000D03*
X160909000Y-118896000D03*
D23*
X163004500Y-98107500D03*
X114858800Y-91643200D03*
X127889000Y-70485000D03*
X156146500Y-86042500D03*
X138684000Y-69850000D03*
X114808000Y-87503000D03*
X145796000Y-73025000D03*
X155321000Y-91376500D03*
X155194000Y-75692000D03*
X140843000Y-120650000D03*
X149225000Y-115189000D03*
X122491500Y-113284000D03*
X170053000Y-105029000D03*
X151587200Y-91033600D03*
D24*
X115030500Y-115255000D03*
X115030500Y-117155000D03*
X117530500Y-115255000D03*
X117530500Y-117155000D03*
X115030500Y-116205000D03*
X117530500Y-116205000D03*
D25*
X164719000Y-39751000D03*
X167259000Y-39751000D03*
X169799000Y-39751000D03*
D26*
X163449000Y-31115000D03*
X171069000Y-31115000D03*
D25*
X159766000Y-77470000D03*
X159766000Y-80010000D03*
X159766000Y-82550000D03*
X159766000Y-85090000D03*
X159766000Y-87630000D03*
D26*
X168402000Y-76200000D03*
X168402000Y-88900000D03*
D13*
X120777000Y-59580000D03*
X122047000Y-59580000D03*
X123317000Y-59580000D03*
X124587000Y-59580000D03*
X124587000Y-52180000D03*
X123317000Y-52180000D03*
X122047000Y-52180000D03*
X120777000Y-52180000D03*
X131191000Y-59580000D03*
X132461000Y-59580000D03*
X133731000Y-59580000D03*
X135001000Y-59580000D03*
X135001000Y-52180000D03*
X133731000Y-52180000D03*
X132461000Y-52180000D03*
X131191000Y-52180000D03*
X120777000Y-69486000D03*
X122047000Y-69486000D03*
X123317000Y-69486000D03*
X124587000Y-69486000D03*
X124587000Y-62086000D03*
X123317000Y-62086000D03*
X122047000Y-62086000D03*
X120777000Y-62086000D03*
X141859000Y-69486000D03*
X143129000Y-69486000D03*
X144399000Y-69486000D03*
X145669000Y-69486000D03*
X145669000Y-62086000D03*
X144399000Y-62086000D03*
X143129000Y-62086000D03*
X141859000Y-62086000D03*
X131191000Y-69486000D03*
X132461000Y-69486000D03*
X133731000Y-69486000D03*
X135001000Y-69486000D03*
X135001000Y-62086000D03*
X133731000Y-62086000D03*
X132461000Y-62086000D03*
X131191000Y-62086000D03*
D18*
X138810000Y-44729400D03*
X128142000Y-44729400D03*
X117474000Y-44729400D03*
D27*
X125729000Y-74930000D03*
X122429000Y-74930000D03*
X142495000Y-85090000D03*
X145795000Y-85090000D03*
X138048000Y-83566000D03*
X134748000Y-83566000D03*
X138048000Y-76708000D03*
X134748000Y-76708000D03*
D28*
X118110000Y-76580000D03*
X118110000Y-73280000D03*
D27*
X142622000Y-78486000D03*
X145922000Y-78486000D03*
D29*
X127635000Y-117602000D03*
X135255000Y-117602000D03*
X127635000Y-115062000D03*
X135255000Y-115062000D03*
X127635000Y-112522000D03*
X135255000Y-112522000D03*
D30*
X165928000Y-100520500D03*
X167828000Y-100520500D03*
X165928000Y-97726500D03*
X167828000Y-97726500D03*
X125288000Y-90932000D03*
X127188000Y-90932000D03*
D31*
X122428000Y-106161800D03*
X122428000Y-108061800D03*
X128346200Y-92598200D03*
X128346200Y-94498200D03*
X115570000Y-112964000D03*
X115570000Y-111064000D03*
D30*
X169865000Y-94805500D03*
X171765000Y-94805500D03*
D31*
X114173000Y-111064000D03*
X114173000Y-112964000D03*
X145923000Y-114234000D03*
X145923000Y-112334000D03*
X139344400Y-94523600D03*
X139344400Y-92623600D03*
X147955000Y-101666000D03*
X147955000Y-103566000D03*
X144653000Y-101666000D03*
X144653000Y-103566000D03*
X147955000Y-106238000D03*
X147955000Y-108138000D03*
X144653000Y-106238000D03*
X144653000Y-108138000D03*
X147955000Y-99692500D03*
X147955000Y-97792500D03*
X150876000Y-99248000D03*
X150876000Y-97348000D03*
X143002000Y-94549000D03*
X143002000Y-92649000D03*
X141605000Y-94549000D03*
X141605000Y-92649000D03*
D30*
X115255000Y-78867000D03*
X117155000Y-78867000D03*
D31*
X120116600Y-92598200D03*
X120116600Y-94498200D03*
X121488200Y-92608400D03*
X121488200Y-94508400D03*
X122859800Y-92608400D03*
X122859800Y-94508400D03*
X122428000Y-100269000D03*
X122428000Y-102169000D03*
D30*
X169865000Y-100520500D03*
X171765000Y-100520500D03*
D31*
X124231400Y-92598200D03*
X124231400Y-94498200D03*
X125603000Y-94498200D03*
X125603000Y-92598200D03*
X126974600Y-92598200D03*
X126974600Y-94498200D03*
D30*
X155006000Y-108077000D03*
X156906000Y-108077000D03*
D31*
X119735600Y-106161800D03*
X119735600Y-108061800D03*
D30*
X165928000Y-94805500D03*
X167828000Y-94805500D03*
X169865000Y-97726500D03*
X171765000Y-97726500D03*
X155006000Y-110490000D03*
X156906000Y-110490000D03*
D31*
X129717800Y-92598200D03*
X129717800Y-94498200D03*
D30*
X132141000Y-81407000D03*
X130241000Y-81407000D03*
D31*
X119761000Y-100269000D03*
X119761000Y-102169000D03*
D30*
X155006000Y-112903000D03*
X156906000Y-112903000D03*
X155006000Y-115316000D03*
X156906000Y-115316000D03*
X122621000Y-72898000D03*
X124521000Y-72898000D03*
X144587000Y-83058000D03*
X142687000Y-83058000D03*
X134940000Y-81407000D03*
X136840000Y-81407000D03*
D31*
X115062000Y-71186000D03*
X115062000Y-73086000D03*
D30*
X144714000Y-76454000D03*
X142814000Y-76454000D03*
X134940000Y-74549000D03*
X136840000Y-74549000D03*
D31*
X115062000Y-69149000D03*
X115062000Y-67249000D03*
X120777000Y-74991000D03*
X120777000Y-73091000D03*
X118364000Y-65217000D03*
X118364000Y-67117000D03*
X115062000Y-77023000D03*
X115062000Y-75123000D03*
D30*
X148148000Y-82931000D03*
X150048000Y-82931000D03*
X149921000Y-76454000D03*
X148021000Y-76454000D03*
X132014000Y-74549000D03*
X130114000Y-74549000D03*
D25*
X141224000Y-96621600D03*
M02*
