M48
;DRILL file {KiCad 4.0.7} date 04/15/18 19:58:30
;FORMAT={-:-/ absolute / inch / decimal}
FMAT,2
INCH,TZ
T1C0.012
T2C0.015
T3C0.016
T4C0.030
T5C0.039
T6C0.047
T7C0.160
%
G90
G05
M72
T1
X5.01Y-2.315
X5.01Y-2.345
X5.01Y-2.375
X5.01Y-2.405
X5.01Y-2.435
X5.01Y-2.465
X5.04Y-2.315
X5.04Y-2.345
X5.04Y-2.375
X5.04Y-2.405
X5.04Y-2.435
X5.04Y-2.465
X5.07Y-2.315
X5.07Y-2.345
X5.07Y-2.375
X5.07Y-2.405
X5.07Y-2.435
X5.07Y-2.465
X5.43Y-2.315
X5.43Y-2.345
X5.43Y-2.375
X5.43Y-2.405
X5.43Y-2.435
X5.43Y-2.465
X5.46Y-2.315
X5.46Y-2.345
X5.46Y-2.375
X5.46Y-2.405
X5.46Y-2.435
X5.46Y-2.465
X5.49Y-2.315
X5.49Y-2.345
X5.49Y-2.375
X5.49Y-2.405
X5.49Y-2.435
X5.49Y-2.465
T2
X5.025Y-4.43
X5.025Y-4.53
X5.025Y-4.63
X5.325Y-4.43
X5.325Y-4.53
X5.325Y-4.63
T3
X4.475Y-4.495
X4.475Y-4.8
X4.52Y-3.365
X4.5225Y-4.4475
X4.544Y-4.024
X4.5525Y-4.2175
X4.56Y-3.15
X4.5675Y-4.2875
X4.5725Y-4.5625
X4.575Y-4.655
X4.58Y-2.885
X4.58Y-2.985
X4.5825Y-3.71
X4.584Y-3.562
X4.585Y-3.745
X4.59Y-2.725
X4.6Y-2.76
X4.6Y-4.4675
X4.6075Y-3.3425
X4.6125Y-4.4975
X4.615Y-3.175
X4.625Y-3.4575
X4.635Y-4.66
X4.645Y-4.5
X4.65Y-3.48
X4.65Y-4.835
X4.6525Y-3.52
X4.6525Y-4.255
X4.655Y-4.29
X4.655Y-4.37
X4.67Y-4.7425
X4.675Y-3.15
X4.685Y-4.665
X4.7Y-2.955
X4.705Y-2.58
X4.709Y-5.098
X4.71Y-3.415
X4.71Y-4.625
X4.71Y-4.9075
X4.7175Y-3.205
X4.735Y-2.27
X4.735Y-3.34
X4.74Y-3.3725
X4.7475Y-4.44
X4.7525Y-4.175
X4.755Y-4.485
X4.7775Y-4.2225
X4.7775Y-4.39
X4.7825Y-1.9525
X4.81Y-4.8
X4.81Y-5.069
X4.835Y-3.175
X4.855Y-3.15
X4.8675Y-3.92
X4.8725Y-4.8625
X4.876Y-3.593
X4.88Y-3.41
X4.881Y-3.539
X4.885Y-3.185
X4.8925Y-4.39
X4.9125Y-4.6725
X4.9175Y-4.26
X4.9175Y-4.555
X4.9375Y-3.35
X4.9425Y-3.215
X4.948Y-3.938
X4.952Y-3.972
X4.96Y-4.37
X4.96Y-4.8875
X4.974Y-4.134
X4.982Y-3.984
X4.99Y-4.162
X5.01Y-4.8375
X5.0125Y-3.4175
X5.029Y-4.18
X5.03Y-3.13
X5.03Y-3.21
X5.063Y-4.182
X5.0825Y-4.405
X5.095Y-4.67
X5.1075Y-3.5925
X5.109Y-4.175
X5.11Y-3.3425
X5.145Y-3.6525
X5.1575Y-3.055
X5.17Y-3.5125
X5.187Y-4.341
X5.2025Y-2.84
X5.21Y-3.4175
X5.225Y-1.8575
X5.235Y-4.3425
X5.2475Y-2.8125
X5.255Y-4.44
X5.27Y-3.655
X5.2725Y-2.53
X5.275Y-3.325
X5.28Y-3.385
X5.3Y-3.106
X5.3Y-3.54
X5.302Y-3.166
X5.31Y-3.645
X5.31Y-4.8875
X5.315Y-2.53
X5.315Y-4.348
X5.3175Y-1.995
X5.3325Y-2.2325
X5.34Y-3.72
X5.344Y-2.976
X5.36Y-2.45
X5.36Y-3.085
X5.362Y-4.349
X5.365Y-2.885
X5.388Y-2.35
X5.41Y-4.8675
X5.4275Y-4.36
X5.438Y-3.104
X5.46Y-3.38
X5.462Y-3.174
X5.47Y-4.975
X5.4775Y-4.3625
X5.5Y-5.01
X5.504Y-3.106
X5.516Y-3.586
X5.5325Y-4.3625
X5.534Y-3.432
X5.54Y-4.0975
X5.544Y-3.106
X5.5475Y-4.31
X5.5625Y-4.155
X5.5675Y-4.0775
X5.57Y-2.84
X5.575Y-3.96
X5.585Y-1.94
X5.585Y-3.46
X5.5875Y-4.2925
X5.6Y-3.885
X5.6Y-4.07
X5.61Y-3.2125
X5.61Y-4.015
X5.62Y-4.045
X5.625Y-4.215
X5.645Y-3.8675
X5.6525Y-4.13
X5.655Y-2.235
X5.6625Y-2.8075
X5.67Y-3.645
X5.7Y-2.8075
X5.7025Y-3.5175
X5.74Y-4.005
X5.74Y-4.155
X5.74Y-4.26
X5.764Y-5.069
X5.785Y-3.425
X5.79Y-2.445
X5.792Y-5.096
X5.795Y-3.455
X5.805Y-2.965
X5.8175Y-3.4925
X5.8475Y-3.48
X5.85Y-4.135
X5.855Y-2.35
X5.855Y-2.875
X5.8825Y-3.1875
X5.8825Y-4.0375
X5.91Y-3.685
X5.91Y-3.78
X5.915Y-3.425
X5.9525Y-3.45
X5.98Y-3.48
X6.01Y-3.99
X6.01Y-4.255
X6.0125Y-3.8325
X6.05Y-3.1525
X6.0575Y-3.8425
X6.075Y-3.07
X6.11Y-3.255
X6.225Y-3.515
X6.28Y-4.965
X6.2825Y-4.865
X6.295Y-4.995
X6.315Y-4.87
X6.3625Y-4.61
X6.4175Y-4.35
X6.42Y-3.945
X6.475Y-3.945
X6.488Y-4.003
X6.58Y-4.004
X6.605Y-4.91
X6.685Y-3.9025
T4
X5.56Y-3.804
X6.29Y-3.05
X6.29Y-3.15
X6.29Y-3.25
X6.29Y-3.35
X6.29Y-3.45
X6.485Y-1.565
X6.585Y-1.565
X6.685Y-1.565
T5
X4.52Y-3.445
X4.522Y-3.608
X4.8225Y-4.46
X5.035Y-2.775
X5.46Y-2.75
X5.545Y-4.75
X5.74Y-2.875
X5.875Y-4.535
X5.968Y-3.584
X6.11Y-2.98
X6.115Y-3.5975
X6.1475Y-3.3875
X6.4175Y-3.8625
X6.695Y-4.135
T6
X5.962Y-2.136
X6.063Y-2.5621
X6.063Y-2.759
X6.1589Y-2.136
T7
X4.625Y-1.761
X5.045Y-1.761
X5.465Y-1.761
X5.88Y-1.756
X6.195Y-1.756
T0
M30
