G04 #@! TF.FileFunction,Copper,L2,Bot,Signal*
%FSLAX46Y46*%
G04 Gerber Fmt 4.6, Leading zero omitted, Abs format (unit mm)*
G04 Created by KiCad (PCBNEW 4.0.7) date 04/16/18 14:39:47*
%MOMM*%
%LPD*%
G01*
G04 APERTURE LIST*
%ADD10C,0.100000*%
%ADD11R,2.400000X2.400000*%
%ADD12C,2.400000*%
%ADD13C,0.600000*%
%ADD14C,5.080000*%
%ADD15C,2.499360*%
%ADD16R,2.070000X0.660000*%
%ADD17C,1.524000*%
%ADD18R,1.500000X0.600000*%
%ADD19C,0.762000*%
%ADD20R,0.750000X1.200000*%
%ADD21R,1.200000X0.750000*%
%ADD22R,0.990600X1.778000*%
%ADD23C,0.254000*%
%ADD24C,0.406400*%
%ADD25C,2.540000*%
G04 APERTURE END LIST*
D10*
D11*
X154000200Y-70078600D03*
D12*
X154000200Y-65078600D03*
D13*
X128778000Y-62611000D03*
X128016000Y-62611000D03*
X127254000Y-62611000D03*
X128778000Y-61849000D03*
X128016000Y-61849000D03*
X127254000Y-61849000D03*
X128778000Y-61087000D03*
X128016000Y-61087000D03*
X127254000Y-61087000D03*
X128778000Y-60325000D03*
X128016000Y-60325000D03*
X127254000Y-60325000D03*
X128778000Y-59563000D03*
X128016000Y-59563000D03*
X127254000Y-59563000D03*
X128778000Y-58801000D03*
X128016000Y-58801000D03*
X139446000Y-62611000D03*
X138684000Y-62611000D03*
X137922000Y-62611000D03*
X139446000Y-61849000D03*
X138684000Y-61849000D03*
X137922000Y-61849000D03*
X139446000Y-61087000D03*
X138684000Y-61087000D03*
X137922000Y-61087000D03*
X139446000Y-60325000D03*
X138684000Y-60325000D03*
X137922000Y-60325000D03*
X139446000Y-59563000D03*
X138684000Y-59563000D03*
X137922000Y-59563000D03*
X139446000Y-58801000D03*
X138684000Y-58801000D03*
X137922000Y-58801000D03*
X127254000Y-58801000D03*
D11*
X151434800Y-54254400D03*
D12*
X156434800Y-54254400D03*
D14*
X149351000Y-44602400D03*
X157352000Y-44602400D03*
D15*
X163004500Y-98107500D03*
X114858800Y-91643200D03*
X127889000Y-70485000D03*
X156146500Y-86042500D03*
X138684000Y-69850000D03*
X114808000Y-87503000D03*
X145796000Y-73025000D03*
X155321000Y-91376500D03*
X155194000Y-75692000D03*
X140843000Y-120650000D03*
X149225000Y-115189000D03*
X122491500Y-113284000D03*
X170053000Y-105029000D03*
X151587200Y-91033600D03*
D16*
X138799000Y-56007000D03*
X138799000Y-54737000D03*
X138799000Y-53467000D03*
X138799000Y-52197000D03*
X143649000Y-52197000D03*
X143649000Y-53467000D03*
X143649000Y-54737000D03*
X143649000Y-56007000D03*
D17*
X164719000Y-39751000D03*
X167259000Y-39751000D03*
X169799000Y-39751000D03*
X159766000Y-77470000D03*
X159766000Y-80010000D03*
X159766000Y-82550000D03*
X159766000Y-85090000D03*
X159766000Y-87630000D03*
D16*
X128131000Y-56007000D03*
X128131000Y-54737000D03*
X128131000Y-53467000D03*
X128131000Y-52197000D03*
X132981000Y-52197000D03*
X132981000Y-53467000D03*
X132981000Y-54737000D03*
X132981000Y-56007000D03*
D18*
X146652000Y-85979000D03*
X146652000Y-84709000D03*
X146652000Y-83439000D03*
X146652000Y-82169000D03*
X146652000Y-80899000D03*
X146652000Y-79629000D03*
X146652000Y-78359000D03*
X146652000Y-77089000D03*
X152052000Y-77089000D03*
X152052000Y-78359000D03*
X152052000Y-79629000D03*
X152052000Y-80899000D03*
X152052000Y-82169000D03*
X152052000Y-83439000D03*
X152052000Y-84709000D03*
X152052000Y-85979000D03*
D14*
X138810000Y-44729400D03*
X128142000Y-44729400D03*
X117474000Y-44729400D03*
D19*
X127635000Y-117602000D03*
X135255000Y-117602000D03*
X127635000Y-115062000D03*
X135255000Y-115062000D03*
X127635000Y-112522000D03*
X135255000Y-112522000D03*
D20*
X136398000Y-52898000D03*
X136398000Y-54798000D03*
X147066000Y-52898000D03*
X147066000Y-54798000D03*
D21*
X131384000Y-50546000D03*
X133284000Y-50546000D03*
X142052000Y-50546000D03*
X143952000Y-50546000D03*
X133098500Y-60706000D03*
X134998500Y-60706000D03*
D20*
X122936000Y-54163000D03*
X122936000Y-52263000D03*
X153797000Y-86548000D03*
X153797000Y-84648000D03*
X143764000Y-85659000D03*
X143764000Y-83759000D03*
X143764000Y-81976000D03*
X143764000Y-80076000D03*
X143764000Y-89342000D03*
X143764000Y-87442000D03*
X143764000Y-76393000D03*
X143764000Y-78293000D03*
X135001000Y-52898000D03*
X135001000Y-54798000D03*
D21*
X133098500Y-57912000D03*
X134998500Y-57912000D03*
X134998500Y-59309000D03*
X133098500Y-59309000D03*
D20*
X125730000Y-54163000D03*
X125730000Y-52263000D03*
X124333000Y-52263000D03*
X124333000Y-54163000D03*
X145669000Y-52898000D03*
X145669000Y-54798000D03*
D17*
X141224000Y-96621600D03*
D22*
X114554000Y-77343000D03*
X117094000Y-77343000D03*
X119634000Y-77343000D03*
X122174000Y-77343000D03*
X124714000Y-77343000D03*
X127254000Y-77343000D03*
X129794000Y-77343000D03*
X132334000Y-77343000D03*
X134874000Y-77343000D03*
X137414000Y-77343000D03*
X114554000Y-83159600D03*
X117094000Y-83159600D03*
X119634000Y-83159600D03*
X122174000Y-83159600D03*
X124714000Y-83159600D03*
X127254000Y-83159600D03*
X129794000Y-83159600D03*
X132334000Y-83159600D03*
X134874000Y-83159600D03*
X137414000Y-83159600D03*
X114554000Y-120523000D03*
X117094000Y-120523000D03*
X119634000Y-120523000D03*
X122174000Y-120523000D03*
X124714000Y-120523000D03*
X127254000Y-120523000D03*
X129794000Y-120523000D03*
X132334000Y-120523000D03*
X134874000Y-120523000D03*
X137414000Y-120523000D03*
X114554000Y-126339600D03*
X117094000Y-126339600D03*
X119634000Y-126339600D03*
X122174000Y-126339600D03*
X124714000Y-126339600D03*
X127254000Y-126339600D03*
X129794000Y-126339600D03*
X132334000Y-126339600D03*
X134874000Y-126339600D03*
X137414000Y-126339600D03*
D13*
X133921500Y-64262000D03*
X135001000Y-64262000D03*
X132715000Y-47180500D03*
X140525500Y-110807500D03*
X139128500Y-110807500D03*
X137858500Y-110744000D03*
X131749800Y-110261400D03*
X167132000Y-101701600D03*
X164795200Y-101676200D03*
X116433600Y-90474800D03*
X115417600Y-102209600D03*
X120586500Y-112776000D03*
X120713500Y-106045000D03*
X129794000Y-84899500D03*
X129730500Y-91249500D03*
X150114000Y-93599000D03*
X150114000Y-96012000D03*
X152654000Y-108077000D03*
X116141500Y-115887500D03*
X114871500Y-112966500D03*
X144843500Y-89344500D03*
X158115000Y-89281000D03*
X141859000Y-49276000D03*
X121475500Y-49593500D03*
X155194000Y-82677000D03*
X127762000Y-81534000D03*
X127762000Y-79502000D03*
X144018000Y-92583000D03*
X135064500Y-50673000D03*
X143827500Y-71310500D03*
X152654000Y-101346000D03*
X152717500Y-97345500D03*
X151892000Y-88392000D03*
X148526500Y-88392000D03*
X164465000Y-100203000D03*
X134874000Y-92583000D03*
X135001000Y-110439200D03*
X134620000Y-89916000D03*
X123850400Y-91262200D03*
X123977400Y-89890600D03*
X163004500Y-110490000D03*
X163068000Y-100203000D03*
X153860500Y-97599500D03*
X135445500Y-56705500D03*
X143637000Y-56769000D03*
X116205000Y-118237000D03*
X124904500Y-108204000D03*
X124904500Y-115697000D03*
X140906500Y-109474000D03*
X136144000Y-78359000D03*
X145796000Y-101727000D03*
X143383000Y-98234500D03*
X143573500Y-104902000D03*
X142240000Y-98679000D03*
X149415500Y-80962500D03*
X149415500Y-102552500D03*
X147066000Y-62103000D03*
X147447000Y-75311000D03*
X142875000Y-107061000D03*
X142748000Y-102743000D03*
X133858000Y-92837000D03*
X131000500Y-77597000D03*
X130683000Y-92773500D03*
X136271000Y-73279000D03*
X136144000Y-62230000D03*
X141922500Y-109029500D03*
X141414500Y-103568500D03*
X116840000Y-70104000D03*
X118110000Y-88392000D03*
X148590000Y-105029000D03*
X145796000Y-105537000D03*
X145796000Y-108204000D03*
X147764500Y-88709500D03*
X139801600Y-78892400D03*
X129413000Y-118618000D03*
X119634000Y-117475000D03*
X119634000Y-86741000D03*
X123952000Y-86614000D03*
X124079000Y-80899000D03*
X116840000Y-113474500D03*
X120777000Y-113919000D03*
X115824000Y-80010000D03*
X127254000Y-122872500D03*
X118110000Y-122809000D03*
X117729000Y-118364000D03*
X119507000Y-65532000D03*
X119380000Y-75057000D03*
X132143500Y-72136000D03*
X117157500Y-114236500D03*
X141859000Y-87884000D03*
X117475000Y-87820500D03*
X141478000Y-72136000D03*
X113665000Y-114173000D03*
X122174000Y-121920000D03*
X113665000Y-121920000D03*
X123317000Y-80010000D03*
X118745000Y-80010000D03*
X117983000Y-114300000D03*
X124777500Y-118681500D03*
X118999000Y-118491000D03*
X142494000Y-81597500D03*
X144780000Y-71310500D03*
X133286500Y-71437500D03*
X133985000Y-84455000D03*
X116586000Y-69215000D03*
X120269000Y-57658000D03*
X148717000Y-59690000D03*
X148717000Y-73025000D03*
X136855200Y-59690000D03*
X140106400Y-91084400D03*
X135737600Y-75590400D03*
X142494000Y-101981000D03*
X140563600Y-87172800D03*
X138684000Y-85852000D03*
X140716000Y-104076500D03*
X138125200Y-78841600D03*
X142240000Y-103378000D03*
X134670800Y-80416400D03*
X134620000Y-78892400D03*
X141287500Y-105537000D03*
X138734800Y-80619600D03*
X116332000Y-73279000D03*
X116332000Y-75819000D03*
X140817600Y-78892400D03*
X141605000Y-100584000D03*
X116014500Y-108902500D03*
X118237000Y-110998000D03*
X118237000Y-108966000D03*
X125984000Y-110998000D03*
X116459000Y-95123000D03*
X125984000Y-124142500D03*
X134874000Y-124142500D03*
X139700000Y-127254000D03*
X159893000Y-126873000D03*
X160401000Y-123698000D03*
X115633500Y-107124500D03*
X116395500Y-94234000D03*
X121348500Y-107251500D03*
X121348500Y-111506000D03*
X124269500Y-111506000D03*
X137414000Y-123634500D03*
X123761500Y-123507500D03*
X138938000Y-126365000D03*
X159575500Y-123571000D03*
X159512000Y-126111000D03*
X135636000Y-94488000D03*
X118173500Y-108077000D03*
X118173500Y-89408000D03*
X131318000Y-89217500D03*
X122809000Y-80645000D03*
X117221000Y-80645000D03*
X123634500Y-99568000D03*
X125679200Y-100025200D03*
X125780800Y-100888800D03*
X126542800Y-101193600D03*
X126339600Y-105003600D03*
X120396000Y-85661500D03*
X114808000Y-85471000D03*
X117030500Y-84899500D03*
X120269000Y-84836000D03*
X126746000Y-105714800D03*
X127736600Y-106172000D03*
X128600200Y-106222800D03*
X129768600Y-106045000D03*
X136194800Y-110464600D03*
X161607500Y-117094000D03*
X147193000Y-87757000D03*
X151193500Y-87630000D03*
X147116800Y-129438400D03*
X119608600Y-129489200D03*
X146405600Y-128752600D03*
X122174000Y-128752600D03*
X146939000Y-86995000D03*
X150241000Y-86995000D03*
X154305000Y-77978000D03*
X153670000Y-80073500D03*
X125412500Y-85090000D03*
X134112000Y-85979000D03*
X119824500Y-81407000D03*
X125539500Y-81661000D03*
X133477000Y-112776000D03*
X132969000Y-110299500D03*
X132334000Y-86804500D03*
X127317500Y-86804500D03*
X129095500Y-111887000D03*
X119634000Y-124650500D03*
X169799000Y-99123500D03*
X167767000Y-124714000D03*
X118618000Y-120459500D03*
D23*
X134998500Y-60706000D02*
X134998500Y-64259500D01*
X134998500Y-64259500D02*
X135001000Y-64262000D01*
X134998500Y-59309000D02*
X134998500Y-60706000D01*
X137922000Y-110807500D02*
X139128500Y-110807500D01*
X137858500Y-110744000D02*
X137922000Y-110807500D01*
X164820600Y-101701600D02*
X167132000Y-101701600D01*
X164795200Y-101676200D02*
X164820600Y-101701600D01*
X116636800Y-93014800D02*
X116636800Y-90678000D01*
X116636800Y-90678000D02*
X116433600Y-90474800D01*
X115417600Y-102209600D02*
X115570000Y-102057200D01*
X115570000Y-102057200D02*
X115570000Y-95910400D01*
X115570000Y-95910400D02*
X115316000Y-95656400D01*
X115316000Y-95656400D02*
X115316000Y-94335600D01*
X115316000Y-94335600D02*
X116433600Y-93218000D01*
X116433600Y-93218000D02*
X116636800Y-93014800D01*
X120713500Y-112649000D02*
X120713500Y-106045000D01*
X120713500Y-112649000D02*
X120586500Y-112776000D01*
X129794000Y-91186000D02*
X129794000Y-84899500D01*
X129730500Y-91249500D02*
X129794000Y-91186000D01*
X150114000Y-96012000D02*
X150114000Y-93599000D01*
X152654000Y-107632500D02*
X152654000Y-108077000D01*
X152654000Y-101346000D02*
X152654000Y-107632500D01*
X116141500Y-115887500D02*
X116141500Y-117284500D01*
X117094000Y-118237000D02*
X117094000Y-120523000D01*
X116141500Y-117284500D02*
X117094000Y-118237000D01*
X114871500Y-112966500D02*
X114871500Y-114617500D01*
X114871500Y-114617500D02*
X116141500Y-115887500D01*
X159766000Y-82550000D02*
X159448500Y-82550000D01*
X159448500Y-82550000D02*
X158115000Y-83883500D01*
X144841000Y-89342000D02*
X143764000Y-89342000D01*
X144843500Y-89344500D02*
X144841000Y-89342000D01*
X158115000Y-83883500D02*
X158115000Y-89281000D01*
X143952000Y-49847500D02*
X143952000Y-49654500D01*
X143573500Y-49276000D02*
X141859000Y-49276000D01*
X143952000Y-49654500D02*
X143573500Y-49276000D01*
X121475500Y-49593500D02*
X121475500Y-51498500D01*
X121475500Y-51498500D02*
X122240000Y-52263000D01*
X122936000Y-52263000D02*
X122240000Y-52263000D01*
X153797000Y-84648000D02*
X153797000Y-84074000D01*
X153797000Y-84074000D02*
X155194000Y-82677000D01*
X127762000Y-79502000D02*
X127762000Y-81534000D01*
X143764000Y-89342000D02*
X143764000Y-91567000D01*
X144018000Y-91821000D02*
X144018000Y-92583000D01*
X143764000Y-91567000D02*
X144018000Y-91821000D01*
X152052000Y-84709000D02*
X153736000Y-84709000D01*
X153736000Y-84709000D02*
X153797000Y-84648000D01*
X143952000Y-50546000D02*
X143952000Y-49847500D01*
X143952000Y-49847500D02*
X143952000Y-49845000D01*
X143649000Y-52197000D02*
X143649000Y-50849000D01*
X143649000Y-50849000D02*
X143952000Y-50546000D01*
X135064500Y-50673000D02*
X135636000Y-50673000D01*
X136398000Y-51435000D02*
X136398000Y-52898000D01*
X135636000Y-50673000D02*
X136398000Y-51435000D01*
X133284000Y-50546000D02*
X134937500Y-50546000D01*
X134937500Y-50546000D02*
X135064500Y-50673000D01*
X132981000Y-52197000D02*
X132981000Y-50849000D01*
X132981000Y-50849000D02*
X133284000Y-50546000D01*
X122936000Y-52263000D02*
X124333000Y-52263000D01*
X147066000Y-52898000D02*
X147066000Y-50927000D01*
X146685000Y-50546000D02*
X143952000Y-50546000D01*
X147066000Y-50927000D02*
X146685000Y-50546000D01*
X143764000Y-76393000D02*
X143764000Y-71374000D01*
X143764000Y-71374000D02*
X143827500Y-71310500D01*
X152654000Y-101346000D02*
X152717500Y-101282500D01*
X152717500Y-101282500D02*
X152717500Y-97345500D01*
X147955000Y-74117200D02*
X147955000Y-74930000D01*
X147955000Y-64135000D02*
X147955000Y-74117200D01*
X152052000Y-88232000D02*
X152052000Y-85979000D01*
X151892000Y-88392000D02*
X152052000Y-88232000D01*
X148336000Y-75311000D02*
X148336000Y-87376000D01*
X147955000Y-74930000D02*
X148336000Y-75311000D01*
X148336000Y-88201500D02*
X148336000Y-87376000D01*
X148526500Y-88392000D02*
X148336000Y-88201500D01*
X165227000Y-45339000D02*
X165227000Y-99060000D01*
X165227000Y-41910000D02*
X165227000Y-45339000D01*
X167259000Y-39878000D02*
X165227000Y-41910000D01*
X164465000Y-99822000D02*
X164465000Y-100203000D01*
X165227000Y-99060000D02*
X164465000Y-99822000D01*
X167259000Y-39751000D02*
X167259000Y-39878000D01*
X145669000Y-54798000D02*
X145669000Y-56007000D01*
X145669000Y-56007000D02*
X145669000Y-55930800D01*
X145669000Y-55930800D02*
X145669000Y-56007000D01*
X134366000Y-92075000D02*
X133223000Y-92075000D01*
X134874000Y-92583000D02*
X134366000Y-92075000D01*
X133223000Y-97790000D02*
X133223000Y-92075000D01*
X133223000Y-104521000D02*
X133223000Y-97790000D01*
X135001000Y-109855000D02*
X133223000Y-108077000D01*
X133223000Y-108077000D02*
X133223000Y-104521000D01*
X135001000Y-110439200D02*
X135001000Y-109855000D01*
X133223000Y-92075000D02*
X133223000Y-91313000D01*
X133223000Y-91313000D02*
X134239000Y-90297000D01*
X134620000Y-89916000D02*
X134239000Y-90297000D01*
X123850400Y-90017600D02*
X123850400Y-91262200D01*
X123977400Y-89890600D02*
X123850400Y-90017600D01*
X163004500Y-110490000D02*
X163068000Y-110426500D01*
X163068000Y-110426500D02*
X163068000Y-100203000D01*
X153416000Y-86929000D02*
X153797000Y-86548000D01*
X153416000Y-97155000D02*
X153416000Y-86929000D01*
X153860500Y-97599500D02*
X153416000Y-97155000D01*
X135445500Y-56007000D02*
X135445500Y-56705500D01*
X143649000Y-56757000D02*
X143649000Y-56007000D01*
X143637000Y-56769000D02*
X143649000Y-56757000D01*
X152052000Y-85979000D02*
X153228000Y-85979000D01*
X153228000Y-85979000D02*
X153797000Y-86548000D01*
X114554000Y-126339600D02*
X114554000Y-126111000D01*
X114554000Y-126111000D02*
X115824000Y-124841000D01*
X115824000Y-124841000D02*
X115824000Y-118618000D01*
X115824000Y-118618000D02*
X116205000Y-118237000D01*
X124904500Y-108204000D02*
X124904500Y-115697000D01*
X135445500Y-56007000D02*
X135445500Y-56070500D01*
X135445500Y-56070500D02*
X135445500Y-56007000D01*
X145669000Y-54798000D02*
X147066000Y-54798000D01*
X136398000Y-54798000D02*
X136398000Y-55816500D01*
X136398000Y-55816500D02*
X136207500Y-56007000D01*
X135001000Y-54798000D02*
X136398000Y-54798000D01*
X167259000Y-39751000D02*
X167005000Y-39751000D01*
X152052000Y-85979000D02*
X152052000Y-86022200D01*
X152052000Y-85979000D02*
X151587200Y-85979000D01*
X145872200Y-56007000D02*
X146177000Y-56007000D01*
X145669000Y-56007000D02*
X145872200Y-56007000D01*
X147955000Y-57785000D02*
X147955000Y-64135000D01*
X146177000Y-56007000D02*
X147955000Y-57785000D01*
X145034000Y-56007000D02*
X145669000Y-56007000D01*
X143649000Y-56007000D02*
X145034000Y-56007000D01*
X147955000Y-64135000D02*
X147955000Y-64236600D01*
X136207500Y-56007000D02*
X136321800Y-56007000D01*
X132981000Y-56007000D02*
X135445500Y-56007000D01*
X135445500Y-56007000D02*
X136207500Y-56007000D01*
X131384000Y-54737000D02*
X131826000Y-54737000D01*
X131826000Y-54737000D02*
X132981000Y-54737000D01*
X131384000Y-54737000D02*
X131445000Y-54737000D01*
X131445000Y-54737000D02*
X131384000Y-54737000D01*
X131978400Y-101777800D02*
X131978400Y-108280200D01*
X133604000Y-110744000D02*
X132715000Y-111633000D01*
X132715000Y-120142000D02*
X132715000Y-111633000D01*
X133350000Y-89204800D02*
X131978400Y-90576400D01*
X131978400Y-90576400D02*
X131978400Y-101777800D01*
X133350000Y-86931500D02*
X133350000Y-86995000D01*
X132715000Y-73025000D02*
X132842000Y-73025000D01*
X131384000Y-72456000D02*
X131384000Y-54737000D01*
X131384000Y-54737000D02*
X131384000Y-54295000D01*
X131953000Y-73025000D02*
X132715000Y-73025000D01*
X131384000Y-72456000D02*
X131953000Y-73025000D01*
X133350000Y-73533000D02*
X133350000Y-80327500D01*
X132842000Y-73025000D02*
X133350000Y-73533000D01*
X133350000Y-80327500D02*
X133350000Y-86931500D01*
X133350000Y-86995000D02*
X133350000Y-89204800D01*
X133604000Y-109905800D02*
X133604000Y-110744000D01*
X131978400Y-108280200D02*
X133604000Y-109905800D01*
X132715000Y-120142000D02*
X132334000Y-120523000D01*
X131384000Y-50546000D02*
X131384000Y-54295000D01*
X140906500Y-109474000D02*
X137287000Y-105854500D01*
X137312400Y-97447100D02*
X137312400Y-105879900D01*
X137312400Y-94792800D02*
X137312400Y-97447100D01*
X138029996Y-94075204D02*
X137464800Y-94640400D01*
X138029996Y-93789500D02*
X138029996Y-86975996D01*
X138029996Y-86975996D02*
X137541000Y-86487000D01*
X137541000Y-85598000D02*
X137350500Y-85407500D01*
X137541000Y-85598000D02*
X137541000Y-86487000D01*
X138029996Y-93789500D02*
X138029996Y-94075204D01*
X137464800Y-94640400D02*
X137312400Y-94792800D01*
X137414000Y-85471000D02*
X137350500Y-85407500D01*
X137350500Y-85407500D02*
X136525000Y-84582000D01*
X136144000Y-78359000D02*
X136525000Y-78740000D01*
X136525000Y-78740000D02*
X136525000Y-84582000D01*
X145796000Y-100647500D02*
X145796000Y-101727000D01*
X143383000Y-98234500D02*
X145796000Y-100647500D01*
X143573500Y-100012500D02*
X143573500Y-104902000D01*
X142240000Y-98679000D02*
X143573500Y-100012500D01*
X149415500Y-80962500D02*
X149415500Y-81216500D01*
X149415500Y-81216500D02*
X149415500Y-102552500D01*
X147447000Y-74422000D02*
X147447000Y-75311000D01*
X147066000Y-62103000D02*
X147447000Y-62484000D01*
X147447000Y-62484000D02*
X147447000Y-74422000D01*
X142875000Y-102870000D02*
X142875000Y-107061000D01*
X142748000Y-102743000D02*
X142875000Y-102870000D01*
X137160000Y-110236000D02*
X137160000Y-115951000D01*
X133858000Y-92837000D02*
X133731000Y-92964000D01*
X133731000Y-92964000D02*
X133731000Y-93091000D01*
X133731000Y-93472000D02*
X133731000Y-93091000D01*
X137160000Y-110236000D02*
X137160000Y-109855000D01*
X137160000Y-109855000D02*
X136652000Y-109347000D01*
X136652000Y-109347000D02*
X135255000Y-109347000D01*
X135255000Y-109347000D02*
X133731000Y-107823000D01*
X133731000Y-107823000D02*
X133731000Y-96139000D01*
X133731000Y-93472000D02*
X133731000Y-96139000D01*
X137477500Y-116268500D02*
X141922500Y-116268500D01*
X137160000Y-115951000D02*
X137477500Y-116268500D01*
X141922500Y-116268500D02*
X141795500Y-116268500D01*
X141795500Y-116268500D02*
X141922500Y-116268500D01*
X131000500Y-77597000D02*
X131000500Y-78613000D01*
X130937000Y-78676500D02*
X130556000Y-79057500D01*
X130556000Y-80518000D02*
X130556000Y-79057500D01*
X131000500Y-78613000D02*
X130937000Y-78676500D01*
X130683000Y-88963500D02*
X130683000Y-92773500D01*
X130810000Y-88836500D02*
X130683000Y-88963500D01*
X130556000Y-80518000D02*
X130556000Y-81851500D01*
X130810000Y-82105500D02*
X130810000Y-82867500D01*
X130556000Y-81851500D02*
X130810000Y-82105500D01*
X130810000Y-82867500D02*
X130810000Y-88836500D01*
X141922500Y-119570500D02*
X140843000Y-120650000D01*
X141922500Y-116268500D02*
X141922500Y-118681500D01*
X141922500Y-118681500D02*
X141922500Y-119570500D01*
X141922500Y-110439200D02*
X141922500Y-112395000D01*
X141922500Y-112395000D02*
X141922500Y-116268500D01*
X130556000Y-80518000D02*
X130556000Y-80581500D01*
X136271000Y-62357000D02*
X136271000Y-73279000D01*
X136144000Y-62230000D02*
X136271000Y-62357000D01*
X141922500Y-110439200D02*
X141922500Y-109029500D01*
X141922500Y-104076500D02*
X141922500Y-109029500D01*
X141414500Y-103568500D02*
X141922500Y-104076500D01*
X118110000Y-86868000D02*
X118110000Y-88392000D01*
X117856000Y-81788000D02*
X117856000Y-82042000D01*
X116840000Y-70104000D02*
X117094000Y-70358000D01*
X117094000Y-70358000D02*
X117094000Y-75057000D01*
X117094000Y-75057000D02*
X118491000Y-76454000D01*
X118491000Y-76454000D02*
X118491000Y-79375000D01*
X118491000Y-79375000D02*
X117856000Y-80010000D01*
X117856000Y-80010000D02*
X117856000Y-81788000D01*
X118110000Y-82296000D02*
X118110000Y-85471000D01*
X117856000Y-82042000D02*
X118110000Y-82296000D01*
X118110000Y-86868000D02*
X118110000Y-85471000D01*
X145796000Y-105537000D02*
X145796000Y-108204000D01*
X148590000Y-89535000D02*
X148590000Y-105029000D01*
X147764500Y-88709500D02*
X148590000Y-89535000D01*
X142052000Y-54292500D02*
X142052000Y-54737000D01*
X142113000Y-54673500D02*
X142113000Y-54737000D01*
X142113000Y-54676000D02*
X142113000Y-54673500D01*
X142052000Y-54737000D02*
X142113000Y-54676000D01*
X141986000Y-54737000D02*
X142113000Y-54737000D01*
X141986000Y-54737000D02*
X141287500Y-54737000D01*
X140589000Y-77800200D02*
X140589000Y-78105000D01*
X140182600Y-78511400D02*
X140589000Y-78105000D01*
X140589000Y-55435500D02*
X140589000Y-77800200D01*
X141287500Y-54737000D02*
X140589000Y-55435500D01*
X142113000Y-54737000D02*
X142494000Y-54737000D01*
X142494000Y-54737000D02*
X143649000Y-54737000D01*
X142052000Y-54229000D02*
X142052000Y-54292500D01*
X142052000Y-54292500D02*
X142052000Y-54295000D01*
X142052000Y-54229000D02*
X142052000Y-50546000D01*
X139801600Y-78892400D02*
X140182600Y-78511400D01*
X140182600Y-78511400D02*
X140208000Y-78486000D01*
X119634000Y-86741000D02*
X119634000Y-86750502D01*
X119634000Y-86750502D02*
X119326002Y-87058500D01*
X119326002Y-87058500D02*
X119326002Y-117167002D01*
X119326002Y-117167002D02*
X119634000Y-117475000D01*
X129413000Y-118618000D02*
X129794000Y-118999000D01*
X129794000Y-118999000D02*
X129794000Y-120523000D01*
X123698000Y-86360000D02*
X123952000Y-86614000D01*
X123698000Y-81280000D02*
X123698000Y-86360000D01*
X124079000Y-80899000D02*
X123698000Y-81280000D01*
X116776500Y-112077500D02*
X116776500Y-113411000D01*
X120777000Y-119126000D02*
X118300500Y-119126000D01*
X120777000Y-113919000D02*
X120777000Y-119126000D01*
X118110000Y-119126000D02*
X118300500Y-119126000D01*
X117983000Y-119126000D02*
X118110000Y-119126000D01*
X117094000Y-107569000D02*
X116776500Y-107886500D01*
X116776500Y-107886500D02*
X116776500Y-112077500D01*
X116840000Y-88138000D02*
X116840000Y-88147502D01*
X116586000Y-86741000D02*
X116586000Y-87884000D01*
X116586000Y-86741000D02*
X116332000Y-86487000D01*
X116078000Y-86233000D02*
X116332000Y-86487000D01*
X115824000Y-80010000D02*
X116078000Y-80264000D01*
X116078000Y-80264000D02*
X116078000Y-86233000D01*
X116586000Y-87884000D02*
X116840000Y-88138000D01*
X117094000Y-90189004D02*
X117094000Y-104330500D01*
X116903500Y-89998504D02*
X117094000Y-90189004D01*
X116903500Y-88211002D02*
X116903500Y-89998504D01*
X116840000Y-88147502D02*
X116903500Y-88211002D01*
X117094000Y-104330500D02*
X117094000Y-107569000D01*
X116776500Y-113411000D02*
X116840000Y-113474500D01*
X117983000Y-119126000D02*
X117983000Y-122682000D01*
X117983000Y-122682000D02*
X118110000Y-122809000D01*
X127254000Y-122872500D02*
X127254000Y-121666000D01*
X127254000Y-120523000D02*
X127254000Y-121666000D01*
X117729000Y-118935500D02*
X117729000Y-119126000D01*
X117729000Y-119126000D02*
X117983000Y-119126000D01*
X117729000Y-118808500D02*
X117729000Y-118935500D01*
X117729000Y-118364000D02*
X117729000Y-118808500D01*
X119507000Y-74930000D02*
X119507000Y-65532000D01*
X119380000Y-75057000D02*
X119507000Y-74930000D01*
X133098500Y-60706000D02*
X132715000Y-60706000D01*
X132715000Y-60706000D02*
X132080000Y-61341000D01*
X132143500Y-72136000D02*
X132080000Y-72072500D01*
X132080000Y-72072500D02*
X132080000Y-71501000D01*
X141859000Y-80866544D02*
X141678002Y-80685546D01*
X141478000Y-79883000D02*
X141478000Y-80485544D01*
X141478000Y-72136000D02*
X141478000Y-79883000D01*
X141478000Y-80485544D02*
X141678002Y-80685546D01*
X117284500Y-111760000D02*
X117475000Y-111950500D01*
X117284500Y-108077000D02*
X117284500Y-111379000D01*
X117284500Y-111379000D02*
X117284500Y-111696500D01*
X117284500Y-111696500D02*
X117284500Y-111760000D01*
X117592498Y-105029000D02*
X117592498Y-107769002D01*
X117592498Y-89969998D02*
X117592498Y-92646500D01*
X117411500Y-89789000D02*
X117592498Y-89969998D01*
X117411500Y-87884000D02*
X117411500Y-89789000D01*
X117475000Y-87820500D02*
X117411500Y-87884000D01*
X117592498Y-105029000D02*
X117592498Y-92646500D01*
X117592498Y-107769002D02*
X117284500Y-108077000D01*
X117475000Y-113919000D02*
X117157500Y-114236500D01*
X117475000Y-111950500D02*
X117475000Y-113919000D01*
X141859000Y-87884000D02*
X141859000Y-80866544D01*
X132080000Y-61341000D02*
X132080000Y-71501000D01*
X133098500Y-59309000D02*
X133098500Y-60706000D01*
X133098500Y-57912000D02*
X133098500Y-59309000D01*
X113665000Y-118999000D02*
X113665000Y-121920000D01*
X113665000Y-114173000D02*
X113665000Y-118999000D01*
X122174000Y-121920000D02*
X122174000Y-120523000D01*
X118618000Y-81915000D02*
X118618000Y-80137000D01*
X123444000Y-79883000D02*
X123317000Y-80010000D01*
X122936000Y-75247500D02*
X123444000Y-75755500D01*
X122936000Y-54163000D02*
X122936000Y-75247500D01*
X123444000Y-75755500D02*
X123444000Y-79883000D01*
X118872000Y-84836000D02*
X118618000Y-84582000D01*
X118618000Y-84582000D02*
X118618000Y-81915000D01*
X118872000Y-113919000D02*
X118554500Y-114236500D01*
X118872000Y-113919000D02*
X118872000Y-86614000D01*
X118872000Y-86614000D02*
X118872000Y-84836000D01*
X118618000Y-80137000D02*
X118745000Y-80010000D01*
X118491000Y-114236500D02*
X118554500Y-114236500D01*
X118046500Y-114236500D02*
X117983000Y-114300000D01*
X118491000Y-114236500D02*
X118046500Y-114236500D01*
X118554500Y-114236500D02*
X118554500Y-118046500D01*
X124714000Y-118745000D02*
X124714000Y-120523000D01*
X124777500Y-118681500D02*
X124714000Y-118745000D01*
X118554500Y-118046500D02*
X118999000Y-118491000D01*
X124333000Y-54163000D02*
X125730000Y-54163000D01*
X122936000Y-54163000D02*
X124333000Y-54163000D01*
X146652000Y-85979000D02*
X144439600Y-85979000D01*
X144439600Y-85979000D02*
X144119600Y-85659000D01*
X143764000Y-83759000D02*
X146332000Y-83759000D01*
X146332000Y-83759000D02*
X146652000Y-83439000D01*
D24*
X138810000Y-44729400D02*
X138810000Y-52186000D01*
X138810000Y-52186000D02*
X138799000Y-52197000D01*
D23*
X134998500Y-57912000D02*
X136779000Y-57912000D01*
X137223500Y-54102000D02*
X137858500Y-53467000D01*
X137223500Y-57467500D02*
X137223500Y-54102000D01*
X136779000Y-57912000D02*
X137223500Y-57467500D01*
X137858500Y-53467000D02*
X138799000Y-53467000D01*
D24*
X128142000Y-44729400D02*
X128142000Y-52186000D01*
X128142000Y-52186000D02*
X128131000Y-52197000D01*
D23*
X125730000Y-52263000D02*
X128065000Y-52263000D01*
X128065000Y-52263000D02*
X128131000Y-52197000D01*
X144068800Y-81976000D02*
X146459000Y-81976000D01*
X146459000Y-81976000D02*
X146652000Y-82169000D01*
X146652000Y-80899000D02*
X144891800Y-80899000D01*
X144891800Y-80899000D02*
X144068800Y-80076000D01*
X143002000Y-84963000D02*
X143002000Y-87122000D01*
X143322000Y-87442000D02*
X143764000Y-87442000D01*
X143002000Y-87122000D02*
X143322000Y-87442000D01*
X146652000Y-84709000D02*
X143256000Y-84709000D01*
X143256000Y-84709000D02*
X143002000Y-84963000D01*
X144068800Y-78115200D02*
X144282200Y-78115200D01*
X144282200Y-78115200D02*
X145796000Y-79629000D01*
X145796000Y-79629000D02*
X146652000Y-79629000D01*
X142494000Y-71437500D02*
X142494000Y-81597500D01*
X143319500Y-70612000D02*
X142494000Y-71437500D01*
X144081500Y-70612000D02*
X143319500Y-70612000D01*
X144780000Y-71310500D02*
X144081500Y-70612000D01*
X133286500Y-72326500D02*
X133286500Y-72771000D01*
X133286500Y-71437500D02*
X133286500Y-72326500D01*
X133804002Y-73288502D02*
X133804002Y-79248000D01*
X133286500Y-72771000D02*
X133804002Y-73288502D01*
X133804002Y-79248000D02*
X133804002Y-84274002D01*
X133804002Y-84274002D02*
X133985000Y-84455000D01*
X133804002Y-79248000D02*
X133804002Y-79311500D01*
X116586000Y-58674000D02*
X116586000Y-69215000D01*
X117602000Y-57658000D02*
X116586000Y-58674000D01*
X119253000Y-57658000D02*
X117602000Y-57658000D01*
X120269000Y-57658000D02*
X119253000Y-57658000D01*
X148717000Y-73025000D02*
X148717000Y-59690000D01*
X136855200Y-72745600D02*
X136956800Y-72847200D01*
X136956800Y-72847200D02*
X136956800Y-74371200D01*
X135737600Y-75590400D02*
X136956800Y-74371200D01*
X136855200Y-59690000D02*
X136855200Y-72745600D01*
X139039600Y-75590400D02*
X139039600Y-79113944D01*
X135737600Y-75590400D02*
X139039600Y-75590400D01*
X139903200Y-79977544D02*
X139903200Y-85140800D01*
X139903200Y-79977544D02*
X139055828Y-79130172D01*
X139039600Y-79113944D02*
X139055828Y-79130172D01*
X139903200Y-90881200D02*
X139903200Y-85140800D01*
X140106400Y-91084400D02*
X139903200Y-90881200D01*
X139903200Y-85140800D02*
X139903200Y-85090000D01*
X140766800Y-90932000D02*
X140766800Y-94437200D01*
X142494000Y-101981000D02*
X141859000Y-101346000D01*
X141859000Y-101346000D02*
X141478000Y-101346000D01*
X141478000Y-101346000D02*
X141097000Y-100965000D01*
X139319000Y-95885000D02*
X139319000Y-99187000D01*
X140589000Y-94615000D02*
X139319000Y-95885000D01*
X139319000Y-99187000D02*
X141097000Y-100965000D01*
X140563600Y-87172800D02*
X140766800Y-87376000D01*
X140766800Y-87376000D02*
X140766800Y-90932000D01*
X140766800Y-94437200D02*
X140589000Y-94615000D01*
X138684000Y-85852000D02*
X138938000Y-86106000D01*
X138938000Y-86106000D02*
X138938000Y-88011000D01*
X138938000Y-94615000D02*
X138303000Y-95250000D01*
X138303000Y-95250000D02*
X138303000Y-103124000D01*
X138938000Y-88011000D02*
X138938000Y-94615000D01*
X139763500Y-103124000D02*
X138303000Y-103124000D01*
X140716000Y-104076500D02*
X139763500Y-103124000D01*
X138734800Y-79451200D02*
X138125200Y-78841600D01*
X139392002Y-80108402D02*
X138734800Y-79451200D01*
X139392002Y-80108402D02*
X139392002Y-87782400D01*
X142240000Y-103378000D02*
X141605000Y-102743000D01*
X141605000Y-102743000D02*
X141605000Y-102235000D01*
X141605000Y-102235000D02*
X138864998Y-99494998D01*
X139392002Y-94922998D02*
X138864998Y-95450002D01*
X138864998Y-95450002D02*
X138864998Y-99314000D01*
X138864998Y-99314000D02*
X138864998Y-99367998D01*
X139392002Y-87782400D02*
X139392002Y-94922998D01*
X138864998Y-99494998D02*
X138864998Y-99367998D01*
X139392002Y-87757000D02*
X139392002Y-87782400D01*
X134670800Y-80416400D02*
X134620000Y-80365600D01*
X134620000Y-80365600D02*
X134620000Y-78892400D01*
X138811000Y-84836000D02*
X138811000Y-80695800D01*
X140525500Y-104775000D02*
X141287500Y-105537000D01*
X137795000Y-104521000D02*
X138049000Y-104775000D01*
X137795000Y-94996000D02*
X137795000Y-104521000D01*
X138049000Y-94742000D02*
X137795000Y-94996000D01*
X140081000Y-104775000D02*
X139827000Y-104775000D01*
X139827000Y-104775000D02*
X138049000Y-104775000D01*
X140081000Y-104775000D02*
X140525500Y-104775000D01*
X138483998Y-94307002D02*
X138049000Y-94742000D01*
X138049000Y-85598000D02*
X138049000Y-86233000D01*
X138811000Y-84836000D02*
X138049000Y-85598000D01*
X138483998Y-86667998D02*
X138483998Y-87757000D01*
X138049000Y-86233000D02*
X138483998Y-86667998D01*
X138483998Y-87757000D02*
X138483998Y-94307002D01*
X138811000Y-80695800D02*
X138734800Y-80619600D01*
X116332000Y-73279000D02*
X116332000Y-75819000D01*
X140817600Y-78892400D02*
X140817600Y-80467200D01*
X141224000Y-80873600D02*
X140970000Y-80619600D01*
X141224000Y-81534000D02*
X141224000Y-86868000D01*
X139827000Y-96266000D02*
X139827000Y-98806000D01*
X141224000Y-88265000D02*
X141224000Y-94869000D01*
X141224000Y-86868000D02*
X141224000Y-88265000D01*
X141224000Y-94869000D02*
X139827000Y-96266000D01*
X139827000Y-98806000D02*
X141605000Y-100584000D01*
X141224000Y-81534000D02*
X141224000Y-80873600D01*
X140817600Y-80467200D02*
X140970000Y-80619600D01*
X116586000Y-104584500D02*
X116586000Y-95250000D01*
X116014500Y-108902500D02*
X116078000Y-108839000D01*
X116078000Y-108839000D02*
X116078000Y-107632500D01*
X116078000Y-107632500D02*
X116586000Y-107124500D01*
X116586000Y-107124500D02*
X116586000Y-104584500D01*
X125984000Y-124142500D02*
X125984000Y-110998000D01*
X118237000Y-110998000D02*
X118237000Y-108966000D01*
X116586000Y-95250000D02*
X116459000Y-95123000D01*
X134874000Y-126339600D02*
X134874000Y-124142500D01*
X125984000Y-124142500D02*
X125920500Y-124079000D01*
X160337500Y-124079000D02*
X160337500Y-123761500D01*
X159893000Y-126873000D02*
X160337500Y-126428500D01*
X160337500Y-126428500D02*
X160337500Y-124079000D01*
X136296400Y-127762000D02*
X134874000Y-126339600D01*
X139192000Y-127762000D02*
X136296400Y-127762000D01*
X139700000Y-127254000D02*
X139192000Y-127762000D01*
X160337500Y-123761500D02*
X160401000Y-123698000D01*
X116078000Y-105410000D02*
X116078000Y-95694500D01*
X115633500Y-107124500D02*
X116078000Y-106680000D01*
X116078000Y-106680000D02*
X116078000Y-105410000D01*
X116332000Y-94234000D02*
X116395500Y-94234000D01*
X115824000Y-94742000D02*
X116332000Y-94234000D01*
X115824000Y-95440500D02*
X115824000Y-94742000D01*
X116078000Y-95694500D02*
X115824000Y-95440500D01*
X124269500Y-111633000D02*
X124269500Y-111506000D01*
X123761500Y-114617500D02*
X124269500Y-114109500D01*
X124269500Y-114109500D02*
X124269500Y-111633000D01*
X123761500Y-123507500D02*
X123761500Y-114617500D01*
X121348500Y-111506000D02*
X121348500Y-107251500D01*
X123761500Y-123507500D02*
X123698000Y-123444000D01*
X137414000Y-126339600D02*
X137414000Y-123634500D01*
X138938000Y-126365000D02*
X138912600Y-126339600D01*
X137414000Y-126339600D02*
X138912600Y-126339600D01*
X159575500Y-126047500D02*
X159575500Y-123571000D01*
X159512000Y-126111000D02*
X159575500Y-126047500D01*
X135943998Y-85979000D02*
X135943998Y-94180002D01*
X135943998Y-79047998D02*
X134874000Y-77978000D01*
X135943998Y-79047998D02*
X135943998Y-85979000D01*
X135943998Y-94180002D02*
X135636000Y-94488000D01*
X134874000Y-77343000D02*
X134874000Y-77978000D01*
X131318000Y-89217500D02*
X131318000Y-89357200D01*
X131318000Y-89357200D02*
X131343400Y-89382600D01*
X131508500Y-83502500D02*
X131508500Y-89027000D01*
X132334000Y-78486000D02*
X131508500Y-79311500D01*
X131508500Y-79311500D02*
X131508500Y-83502500D01*
X132334000Y-77343000D02*
X132334000Y-78486000D01*
X131508500Y-89027000D02*
X131318000Y-89217500D01*
X118046500Y-105029000D02*
X118046500Y-107950000D01*
X118046500Y-107950000D02*
X118173500Y-108077000D01*
X118046500Y-89535000D02*
X118046500Y-105029000D01*
X118173500Y-89408000D02*
X118046500Y-89535000D01*
X132334000Y-77343000D02*
X132334000Y-78232000D01*
X132981000Y-53467000D02*
X134432000Y-53467000D01*
X134432000Y-53467000D02*
X135001000Y-52898000D01*
X145669000Y-52898000D02*
X144218000Y-52898000D01*
X144218000Y-52898000D02*
X143649000Y-53467000D01*
X123190000Y-98552000D02*
X123190000Y-99123500D01*
X123190000Y-81026000D02*
X122809000Y-80645000D01*
X117221000Y-80645000D02*
X117094000Y-80518000D01*
X117094000Y-77343000D02*
X117094000Y-80518000D01*
X123190000Y-97853500D02*
X123190000Y-98552000D01*
X123190000Y-81216500D02*
X123190000Y-81280000D01*
X123190000Y-81280000D02*
X123190000Y-97853500D01*
X123190000Y-81216500D02*
X123190000Y-81026000D01*
X123190000Y-99123500D02*
X123634500Y-99568000D01*
X126238000Y-99441000D02*
X126238000Y-99466400D01*
X126238000Y-78994000D02*
X127254000Y-77978000D01*
X126238000Y-85217000D02*
X126238000Y-78994000D01*
X126238000Y-85217000D02*
X126238000Y-99441000D01*
X126238000Y-99466400D02*
X125679200Y-100025200D01*
X127254000Y-77978000D02*
X127254000Y-77343000D01*
X128473200Y-98145600D02*
X128473200Y-98196400D01*
X126847600Y-99822000D02*
X128219200Y-98450400D01*
X125780800Y-100888800D02*
X126847600Y-99822000D01*
X128473200Y-98145600D02*
X128473200Y-78663800D01*
X128473200Y-78663800D02*
X129794000Y-77343000D01*
X128473200Y-98196400D02*
X128219200Y-98450400D01*
X131064000Y-125069600D02*
X131064000Y-117906800D01*
X131064000Y-117906800D02*
X130657600Y-117500400D01*
X126542800Y-101193600D02*
X127304800Y-101193600D01*
X130657600Y-113131600D02*
X130657600Y-117500400D01*
X130657600Y-107543600D02*
X130657600Y-113131600D01*
X130657600Y-104546400D02*
X130657600Y-107543600D01*
X127304800Y-101193600D02*
X130657600Y-104546400D01*
X129794000Y-126339600D02*
X131064000Y-125069600D01*
X114554000Y-83159600D02*
X114554000Y-85217000D01*
X126288800Y-105054400D02*
X126085600Y-105054400D01*
X126339600Y-105003600D02*
X126288800Y-105054400D01*
X125730000Y-104698800D02*
X124460000Y-103428800D01*
X120650000Y-99618800D02*
X124460000Y-103428800D01*
X126085600Y-105054400D02*
X125730000Y-104698800D01*
X120650000Y-85915500D02*
X120650000Y-99618800D01*
X120396000Y-85661500D02*
X120650000Y-85915500D01*
X114554000Y-85217000D02*
X114808000Y-85471000D01*
X114554000Y-83159600D02*
X114554000Y-83312000D01*
X117094000Y-83159600D02*
X117094000Y-84836000D01*
X117094000Y-84836000D02*
X117030500Y-84899500D01*
X121104002Y-87223600D02*
X121158000Y-87223600D01*
X121104002Y-85480502D02*
X121104002Y-87223600D01*
X120523000Y-84899500D02*
X121104002Y-85480502D01*
X120332500Y-84899500D02*
X120523000Y-84899500D01*
X120269000Y-84836000D02*
X120332500Y-84899500D01*
X126314200Y-104089200D02*
X126974600Y-104749600D01*
X121158000Y-87223600D02*
X121158000Y-87223600D01*
X121158000Y-87223600D02*
X121158000Y-99364800D01*
X124866400Y-103073200D02*
X121158000Y-99364800D01*
X124866400Y-103073200D02*
X125882400Y-104089200D01*
X125882400Y-104089200D02*
X126314200Y-104089200D01*
X126974600Y-105486200D02*
X126974600Y-104749600D01*
X126746000Y-105714800D02*
X126974600Y-105486200D01*
X117094000Y-83159600D02*
X117094000Y-83210400D01*
X127546100Y-105981500D02*
X127546100Y-104609900D01*
X127736600Y-106172000D02*
X127546100Y-105981500D01*
X126517400Y-103581200D02*
X126542800Y-103606600D01*
X121615200Y-99110800D02*
X121615200Y-99085400D01*
X121615200Y-99110800D02*
X126085600Y-103581200D01*
X127558800Y-104622600D02*
X127546100Y-104609900D01*
X127546100Y-104609900D02*
X126542800Y-103606600D01*
X126085600Y-103581200D02*
X126517400Y-103581200D01*
X121615200Y-84886800D02*
X121615200Y-99085400D01*
X121615200Y-99085400D02*
X121615200Y-99092456D01*
X121615200Y-84886800D02*
X119888000Y-83159600D01*
X119634000Y-83159600D02*
X119888000Y-83159600D01*
X128727200Y-104140000D02*
X127101600Y-102514400D01*
X127101600Y-102514400D02*
X125679200Y-102514400D01*
X122174000Y-83159600D02*
X122174000Y-99009200D01*
X122174000Y-99009200D02*
X125679200Y-102514400D01*
X128727200Y-106095800D02*
X128727200Y-104140000D01*
X128600200Y-106222800D02*
X128727200Y-106095800D01*
X124396500Y-99949000D02*
X124396500Y-100469700D01*
X124396500Y-99314000D02*
X124396500Y-99949000D01*
X129286000Y-105892600D02*
X129286000Y-104597200D01*
X129286000Y-104038400D02*
X129286000Y-104597200D01*
X127254000Y-102006400D02*
X129286000Y-104038400D01*
X125933200Y-102006400D02*
X127254000Y-102006400D01*
X124917200Y-100990400D02*
X125933200Y-102006400D01*
X129616200Y-105892600D02*
X129286000Y-105892600D01*
X129768600Y-106045000D02*
X129616200Y-105892600D01*
X124396500Y-99314000D02*
X124714000Y-98996500D01*
X124396500Y-100469700D02*
X124917200Y-100990400D01*
X124714000Y-99009200D02*
X124714000Y-98996500D01*
X124714000Y-98996500D02*
X124714000Y-83159600D01*
X136207500Y-110477300D02*
X136194800Y-110464600D01*
X136207500Y-114617500D02*
X135763000Y-115062000D01*
X135763000Y-115062000D02*
X135255000Y-115062000D01*
X136207500Y-114617500D02*
X136207500Y-110477300D01*
X163703000Y-114198400D02*
X163703000Y-114998500D01*
X164719000Y-98856800D02*
X163703000Y-99872800D01*
X163703000Y-99872800D02*
X163703000Y-114198400D01*
X164719000Y-98856800D02*
X164719000Y-39751000D01*
X163703000Y-114998500D02*
X161607500Y-117094000D01*
X150812500Y-86487000D02*
X151193500Y-86868000D01*
X147116800Y-87833200D02*
X147193000Y-87757000D01*
X147116800Y-88011000D02*
X147116800Y-87833200D01*
X150812500Y-86487000D02*
X150812500Y-81534000D01*
X150812500Y-81534000D02*
X151447500Y-80899000D01*
X151193500Y-86868000D02*
X151193500Y-87630000D01*
X151447500Y-80899000D02*
X152052000Y-80899000D01*
X151925000Y-81026000D02*
X152052000Y-80899000D01*
X147116800Y-87960200D02*
X147116800Y-88011000D01*
X147116800Y-88011000D02*
X147116800Y-96774000D01*
X119634000Y-126339600D02*
X119608600Y-129489200D01*
X147116800Y-116230400D02*
X147116800Y-101752400D01*
X147116800Y-101752400D02*
X147116800Y-96774000D01*
X147116800Y-116230400D02*
X147116800Y-129438400D01*
X150876000Y-79883000D02*
X151130000Y-79629000D01*
X152052000Y-79629000D02*
X151130000Y-79629000D01*
X150304500Y-86868000D02*
X150304500Y-81089500D01*
X150304500Y-81089500D02*
X150812500Y-80581500D01*
X150812500Y-80581500D02*
X150812500Y-79946500D01*
X150812500Y-79946500D02*
X150876000Y-79883000D01*
X146431000Y-87934800D02*
X146431000Y-87503000D01*
X146431000Y-128727200D02*
X146405600Y-128752600D01*
X122174000Y-128752600D02*
X122174000Y-126339600D01*
X146431000Y-115976400D02*
X146431000Y-101803200D01*
X146431000Y-87934800D02*
X146431000Y-96748600D01*
X146431000Y-101777800D02*
X146431000Y-96748600D01*
X146431000Y-101803200D02*
X146431000Y-101777800D01*
X146431000Y-115976400D02*
X146431000Y-128727200D01*
X146431000Y-87503000D02*
X146939000Y-86995000D01*
X150304500Y-86931500D02*
X150304500Y-86868000D01*
X150241000Y-86995000D02*
X150304500Y-86931500D01*
X152052000Y-83439000D02*
X153606500Y-83439000D01*
X154305000Y-82740500D02*
X154305000Y-77978000D01*
X153606500Y-83439000D02*
X154305000Y-82740500D01*
X152052000Y-83439000D02*
X152323800Y-83439000D01*
X152052000Y-82169000D02*
X153416000Y-82169000D01*
X153670000Y-81915000D02*
X153670000Y-80073500D01*
X153416000Y-82169000D02*
X153670000Y-81915000D01*
X132740400Y-90779600D02*
X134112000Y-89408000D01*
X134112000Y-89408000D02*
X134112000Y-86550500D01*
X134112000Y-112141000D02*
X134112000Y-109677200D01*
X134112000Y-112141000D02*
X133477000Y-112776000D01*
X132740400Y-108305600D02*
X132740400Y-103682800D01*
X134112000Y-109677200D02*
X132740400Y-108305600D01*
X132740400Y-103682800D02*
X132740400Y-90779600D01*
X134112000Y-86614000D02*
X134112000Y-86550500D01*
X134112000Y-85979000D02*
X134112000Y-86614000D01*
X125539500Y-81661000D02*
X125539500Y-81670502D01*
X119634000Y-81216500D02*
X119824500Y-81407000D01*
X119634000Y-77343000D02*
X119634000Y-81216500D01*
X125783998Y-84718502D02*
X125412500Y-85090000D01*
X125783998Y-81915000D02*
X125783998Y-84718502D01*
X125539500Y-81670502D02*
X125783998Y-81915000D01*
X125539500Y-84963000D02*
X125412500Y-85090000D01*
X133731000Y-117602000D02*
X135255000Y-117602000D01*
X133413500Y-117284500D02*
X133731000Y-117602000D01*
X133413500Y-112839500D02*
X133413500Y-117284500D01*
X133477000Y-112776000D02*
X133413500Y-112839500D01*
X119634000Y-77343000D02*
X119634000Y-76555600D01*
X131470400Y-91795600D02*
X131470400Y-108800900D01*
X132334000Y-89331800D02*
X131470400Y-90195400D01*
X131470400Y-90195400D02*
X131470400Y-91795600D01*
X127317500Y-86804500D02*
X127254000Y-86741000D01*
X127254000Y-86741000D02*
X127254000Y-83159600D01*
X132334000Y-86804500D02*
X132334000Y-89331800D01*
X131470400Y-108800900D02*
X132969000Y-110299500D01*
X127635000Y-117602000D02*
X127444500Y-117602000D01*
X128587500Y-117602000D02*
X127635000Y-117602000D01*
X128968500Y-117221000D02*
X128587500Y-117602000D01*
X128968500Y-112014000D02*
X128968500Y-117221000D01*
X129095500Y-111887000D02*
X128968500Y-112014000D01*
X135191500Y-112522000D02*
X135255000Y-112522000D01*
D25*
X150314010Y-62029990D02*
X150314010Y-66392410D01*
X150314010Y-66392410D02*
X154000200Y-70078600D01*
X151447500Y-60896500D02*
X150314010Y-62029990D01*
X151447500Y-58007100D02*
X151447500Y-60896500D01*
X151434800Y-54254400D02*
X151434800Y-57994400D01*
X151434800Y-57994400D02*
X151447500Y-58007100D01*
D23*
X119634000Y-123571000D02*
X119634000Y-124650500D01*
X119634000Y-120523000D02*
X119634000Y-123571000D01*
X169799000Y-99123500D02*
X168211500Y-100711000D01*
X168211500Y-100711000D02*
X168211500Y-124269500D01*
X168211500Y-124269500D02*
X167767000Y-124714000D01*
X118681500Y-120523000D02*
X119634000Y-120523000D01*
X118618000Y-120459500D02*
X118681500Y-120523000D01*
G36*
X129413000Y-63119000D02*
X126873000Y-63119000D01*
X126873000Y-54399281D01*
X127096000Y-54444440D01*
X129166000Y-54444440D01*
X129401317Y-54400162D01*
X129413000Y-54392644D01*
X129413000Y-63119000D01*
X129413000Y-63119000D01*
G37*
X129413000Y-63119000D02*
X126873000Y-63119000D01*
X126873000Y-54399281D01*
X127096000Y-54444440D01*
X129166000Y-54444440D01*
X129401317Y-54400162D01*
X129413000Y-54392644D01*
X129413000Y-63119000D01*
G36*
X139954000Y-55040636D02*
X139885004Y-55143895D01*
X139827000Y-55435500D01*
X139827000Y-62992000D01*
X137617200Y-62992000D01*
X137617200Y-60250466D01*
X137647392Y-60220327D01*
X137790038Y-59876799D01*
X137790362Y-59504833D01*
X137648317Y-59161057D01*
X137541000Y-59053553D01*
X137541000Y-58227630D01*
X137762315Y-58006315D01*
X137825334Y-57912000D01*
X137927496Y-57759105D01*
X137985500Y-57467500D01*
X137985500Y-54444440D01*
X139834000Y-54444440D01*
X139954000Y-54421860D01*
X139954000Y-55040636D01*
X139954000Y-55040636D01*
G37*
X139954000Y-55040636D02*
X139885004Y-55143895D01*
X139827000Y-55435500D01*
X139827000Y-62992000D01*
X137617200Y-62992000D01*
X137617200Y-60250466D01*
X137647392Y-60220327D01*
X137790038Y-59876799D01*
X137790362Y-59504833D01*
X137648317Y-59161057D01*
X137541000Y-59053553D01*
X137541000Y-58227630D01*
X137762315Y-58006315D01*
X137825334Y-57912000D01*
X137927496Y-57759105D01*
X137985500Y-57467500D01*
X137985500Y-54444440D01*
X139834000Y-54444440D01*
X139954000Y-54421860D01*
X139954000Y-55040636D01*
G36*
X139954000Y-53783861D02*
X139834000Y-53759560D01*
X137764000Y-53759560D01*
X137541000Y-53801520D01*
X137541000Y-46355000D01*
X139954000Y-46355000D01*
X139954000Y-53783861D01*
X139954000Y-53783861D01*
G37*
X139954000Y-53783861D02*
X139834000Y-53759560D01*
X137764000Y-53759560D01*
X137541000Y-53801520D01*
X137541000Y-46355000D01*
X139954000Y-46355000D01*
X139954000Y-53783861D01*
G36*
X129413000Y-53809579D02*
X129166000Y-53759560D01*
X127096000Y-53759560D01*
X126873000Y-53801520D01*
X126873000Y-46736000D01*
X129413000Y-46736000D01*
X129413000Y-53809579D01*
X129413000Y-53809579D01*
G37*
X129413000Y-53809579D02*
X129166000Y-53759560D01*
X127096000Y-53759560D01*
X126873000Y-53801520D01*
X126873000Y-46736000D01*
X129413000Y-46736000D01*
X129413000Y-53809579D01*
G36*
X171128989Y-27341652D02*
X171718170Y-27735330D01*
X172111848Y-28324511D01*
X172256716Y-29052813D01*
X171540492Y-28755411D01*
X170601627Y-28754591D01*
X169733914Y-29113123D01*
X169069456Y-29776422D01*
X168709411Y-30643508D01*
X168708591Y-31582373D01*
X169067123Y-32450086D01*
X169730422Y-33114544D01*
X170597508Y-33474589D01*
X171536373Y-33475409D01*
X172264000Y-33174759D01*
X172264000Y-136069318D01*
X172057873Y-136110319D01*
X171929902Y-136163327D01*
X171801932Y-136216333D01*
X171142704Y-136656816D01*
X170946816Y-136852704D01*
X170506334Y-137511932D01*
X170506334Y-137511933D01*
X170400319Y-137767873D01*
X170245642Y-138545486D01*
X170245643Y-138684000D01*
X170245642Y-138822514D01*
X170400319Y-139600127D01*
X170452618Y-139726386D01*
X170506334Y-139856068D01*
X170946816Y-140515296D01*
X171142704Y-140711184D01*
X171801932Y-141151667D01*
X171929902Y-141204673D01*
X172057873Y-141257681D01*
X172264000Y-141298682D01*
X172264000Y-148774069D01*
X172111848Y-149538989D01*
X171718170Y-150128170D01*
X171128989Y-150521848D01*
X170364069Y-150674000D01*
X115893931Y-150674000D01*
X115129011Y-150521848D01*
X114539830Y-150128170D01*
X114146152Y-149538989D01*
X113994000Y-148774069D01*
X113994000Y-141298682D01*
X114200127Y-141257681D01*
X114381104Y-141182717D01*
X114456068Y-141151666D01*
X115115296Y-140711184D01*
X115311184Y-140515296D01*
X115751667Y-139856068D01*
X115805382Y-139726386D01*
X115857681Y-139600127D01*
X116012357Y-138822515D01*
X116012357Y-138545485D01*
X115857681Y-137767873D01*
X115804674Y-137639903D01*
X115751667Y-137511932D01*
X115311184Y-136852704D01*
X115115296Y-136656816D01*
X114456068Y-136216334D01*
X114381104Y-136185283D01*
X114200127Y-136110319D01*
X113994000Y-136069318D01*
X113994000Y-127862938D01*
X114058700Y-127876040D01*
X115049300Y-127876040D01*
X115284617Y-127831762D01*
X115500741Y-127692690D01*
X115645731Y-127480490D01*
X115696740Y-127228600D01*
X115696740Y-126045890D01*
X115951260Y-125791371D01*
X115951260Y-127228600D01*
X115995538Y-127463917D01*
X116134610Y-127680041D01*
X116346810Y-127825031D01*
X116598700Y-127876040D01*
X117589300Y-127876040D01*
X117824617Y-127831762D01*
X118040741Y-127692690D01*
X118185731Y-127480490D01*
X118236740Y-127228600D01*
X118236740Y-125450600D01*
X118192462Y-125215283D01*
X118053390Y-124999159D01*
X117841190Y-124854169D01*
X117589300Y-124803160D01*
X116598700Y-124803160D01*
X116586000Y-124805550D01*
X116586000Y-119091246D01*
X116733943Y-119030117D01*
X116917040Y-118847339D01*
X116935883Y-118892943D01*
X116967000Y-118924114D01*
X116967000Y-119126000D01*
X117025004Y-119417605D01*
X117190185Y-119664815D01*
X117221000Y-119685405D01*
X117221000Y-122511811D01*
X117175162Y-122622201D01*
X117174838Y-122994167D01*
X117316883Y-123337943D01*
X117579673Y-123601192D01*
X117923201Y-123743838D01*
X118295167Y-123744162D01*
X118638943Y-123602117D01*
X118872000Y-123369466D01*
X118872000Y-124090034D01*
X118841808Y-124120173D01*
X118699162Y-124463701D01*
X118698838Y-124835667D01*
X118745642Y-124948942D01*
X118687259Y-124986510D01*
X118542269Y-125198710D01*
X118491260Y-125450600D01*
X118491260Y-127228600D01*
X118535538Y-127463917D01*
X118674610Y-127680041D01*
X118860143Y-127806810D01*
X118851132Y-128924210D01*
X118816408Y-128958873D01*
X118673762Y-129302401D01*
X118673438Y-129674367D01*
X118815483Y-130018143D01*
X119078273Y-130281392D01*
X119421801Y-130424038D01*
X119793767Y-130424362D01*
X120137543Y-130282317D01*
X120400792Y-130019527D01*
X120543438Y-129675999D01*
X120543762Y-129304033D01*
X120401717Y-128960257D01*
X120375105Y-128933599D01*
X120384092Y-127819230D01*
X120580741Y-127692690D01*
X120725731Y-127480490D01*
X120776740Y-127228600D01*
X120776740Y-125450600D01*
X121031260Y-125450600D01*
X121031260Y-127228600D01*
X121075538Y-127463917D01*
X121214610Y-127680041D01*
X121412000Y-127814912D01*
X121412000Y-128192134D01*
X121381808Y-128222273D01*
X121239162Y-128565801D01*
X121238838Y-128937767D01*
X121380883Y-129281543D01*
X121643673Y-129544792D01*
X121987201Y-129687438D01*
X122359167Y-129687762D01*
X122702943Y-129545717D01*
X122966192Y-129282927D01*
X123108838Y-128939399D01*
X123109162Y-128567433D01*
X122967117Y-128223657D01*
X122936000Y-128192486D01*
X122936000Y-127811568D01*
X123120741Y-127692690D01*
X123265731Y-127480490D01*
X123316740Y-127228600D01*
X123316740Y-125450600D01*
X123272462Y-125215283D01*
X123133390Y-124999159D01*
X122921190Y-124854169D01*
X122669300Y-124803160D01*
X121678700Y-124803160D01*
X121443383Y-124847438D01*
X121227259Y-124986510D01*
X121082269Y-125198710D01*
X121031260Y-125450600D01*
X120776740Y-125450600D01*
X120732462Y-125215283D01*
X120593390Y-124999159D01*
X120521908Y-124950318D01*
X120568838Y-124837299D01*
X120569162Y-124465333D01*
X120427117Y-124121557D01*
X120396000Y-124090386D01*
X120396000Y-121994968D01*
X120580741Y-121876090D01*
X120725731Y-121663890D01*
X120776740Y-121412000D01*
X120776740Y-119888000D01*
X120777000Y-119888000D01*
X121031260Y-119837424D01*
X121031260Y-121412000D01*
X121075538Y-121647317D01*
X121214610Y-121863441D01*
X121239034Y-121880129D01*
X121238838Y-122105167D01*
X121380883Y-122448943D01*
X121643673Y-122712192D01*
X121987201Y-122854838D01*
X122359167Y-122855162D01*
X122702943Y-122713117D01*
X122966192Y-122450327D01*
X122999500Y-122370113D01*
X122999500Y-122947034D01*
X122969308Y-122977173D01*
X122826662Y-123320701D01*
X122826338Y-123692667D01*
X122968383Y-124036443D01*
X123231173Y-124299692D01*
X123574701Y-124442338D01*
X123946667Y-124442662D01*
X124290443Y-124300617D01*
X124553692Y-124037827D01*
X124696338Y-123694299D01*
X124696662Y-123322333D01*
X124554617Y-122978557D01*
X124523500Y-122947386D01*
X124523500Y-122059440D01*
X125209300Y-122059440D01*
X125222000Y-122057050D01*
X125222000Y-123582034D01*
X125191808Y-123612173D01*
X125049162Y-123955701D01*
X125048838Y-124327667D01*
X125190883Y-124671443D01*
X125351019Y-124831859D01*
X125209300Y-124803160D01*
X124218700Y-124803160D01*
X123983383Y-124847438D01*
X123767259Y-124986510D01*
X123622269Y-125198710D01*
X123571260Y-125450600D01*
X123571260Y-127228600D01*
X123615538Y-127463917D01*
X123754610Y-127680041D01*
X123966810Y-127825031D01*
X124218700Y-127876040D01*
X125209300Y-127876040D01*
X125444617Y-127831762D01*
X125660741Y-127692690D01*
X125805731Y-127480490D01*
X125856740Y-127228600D01*
X125856740Y-125450600D01*
X125812462Y-125215283D01*
X125696895Y-125035687D01*
X125797201Y-125077338D01*
X126169167Y-125077662D01*
X126274800Y-125034015D01*
X126162269Y-125198710D01*
X126111260Y-125450600D01*
X126111260Y-127228600D01*
X126155538Y-127463917D01*
X126294610Y-127680041D01*
X126506810Y-127825031D01*
X126758700Y-127876040D01*
X127749300Y-127876040D01*
X127984617Y-127831762D01*
X128200741Y-127692690D01*
X128345731Y-127480490D01*
X128396740Y-127228600D01*
X128396740Y-125450600D01*
X128352462Y-125215283D01*
X128213390Y-124999159D01*
X128001190Y-124854169D01*
X127749300Y-124803160D01*
X126758700Y-124803160D01*
X126619369Y-124829377D01*
X126776192Y-124672827D01*
X126918838Y-124329299D01*
X126919162Y-123957333D01*
X126813690Y-123702070D01*
X127067201Y-123807338D01*
X127439167Y-123807662D01*
X127782943Y-123665617D01*
X128046192Y-123402827D01*
X128188838Y-123059299D01*
X128189162Y-122687333D01*
X128047117Y-122343557D01*
X128016000Y-122312386D01*
X128016000Y-121994968D01*
X128200741Y-121876090D01*
X128345731Y-121663890D01*
X128396740Y-121412000D01*
X128396740Y-119634000D01*
X128352462Y-119398683D01*
X128213390Y-119182559D01*
X128001190Y-119037569D01*
X127749300Y-118986560D01*
X126758700Y-118986560D01*
X126746000Y-118988950D01*
X126746000Y-118110997D01*
X126773175Y-118176766D01*
X127058731Y-118462821D01*
X127432018Y-118617824D01*
X127836208Y-118618176D01*
X128209766Y-118463825D01*
X128309765Y-118364000D01*
X128506066Y-118364000D01*
X128478162Y-118431201D01*
X128477838Y-118803167D01*
X128619883Y-119146943D01*
X128764183Y-119291495D01*
X128702269Y-119382110D01*
X128651260Y-119634000D01*
X128651260Y-121412000D01*
X128695538Y-121647317D01*
X128834610Y-121863441D01*
X129046810Y-122008431D01*
X129298700Y-122059440D01*
X130289300Y-122059440D01*
X130302000Y-122057050D01*
X130302000Y-124753969D01*
X130252809Y-124803160D01*
X129298700Y-124803160D01*
X129063383Y-124847438D01*
X128847259Y-124986510D01*
X128702269Y-125198710D01*
X128651260Y-125450600D01*
X128651260Y-127228600D01*
X128695538Y-127463917D01*
X128834610Y-127680041D01*
X129046810Y-127825031D01*
X129298700Y-127876040D01*
X130289300Y-127876040D01*
X130524617Y-127831762D01*
X130740741Y-127692690D01*
X130885731Y-127480490D01*
X130936740Y-127228600D01*
X130936740Y-126274490D01*
X131191260Y-126019971D01*
X131191260Y-127228600D01*
X131235538Y-127463917D01*
X131374610Y-127680041D01*
X131586810Y-127825031D01*
X131838700Y-127876040D01*
X132829300Y-127876040D01*
X133064617Y-127831762D01*
X133280741Y-127692690D01*
X133425731Y-127480490D01*
X133476740Y-127228600D01*
X133476740Y-125450600D01*
X133731260Y-125450600D01*
X133731260Y-127228600D01*
X133775538Y-127463917D01*
X133914610Y-127680041D01*
X134126810Y-127825031D01*
X134378700Y-127876040D01*
X135332809Y-127876040D01*
X135757584Y-128300815D01*
X135959298Y-128435596D01*
X136004795Y-128465996D01*
X136296400Y-128524000D01*
X139192000Y-128524000D01*
X139483605Y-128465996D01*
X139730815Y-128300815D01*
X139842505Y-128189125D01*
X139885167Y-128189162D01*
X140228943Y-128047117D01*
X140492192Y-127784327D01*
X140634838Y-127440799D01*
X140635162Y-127068833D01*
X140493117Y-126725057D01*
X140230327Y-126461808D01*
X139886799Y-126319162D01*
X139873041Y-126319150D01*
X139873162Y-126179833D01*
X139731117Y-125836057D01*
X139468327Y-125572808D01*
X139124799Y-125430162D01*
X138752833Y-125429838D01*
X138556740Y-125510862D01*
X138556740Y-125450600D01*
X138512462Y-125215283D01*
X138373390Y-124999159D01*
X138176000Y-124864288D01*
X138176000Y-124194966D01*
X138206192Y-124164827D01*
X138348838Y-123821299D01*
X138349162Y-123449333D01*
X138207117Y-123105557D01*
X137944327Y-122842308D01*
X137600799Y-122699662D01*
X137228833Y-122699338D01*
X136885057Y-122841383D01*
X136621808Y-123104173D01*
X136479162Y-123447701D01*
X136478838Y-123819667D01*
X136620883Y-124163443D01*
X136652000Y-124194614D01*
X136652000Y-124867632D01*
X136467259Y-124986510D01*
X136322269Y-125198710D01*
X136271260Y-125450600D01*
X136271260Y-126659229D01*
X136016740Y-126404710D01*
X136016740Y-125450600D01*
X135972462Y-125215283D01*
X135833390Y-124999159D01*
X135636000Y-124864288D01*
X135636000Y-124702966D01*
X135666192Y-124672827D01*
X135808838Y-124329299D01*
X135809162Y-123957333D01*
X135667117Y-123613557D01*
X135404327Y-123350308D01*
X135060799Y-123207662D01*
X134688833Y-123207338D01*
X134345057Y-123349383D01*
X134081808Y-123612173D01*
X133939162Y-123955701D01*
X133938838Y-124327667D01*
X134080883Y-124671443D01*
X134112000Y-124702614D01*
X134112000Y-124867632D01*
X133927259Y-124986510D01*
X133782269Y-125198710D01*
X133731260Y-125450600D01*
X133476740Y-125450600D01*
X133432462Y-125215283D01*
X133293390Y-124999159D01*
X133081190Y-124854169D01*
X132829300Y-124803160D01*
X131838700Y-124803160D01*
X131826000Y-124805550D01*
X131826000Y-122056868D01*
X131838700Y-122059440D01*
X132829300Y-122059440D01*
X133064617Y-122015162D01*
X133280741Y-121876090D01*
X133425731Y-121663890D01*
X133476740Y-121412000D01*
X133476740Y-120143307D01*
X133477000Y-120142000D01*
X133477000Y-119634000D01*
X133731260Y-119634000D01*
X133731260Y-121412000D01*
X133775538Y-121647317D01*
X133914610Y-121863441D01*
X134126810Y-122008431D01*
X134378700Y-122059440D01*
X135369300Y-122059440D01*
X135604617Y-122015162D01*
X135820741Y-121876090D01*
X135965731Y-121663890D01*
X136016740Y-121412000D01*
X136016740Y-119634000D01*
X136271260Y-119634000D01*
X136271260Y-121412000D01*
X136315538Y-121647317D01*
X136454610Y-121863441D01*
X136666810Y-122008431D01*
X136918700Y-122059440D01*
X137909300Y-122059440D01*
X138144617Y-122015162D01*
X138360741Y-121876090D01*
X138505731Y-121663890D01*
X138556740Y-121412000D01*
X138556740Y-119634000D01*
X138512462Y-119398683D01*
X138373390Y-119182559D01*
X138161190Y-119037569D01*
X137909300Y-118986560D01*
X136918700Y-118986560D01*
X136683383Y-119030838D01*
X136467259Y-119169910D01*
X136322269Y-119382110D01*
X136271260Y-119634000D01*
X136016740Y-119634000D01*
X135972462Y-119398683D01*
X135833390Y-119182559D01*
X135621190Y-119037569D01*
X135369300Y-118986560D01*
X134378700Y-118986560D01*
X134143383Y-119030838D01*
X133927259Y-119169910D01*
X133782269Y-119382110D01*
X133731260Y-119634000D01*
X133477000Y-119634000D01*
X133477000Y-118313476D01*
X133731000Y-118364000D01*
X134580082Y-118364000D01*
X134678731Y-118462821D01*
X135052018Y-118617824D01*
X135456208Y-118618176D01*
X135829766Y-118463825D01*
X136115821Y-118178269D01*
X136270824Y-117804982D01*
X136271176Y-117400792D01*
X136116825Y-117027234D01*
X135831269Y-116741179D01*
X135457982Y-116586176D01*
X135053792Y-116585824D01*
X134680234Y-116740175D01*
X134580235Y-116840000D01*
X134175500Y-116840000D01*
X134175500Y-113399856D01*
X134269192Y-113306327D01*
X134374738Y-113052145D01*
X134393175Y-113096766D01*
X134678731Y-113382821D01*
X135052018Y-113537824D01*
X135445500Y-113538167D01*
X135445500Y-114046165D01*
X135053792Y-114045824D01*
X134680234Y-114200175D01*
X134394179Y-114485731D01*
X134239176Y-114859018D01*
X134238824Y-115263208D01*
X134393175Y-115636766D01*
X134678731Y-115922821D01*
X135052018Y-116077824D01*
X135456208Y-116078176D01*
X135829766Y-115923825D01*
X135971264Y-115782574D01*
X136054605Y-115765996D01*
X136301815Y-115600815D01*
X136398000Y-115504630D01*
X136398000Y-115951000D01*
X136456004Y-116242605D01*
X136561838Y-116400996D01*
X136621185Y-116489815D01*
X136938685Y-116807316D01*
X137040578Y-116875398D01*
X137185895Y-116972496D01*
X137477500Y-117030500D01*
X141160500Y-117030500D01*
X141160500Y-118765597D01*
X140469759Y-118764994D01*
X139776809Y-119051314D01*
X139246178Y-119581021D01*
X138958648Y-120273469D01*
X138957994Y-121023241D01*
X139244314Y-121716191D01*
X139774021Y-122246822D01*
X140466469Y-122534352D01*
X141216241Y-122535006D01*
X141909191Y-122248686D01*
X142439822Y-121718979D01*
X142727352Y-121026531D01*
X142728006Y-120276759D01*
X142583354Y-119926672D01*
X142626497Y-119862104D01*
X142684500Y-119570500D01*
X142684500Y-109589966D01*
X142714692Y-109559827D01*
X142857338Y-109216299D01*
X142857662Y-108844333D01*
X142715617Y-108500557D01*
X142684500Y-108469386D01*
X142684500Y-107994301D01*
X142688201Y-107995838D01*
X143060167Y-107996162D01*
X143403943Y-107854117D01*
X143667192Y-107591327D01*
X143809838Y-107247799D01*
X143810162Y-106875833D01*
X143668117Y-106532057D01*
X143637000Y-106500886D01*
X143637000Y-105837056D01*
X143758667Y-105837162D01*
X144102443Y-105695117D01*
X144365692Y-105432327D01*
X144508338Y-105088799D01*
X144508662Y-104716833D01*
X144366617Y-104373057D01*
X144335500Y-104341886D01*
X144335500Y-100264631D01*
X145034000Y-100963131D01*
X145034000Y-101166534D01*
X145003808Y-101196673D01*
X144861162Y-101540201D01*
X144860838Y-101912167D01*
X145002883Y-102255943D01*
X145265673Y-102519192D01*
X145609201Y-102661838D01*
X145669000Y-102661890D01*
X145669000Y-104601889D01*
X145610833Y-104601838D01*
X145267057Y-104743883D01*
X145003808Y-105006673D01*
X144861162Y-105350201D01*
X144860838Y-105722167D01*
X145002883Y-106065943D01*
X145034000Y-106097114D01*
X145034000Y-107643534D01*
X145003808Y-107673673D01*
X144861162Y-108017201D01*
X144860838Y-108389167D01*
X145002883Y-108732943D01*
X145265673Y-108996192D01*
X145609201Y-109138838D01*
X145669000Y-109138890D01*
X145669000Y-128166778D01*
X145613408Y-128222273D01*
X145470762Y-128565801D01*
X145470438Y-128937767D01*
X145612483Y-129281543D01*
X145875273Y-129544792D01*
X146205798Y-129682039D01*
X146323683Y-129967343D01*
X146586473Y-130230592D01*
X146930001Y-130373238D01*
X147301967Y-130373562D01*
X147645743Y-130231517D01*
X147908992Y-129968727D01*
X148051638Y-129625199D01*
X148051962Y-129253233D01*
X147909917Y-128909457D01*
X147878800Y-128878286D01*
X147878800Y-126296167D01*
X158576838Y-126296167D01*
X158718883Y-126639943D01*
X158957994Y-126879471D01*
X158957838Y-127058167D01*
X159099883Y-127401943D01*
X159362673Y-127665192D01*
X159706201Y-127807838D01*
X160078167Y-127808162D01*
X160421943Y-127666117D01*
X160685192Y-127403327D01*
X160827838Y-127059799D01*
X160827876Y-127015754D01*
X160876315Y-126967315D01*
X160939335Y-126872999D01*
X161041496Y-126720105D01*
X161099500Y-126428500D01*
X161099500Y-124899167D01*
X166831838Y-124899167D01*
X166973883Y-125242943D01*
X167236673Y-125506192D01*
X167580201Y-125648838D01*
X167952167Y-125649162D01*
X168295943Y-125507117D01*
X168559192Y-125244327D01*
X168701838Y-124900799D01*
X168701876Y-124856754D01*
X168750315Y-124808315D01*
X168767233Y-124782996D01*
X168915496Y-124561105D01*
X168973500Y-124269500D01*
X168973500Y-101026630D01*
X169941505Y-100058625D01*
X169984167Y-100058662D01*
X170327943Y-99916617D01*
X170591192Y-99653827D01*
X170733838Y-99310299D01*
X170734162Y-98938333D01*
X170592117Y-98594557D01*
X170329327Y-98331308D01*
X169985799Y-98188662D01*
X169613833Y-98188338D01*
X169270057Y-98330383D01*
X169006808Y-98593173D01*
X168864162Y-98936701D01*
X168864124Y-98980746D01*
X167672685Y-100172185D01*
X167507504Y-100419395D01*
X167449500Y-100711000D01*
X167449500Y-123833517D01*
X167238057Y-123920883D01*
X166974808Y-124183673D01*
X166832162Y-124527201D01*
X166831838Y-124899167D01*
X161099500Y-124899167D01*
X161099500Y-124321856D01*
X161193192Y-124228327D01*
X161335838Y-123884799D01*
X161336162Y-123512833D01*
X161194117Y-123169057D01*
X160931327Y-122905808D01*
X160587799Y-122763162D01*
X160215833Y-122762838D01*
X160126664Y-122799682D01*
X160105827Y-122778808D01*
X159762299Y-122636162D01*
X159390333Y-122635838D01*
X159046557Y-122777883D01*
X158783308Y-123040673D01*
X158640662Y-123384201D01*
X158640338Y-123756167D01*
X158782383Y-124099943D01*
X158813500Y-124131114D01*
X158813500Y-125487144D01*
X158719808Y-125580673D01*
X158577162Y-125924201D01*
X158576838Y-126296167D01*
X147878800Y-126296167D01*
X147878800Y-117279167D01*
X160672338Y-117279167D01*
X160814383Y-117622943D01*
X161077173Y-117886192D01*
X161420701Y-118028838D01*
X161792667Y-118029162D01*
X162136443Y-117887117D01*
X162399692Y-117624327D01*
X162542338Y-117280799D01*
X162542376Y-117236754D01*
X164241816Y-115537315D01*
X164406997Y-115290104D01*
X164465000Y-114998500D01*
X164465000Y-101138001D01*
X164650167Y-101138162D01*
X164993943Y-100996117D01*
X165257192Y-100733327D01*
X165399838Y-100389799D01*
X165400162Y-100017833D01*
X165384559Y-99980071D01*
X165765816Y-99598815D01*
X165871264Y-99441000D01*
X165930996Y-99351605D01*
X165989000Y-99060000D01*
X165989000Y-89367373D01*
X166041591Y-89367373D01*
X166400123Y-90235086D01*
X167063422Y-90899544D01*
X167930508Y-91259589D01*
X168869373Y-91260409D01*
X169737086Y-90901877D01*
X170401544Y-90238578D01*
X170761589Y-89371492D01*
X170762409Y-88432627D01*
X170403877Y-87564914D01*
X169740578Y-86900456D01*
X168873492Y-86540411D01*
X167934627Y-86539591D01*
X167066914Y-86898123D01*
X166402456Y-87561422D01*
X166042411Y-88428508D01*
X166041591Y-89367373D01*
X165989000Y-89367373D01*
X165989000Y-76667373D01*
X166041591Y-76667373D01*
X166400123Y-77535086D01*
X167063422Y-78199544D01*
X167930508Y-78559589D01*
X168869373Y-78560409D01*
X169737086Y-78201877D01*
X170401544Y-77538578D01*
X170761589Y-76671492D01*
X170762409Y-75732627D01*
X170403877Y-74864914D01*
X169740578Y-74200456D01*
X168873492Y-73840411D01*
X167934627Y-73839591D01*
X167066914Y-74198123D01*
X166402456Y-74861422D01*
X166042411Y-75728508D01*
X166041591Y-76667373D01*
X165989000Y-76667373D01*
X165989000Y-42225630D01*
X167066797Y-41147833D01*
X167535661Y-41148242D01*
X168049303Y-40936010D01*
X168442629Y-40543370D01*
X168655757Y-40030100D01*
X168656242Y-39474339D01*
X168444010Y-38960697D01*
X168051370Y-38567371D01*
X167538100Y-38354243D01*
X166982339Y-38353758D01*
X166468697Y-38565990D01*
X166075371Y-38958630D01*
X165989051Y-39166512D01*
X165904010Y-38960697D01*
X165511370Y-38567371D01*
X164998100Y-38354243D01*
X164442339Y-38353758D01*
X163928697Y-38565990D01*
X163535371Y-38958630D01*
X163322243Y-39471900D01*
X163321758Y-40027661D01*
X163533990Y-40541303D01*
X163926630Y-40934629D01*
X163957000Y-40947240D01*
X163957000Y-96462312D01*
X163381031Y-96223148D01*
X162631259Y-96222494D01*
X161938309Y-96508814D01*
X161407678Y-97038521D01*
X161120148Y-97730969D01*
X161119494Y-98480741D01*
X161405814Y-99173691D01*
X161935521Y-99704322D01*
X162214555Y-99820187D01*
X162133162Y-100016201D01*
X162132838Y-100388167D01*
X162274883Y-100731943D01*
X162306000Y-100763114D01*
X162306000Y-109866144D01*
X162212308Y-109959673D01*
X162069662Y-110303201D01*
X162069338Y-110675167D01*
X162211383Y-111018943D01*
X162474173Y-111282192D01*
X162817701Y-111424838D01*
X162941000Y-111424945D01*
X162941000Y-114682869D01*
X161464995Y-116158875D01*
X161422333Y-116158838D01*
X161078557Y-116300883D01*
X160815308Y-116563673D01*
X160672662Y-116907201D01*
X160672338Y-117279167D01*
X147878800Y-117279167D01*
X147878800Y-105640003D01*
X148059673Y-105821192D01*
X148403201Y-105963838D01*
X148775167Y-105964162D01*
X149118943Y-105822117D01*
X149382192Y-105559327D01*
X149524838Y-105215799D01*
X149525162Y-104843833D01*
X149383117Y-104500057D01*
X149352000Y-104468886D01*
X149352000Y-103487445D01*
X149600667Y-103487662D01*
X149944443Y-103345617D01*
X150207692Y-103082827D01*
X150350338Y-102739299D01*
X150350662Y-102367333D01*
X150208617Y-102023557D01*
X150177500Y-101992386D01*
X150177500Y-87929945D01*
X150305810Y-87930057D01*
X150400383Y-88158943D01*
X150663173Y-88422192D01*
X150956867Y-88544145D01*
X150956838Y-88577167D01*
X151098883Y-88920943D01*
X151361673Y-89184192D01*
X151705201Y-89326838D01*
X152077167Y-89327162D01*
X152420943Y-89185117D01*
X152654000Y-88952466D01*
X152654000Y-97155000D01*
X152712004Y-97446605D01*
X152768064Y-97530504D01*
X152877185Y-97693815D01*
X152925375Y-97742005D01*
X152925338Y-97784667D01*
X153067383Y-98128443D01*
X153330173Y-98391692D01*
X153673701Y-98534338D01*
X154045667Y-98534662D01*
X154389443Y-98392617D01*
X154652692Y-98129827D01*
X154795338Y-97786299D01*
X154795662Y-97414333D01*
X154653617Y-97070557D01*
X154390827Y-96807308D01*
X154178000Y-96718934D01*
X154178000Y-92899172D01*
X154252021Y-92973322D01*
X154944469Y-93260852D01*
X155694241Y-93261506D01*
X156387191Y-92975186D01*
X156917822Y-92445479D01*
X157205352Y-91753031D01*
X157206006Y-91003259D01*
X156919686Y-90310309D01*
X156389979Y-89779678D01*
X155697531Y-89492148D01*
X154947759Y-89491494D01*
X154254809Y-89777814D01*
X154178000Y-89854489D01*
X154178000Y-87794311D01*
X154407317Y-87751162D01*
X154623441Y-87612090D01*
X154768431Y-87399890D01*
X154780249Y-87341531D01*
X155077521Y-87639322D01*
X155769969Y-87926852D01*
X156519741Y-87927506D01*
X157212691Y-87641186D01*
X157743322Y-87111479D01*
X158030852Y-86419031D01*
X158031506Y-85669259D01*
X157906476Y-85366661D01*
X158368758Y-85366661D01*
X158580990Y-85880303D01*
X158973630Y-86273629D01*
X159181512Y-86359949D01*
X158975697Y-86444990D01*
X158582371Y-86837630D01*
X158369243Y-87350900D01*
X158368758Y-87906661D01*
X158580990Y-88420303D01*
X158973630Y-88813629D01*
X159486900Y-89026757D01*
X160042661Y-89027242D01*
X160556303Y-88815010D01*
X160949629Y-88422370D01*
X161162757Y-87909100D01*
X161163242Y-87353339D01*
X160951010Y-86839697D01*
X160558370Y-86446371D01*
X160350488Y-86360051D01*
X160556303Y-86275010D01*
X160949629Y-85882370D01*
X161162757Y-85369100D01*
X161163242Y-84813339D01*
X160951010Y-84299697D01*
X160558370Y-83906371D01*
X160045100Y-83693243D01*
X159489339Y-83692758D01*
X158975697Y-83904990D01*
X158582371Y-84297630D01*
X158369243Y-84810900D01*
X158368758Y-85366661D01*
X157906476Y-85366661D01*
X157745186Y-84976309D01*
X157215479Y-84445678D01*
X156523031Y-84158148D01*
X155773259Y-84157494D01*
X155080309Y-84443814D01*
X154549678Y-84973521D01*
X154395118Y-85345742D01*
X154172000Y-85300560D01*
X153557852Y-85300560D01*
X153519605Y-85275004D01*
X153259933Y-85223352D01*
X153053890Y-85082569D01*
X152802000Y-85031560D01*
X151574500Y-85031560D01*
X151574500Y-84386440D01*
X152802000Y-84386440D01*
X153037317Y-84342162D01*
X153253441Y-84203090D01*
X153254869Y-84201000D01*
X153606500Y-84201000D01*
X153898105Y-84142996D01*
X154145315Y-83977815D01*
X154843815Y-83279315D01*
X155008996Y-83032105D01*
X155015979Y-82997000D01*
X155067000Y-82740500D01*
X155067000Y-78538466D01*
X155097192Y-78508327D01*
X155239838Y-78164799D01*
X155240162Y-77792833D01*
X155221085Y-77746661D01*
X158368758Y-77746661D01*
X158580990Y-78260303D01*
X158973630Y-78653629D01*
X159181512Y-78739949D01*
X158975697Y-78824990D01*
X158582371Y-79217630D01*
X158369243Y-79730900D01*
X158368758Y-80286661D01*
X158580990Y-80800303D01*
X158973630Y-81193629D01*
X159486900Y-81406757D01*
X160042661Y-81407242D01*
X160556303Y-81195010D01*
X160949629Y-80802370D01*
X161162757Y-80289100D01*
X161163242Y-79733339D01*
X160951010Y-79219697D01*
X160558370Y-78826371D01*
X160350488Y-78740051D01*
X160556303Y-78655010D01*
X160949629Y-78262370D01*
X161162757Y-77749100D01*
X161163242Y-77193339D01*
X160951010Y-76679697D01*
X160558370Y-76286371D01*
X160045100Y-76073243D01*
X159489339Y-76072758D01*
X158975697Y-76284990D01*
X158582371Y-76677630D01*
X158369243Y-77190900D01*
X158368758Y-77746661D01*
X155221085Y-77746661D01*
X155150834Y-77576643D01*
X155567241Y-77577006D01*
X156260191Y-77290686D01*
X156790822Y-76760979D01*
X157078352Y-76068531D01*
X157079006Y-75318759D01*
X156792686Y-74625809D01*
X156262979Y-74095178D01*
X155570531Y-73807648D01*
X154820759Y-73806994D01*
X154127809Y-74093314D01*
X153597178Y-74623021D01*
X153309648Y-75315469D01*
X153308994Y-76065241D01*
X153595314Y-76758191D01*
X153949658Y-77113153D01*
X153776057Y-77184883D01*
X153512808Y-77447673D01*
X153375692Y-77777885D01*
X153341322Y-77724472D01*
X153398431Y-77640890D01*
X153449440Y-77389000D01*
X153449440Y-76789000D01*
X153405162Y-76553683D01*
X153266090Y-76337559D01*
X153053890Y-76192569D01*
X152802000Y-76141560D01*
X151302000Y-76141560D01*
X151066683Y-76185838D01*
X150850559Y-76324910D01*
X150705569Y-76537110D01*
X150654560Y-76789000D01*
X150654560Y-77389000D01*
X150698838Y-77624317D01*
X150762678Y-77723528D01*
X150705569Y-77807110D01*
X150654560Y-78059000D01*
X150654560Y-78659000D01*
X150698838Y-78894317D01*
X150754609Y-78980988D01*
X150591184Y-79090185D01*
X150337188Y-79344182D01*
X150337185Y-79344184D01*
X150273685Y-79407685D01*
X150108504Y-79654895D01*
X150050500Y-79946500D01*
X150050500Y-80265869D01*
X150045857Y-80270513D01*
X149945827Y-80170308D01*
X149602299Y-80027662D01*
X149230333Y-80027338D01*
X149098000Y-80082017D01*
X149098000Y-75311000D01*
X149039996Y-75019395D01*
X148874815Y-74772184D01*
X148717000Y-74614369D01*
X148717000Y-73960001D01*
X148902167Y-73960162D01*
X149245943Y-73818117D01*
X149509192Y-73555327D01*
X149651838Y-73211799D01*
X149652162Y-72839833D01*
X149510117Y-72496057D01*
X149479000Y-72464886D01*
X149479000Y-68251476D01*
X152152760Y-70925236D01*
X152152760Y-71278600D01*
X152197038Y-71513917D01*
X152336110Y-71730041D01*
X152548310Y-71875031D01*
X152800200Y-71926040D01*
X153710828Y-71926040D01*
X154000200Y-71983599D01*
X154289572Y-71926040D01*
X155200200Y-71926040D01*
X155435517Y-71881762D01*
X155651641Y-71742690D01*
X155796631Y-71530490D01*
X155847640Y-71278600D01*
X155847640Y-70367972D01*
X155905199Y-70078600D01*
X155847640Y-69789228D01*
X155847640Y-68878600D01*
X155803362Y-68643283D01*
X155664290Y-68427159D01*
X155452090Y-68282169D01*
X155200200Y-68231160D01*
X154846836Y-68231160D01*
X152219010Y-65603334D01*
X152219010Y-62819066D01*
X152794538Y-62243538D01*
X153207491Y-61625512D01*
X153238822Y-61468000D01*
X153352500Y-60896500D01*
X153352500Y-58007100D01*
X153339800Y-57943253D01*
X153339800Y-54254400D01*
X153282240Y-53965025D01*
X153282240Y-53054400D01*
X153237962Y-52819083D01*
X153098890Y-52602959D01*
X152886690Y-52457969D01*
X152634800Y-52406960D01*
X151724175Y-52406960D01*
X151434800Y-52349400D01*
X151145425Y-52406960D01*
X150234800Y-52406960D01*
X149999483Y-52451238D01*
X149783359Y-52590310D01*
X149638369Y-52802510D01*
X149587360Y-53054400D01*
X149587360Y-53965025D01*
X149529800Y-54254400D01*
X149529800Y-57994400D01*
X149542500Y-58058247D01*
X149542500Y-59239430D01*
X149510117Y-59161057D01*
X149247327Y-58897808D01*
X148903799Y-58755162D01*
X148717000Y-58754999D01*
X148717000Y-57785000D01*
X148658996Y-57493395D01*
X148574137Y-57366395D01*
X148493816Y-57246185D01*
X147293070Y-56045440D01*
X147441000Y-56045440D01*
X147676317Y-56001162D01*
X147892441Y-55862090D01*
X148037431Y-55649890D01*
X148088440Y-55398000D01*
X148088440Y-54198000D01*
X148044162Y-53962683D01*
X147905090Y-53746559D01*
X147692890Y-53601569D01*
X147441000Y-53550560D01*
X146691000Y-53550560D01*
X146680392Y-53552556D01*
X146691440Y-53498000D01*
X146691440Y-52298000D01*
X146647162Y-52062683D01*
X146508090Y-51846559D01*
X146295890Y-51701569D01*
X146044000Y-51650560D01*
X145294000Y-51650560D01*
X145058683Y-51694838D01*
X144842559Y-51833910D01*
X144697569Y-52046110D01*
X144679366Y-52136000D01*
X144218000Y-52136000D01*
X143926396Y-52194003D01*
X143679185Y-52359184D01*
X143548809Y-52489560D01*
X142814000Y-52489560D01*
X142814000Y-51537958D01*
X142887317Y-51524162D01*
X143103441Y-51385090D01*
X143248431Y-51172890D01*
X143299440Y-50921000D01*
X143299440Y-50171000D01*
X143255162Y-49935683D01*
X143116090Y-49719559D01*
X142903890Y-49574569D01*
X142652000Y-49523560D01*
X141452000Y-49523560D01*
X141216683Y-49567838D01*
X141000559Y-49706910D01*
X140855569Y-49919110D01*
X140804560Y-50171000D01*
X140804560Y-50921000D01*
X140848838Y-51156317D01*
X140987910Y-51372441D01*
X141200110Y-51517431D01*
X141290000Y-51535634D01*
X141290000Y-53975000D01*
X141287500Y-53975000D01*
X140999349Y-54032317D01*
X140995895Y-54033004D01*
X140748685Y-54198185D01*
X140481440Y-54465430D01*
X140481440Y-54407000D01*
X140437162Y-54171683D01*
X140393205Y-54103372D01*
X140430431Y-54048890D01*
X140481440Y-53797000D01*
X140481440Y-53137000D01*
X140437162Y-52901683D01*
X140393205Y-52833372D01*
X140430431Y-52778890D01*
X140481440Y-52527000D01*
X140481440Y-51867000D01*
X140437162Y-51631683D01*
X140355205Y-51504318D01*
X140362092Y-47523444D01*
X140606143Y-47422604D01*
X141500065Y-46530241D01*
X141984448Y-45363717D01*
X141984563Y-45231176D01*
X146175450Y-45231176D01*
X146657796Y-46398543D01*
X147550159Y-47292465D01*
X148716683Y-47776848D01*
X149979776Y-47777950D01*
X151147143Y-47295604D01*
X152041065Y-46403241D01*
X152525448Y-45236717D01*
X152526550Y-43973624D01*
X152044204Y-42806257D01*
X151151841Y-41912335D01*
X149985317Y-41427952D01*
X148722224Y-41426850D01*
X147554857Y-41909196D01*
X146660935Y-42801559D01*
X146176552Y-43968083D01*
X146175450Y-45231176D01*
X141984563Y-45231176D01*
X141985550Y-44100624D01*
X141503204Y-42933257D01*
X140610841Y-42039335D01*
X140371752Y-41940057D01*
X140389671Y-31582373D01*
X161088591Y-31582373D01*
X161447123Y-32450086D01*
X162110422Y-33114544D01*
X162977508Y-33474589D01*
X163916373Y-33475409D01*
X164784086Y-33116877D01*
X165448544Y-32453578D01*
X165808589Y-31586492D01*
X165809409Y-30647627D01*
X165450877Y-29779914D01*
X164787578Y-29115456D01*
X163920492Y-28755411D01*
X162981627Y-28754591D01*
X162113914Y-29113123D01*
X161449456Y-29776422D01*
X161089411Y-30643508D01*
X161088591Y-31582373D01*
X140389671Y-31582373D01*
X140397272Y-27189500D01*
X170364069Y-27189500D01*
X171128989Y-27341652D01*
X171128989Y-27341652D01*
G37*
X171128989Y-27341652D02*
X171718170Y-27735330D01*
X172111848Y-28324511D01*
X172256716Y-29052813D01*
X171540492Y-28755411D01*
X170601627Y-28754591D01*
X169733914Y-29113123D01*
X169069456Y-29776422D01*
X168709411Y-30643508D01*
X168708591Y-31582373D01*
X169067123Y-32450086D01*
X169730422Y-33114544D01*
X170597508Y-33474589D01*
X171536373Y-33475409D01*
X172264000Y-33174759D01*
X172264000Y-136069318D01*
X172057873Y-136110319D01*
X171929902Y-136163327D01*
X171801932Y-136216333D01*
X171142704Y-136656816D01*
X170946816Y-136852704D01*
X170506334Y-137511932D01*
X170506334Y-137511933D01*
X170400319Y-137767873D01*
X170245642Y-138545486D01*
X170245643Y-138684000D01*
X170245642Y-138822514D01*
X170400319Y-139600127D01*
X170452618Y-139726386D01*
X170506334Y-139856068D01*
X170946816Y-140515296D01*
X171142704Y-140711184D01*
X171801932Y-141151667D01*
X171929902Y-141204673D01*
X172057873Y-141257681D01*
X172264000Y-141298682D01*
X172264000Y-148774069D01*
X172111848Y-149538989D01*
X171718170Y-150128170D01*
X171128989Y-150521848D01*
X170364069Y-150674000D01*
X115893931Y-150674000D01*
X115129011Y-150521848D01*
X114539830Y-150128170D01*
X114146152Y-149538989D01*
X113994000Y-148774069D01*
X113994000Y-141298682D01*
X114200127Y-141257681D01*
X114381104Y-141182717D01*
X114456068Y-141151666D01*
X115115296Y-140711184D01*
X115311184Y-140515296D01*
X115751667Y-139856068D01*
X115805382Y-139726386D01*
X115857681Y-139600127D01*
X116012357Y-138822515D01*
X116012357Y-138545485D01*
X115857681Y-137767873D01*
X115804674Y-137639903D01*
X115751667Y-137511932D01*
X115311184Y-136852704D01*
X115115296Y-136656816D01*
X114456068Y-136216334D01*
X114381104Y-136185283D01*
X114200127Y-136110319D01*
X113994000Y-136069318D01*
X113994000Y-127862938D01*
X114058700Y-127876040D01*
X115049300Y-127876040D01*
X115284617Y-127831762D01*
X115500741Y-127692690D01*
X115645731Y-127480490D01*
X115696740Y-127228600D01*
X115696740Y-126045890D01*
X115951260Y-125791371D01*
X115951260Y-127228600D01*
X115995538Y-127463917D01*
X116134610Y-127680041D01*
X116346810Y-127825031D01*
X116598700Y-127876040D01*
X117589300Y-127876040D01*
X117824617Y-127831762D01*
X118040741Y-127692690D01*
X118185731Y-127480490D01*
X118236740Y-127228600D01*
X118236740Y-125450600D01*
X118192462Y-125215283D01*
X118053390Y-124999159D01*
X117841190Y-124854169D01*
X117589300Y-124803160D01*
X116598700Y-124803160D01*
X116586000Y-124805550D01*
X116586000Y-119091246D01*
X116733943Y-119030117D01*
X116917040Y-118847339D01*
X116935883Y-118892943D01*
X116967000Y-118924114D01*
X116967000Y-119126000D01*
X117025004Y-119417605D01*
X117190185Y-119664815D01*
X117221000Y-119685405D01*
X117221000Y-122511811D01*
X117175162Y-122622201D01*
X117174838Y-122994167D01*
X117316883Y-123337943D01*
X117579673Y-123601192D01*
X117923201Y-123743838D01*
X118295167Y-123744162D01*
X118638943Y-123602117D01*
X118872000Y-123369466D01*
X118872000Y-124090034D01*
X118841808Y-124120173D01*
X118699162Y-124463701D01*
X118698838Y-124835667D01*
X118745642Y-124948942D01*
X118687259Y-124986510D01*
X118542269Y-125198710D01*
X118491260Y-125450600D01*
X118491260Y-127228600D01*
X118535538Y-127463917D01*
X118674610Y-127680041D01*
X118860143Y-127806810D01*
X118851132Y-128924210D01*
X118816408Y-128958873D01*
X118673762Y-129302401D01*
X118673438Y-129674367D01*
X118815483Y-130018143D01*
X119078273Y-130281392D01*
X119421801Y-130424038D01*
X119793767Y-130424362D01*
X120137543Y-130282317D01*
X120400792Y-130019527D01*
X120543438Y-129675999D01*
X120543762Y-129304033D01*
X120401717Y-128960257D01*
X120375105Y-128933599D01*
X120384092Y-127819230D01*
X120580741Y-127692690D01*
X120725731Y-127480490D01*
X120776740Y-127228600D01*
X120776740Y-125450600D01*
X121031260Y-125450600D01*
X121031260Y-127228600D01*
X121075538Y-127463917D01*
X121214610Y-127680041D01*
X121412000Y-127814912D01*
X121412000Y-128192134D01*
X121381808Y-128222273D01*
X121239162Y-128565801D01*
X121238838Y-128937767D01*
X121380883Y-129281543D01*
X121643673Y-129544792D01*
X121987201Y-129687438D01*
X122359167Y-129687762D01*
X122702943Y-129545717D01*
X122966192Y-129282927D01*
X123108838Y-128939399D01*
X123109162Y-128567433D01*
X122967117Y-128223657D01*
X122936000Y-128192486D01*
X122936000Y-127811568D01*
X123120741Y-127692690D01*
X123265731Y-127480490D01*
X123316740Y-127228600D01*
X123316740Y-125450600D01*
X123272462Y-125215283D01*
X123133390Y-124999159D01*
X122921190Y-124854169D01*
X122669300Y-124803160D01*
X121678700Y-124803160D01*
X121443383Y-124847438D01*
X121227259Y-124986510D01*
X121082269Y-125198710D01*
X121031260Y-125450600D01*
X120776740Y-125450600D01*
X120732462Y-125215283D01*
X120593390Y-124999159D01*
X120521908Y-124950318D01*
X120568838Y-124837299D01*
X120569162Y-124465333D01*
X120427117Y-124121557D01*
X120396000Y-124090386D01*
X120396000Y-121994968D01*
X120580741Y-121876090D01*
X120725731Y-121663890D01*
X120776740Y-121412000D01*
X120776740Y-119888000D01*
X120777000Y-119888000D01*
X121031260Y-119837424D01*
X121031260Y-121412000D01*
X121075538Y-121647317D01*
X121214610Y-121863441D01*
X121239034Y-121880129D01*
X121238838Y-122105167D01*
X121380883Y-122448943D01*
X121643673Y-122712192D01*
X121987201Y-122854838D01*
X122359167Y-122855162D01*
X122702943Y-122713117D01*
X122966192Y-122450327D01*
X122999500Y-122370113D01*
X122999500Y-122947034D01*
X122969308Y-122977173D01*
X122826662Y-123320701D01*
X122826338Y-123692667D01*
X122968383Y-124036443D01*
X123231173Y-124299692D01*
X123574701Y-124442338D01*
X123946667Y-124442662D01*
X124290443Y-124300617D01*
X124553692Y-124037827D01*
X124696338Y-123694299D01*
X124696662Y-123322333D01*
X124554617Y-122978557D01*
X124523500Y-122947386D01*
X124523500Y-122059440D01*
X125209300Y-122059440D01*
X125222000Y-122057050D01*
X125222000Y-123582034D01*
X125191808Y-123612173D01*
X125049162Y-123955701D01*
X125048838Y-124327667D01*
X125190883Y-124671443D01*
X125351019Y-124831859D01*
X125209300Y-124803160D01*
X124218700Y-124803160D01*
X123983383Y-124847438D01*
X123767259Y-124986510D01*
X123622269Y-125198710D01*
X123571260Y-125450600D01*
X123571260Y-127228600D01*
X123615538Y-127463917D01*
X123754610Y-127680041D01*
X123966810Y-127825031D01*
X124218700Y-127876040D01*
X125209300Y-127876040D01*
X125444617Y-127831762D01*
X125660741Y-127692690D01*
X125805731Y-127480490D01*
X125856740Y-127228600D01*
X125856740Y-125450600D01*
X125812462Y-125215283D01*
X125696895Y-125035687D01*
X125797201Y-125077338D01*
X126169167Y-125077662D01*
X126274800Y-125034015D01*
X126162269Y-125198710D01*
X126111260Y-125450600D01*
X126111260Y-127228600D01*
X126155538Y-127463917D01*
X126294610Y-127680041D01*
X126506810Y-127825031D01*
X126758700Y-127876040D01*
X127749300Y-127876040D01*
X127984617Y-127831762D01*
X128200741Y-127692690D01*
X128345731Y-127480490D01*
X128396740Y-127228600D01*
X128396740Y-125450600D01*
X128352462Y-125215283D01*
X128213390Y-124999159D01*
X128001190Y-124854169D01*
X127749300Y-124803160D01*
X126758700Y-124803160D01*
X126619369Y-124829377D01*
X126776192Y-124672827D01*
X126918838Y-124329299D01*
X126919162Y-123957333D01*
X126813690Y-123702070D01*
X127067201Y-123807338D01*
X127439167Y-123807662D01*
X127782943Y-123665617D01*
X128046192Y-123402827D01*
X128188838Y-123059299D01*
X128189162Y-122687333D01*
X128047117Y-122343557D01*
X128016000Y-122312386D01*
X128016000Y-121994968D01*
X128200741Y-121876090D01*
X128345731Y-121663890D01*
X128396740Y-121412000D01*
X128396740Y-119634000D01*
X128352462Y-119398683D01*
X128213390Y-119182559D01*
X128001190Y-119037569D01*
X127749300Y-118986560D01*
X126758700Y-118986560D01*
X126746000Y-118988950D01*
X126746000Y-118110997D01*
X126773175Y-118176766D01*
X127058731Y-118462821D01*
X127432018Y-118617824D01*
X127836208Y-118618176D01*
X128209766Y-118463825D01*
X128309765Y-118364000D01*
X128506066Y-118364000D01*
X128478162Y-118431201D01*
X128477838Y-118803167D01*
X128619883Y-119146943D01*
X128764183Y-119291495D01*
X128702269Y-119382110D01*
X128651260Y-119634000D01*
X128651260Y-121412000D01*
X128695538Y-121647317D01*
X128834610Y-121863441D01*
X129046810Y-122008431D01*
X129298700Y-122059440D01*
X130289300Y-122059440D01*
X130302000Y-122057050D01*
X130302000Y-124753969D01*
X130252809Y-124803160D01*
X129298700Y-124803160D01*
X129063383Y-124847438D01*
X128847259Y-124986510D01*
X128702269Y-125198710D01*
X128651260Y-125450600D01*
X128651260Y-127228600D01*
X128695538Y-127463917D01*
X128834610Y-127680041D01*
X129046810Y-127825031D01*
X129298700Y-127876040D01*
X130289300Y-127876040D01*
X130524617Y-127831762D01*
X130740741Y-127692690D01*
X130885731Y-127480490D01*
X130936740Y-127228600D01*
X130936740Y-126274490D01*
X131191260Y-126019971D01*
X131191260Y-127228600D01*
X131235538Y-127463917D01*
X131374610Y-127680041D01*
X131586810Y-127825031D01*
X131838700Y-127876040D01*
X132829300Y-127876040D01*
X133064617Y-127831762D01*
X133280741Y-127692690D01*
X133425731Y-127480490D01*
X133476740Y-127228600D01*
X133476740Y-125450600D01*
X133731260Y-125450600D01*
X133731260Y-127228600D01*
X133775538Y-127463917D01*
X133914610Y-127680041D01*
X134126810Y-127825031D01*
X134378700Y-127876040D01*
X135332809Y-127876040D01*
X135757584Y-128300815D01*
X135959298Y-128435596D01*
X136004795Y-128465996D01*
X136296400Y-128524000D01*
X139192000Y-128524000D01*
X139483605Y-128465996D01*
X139730815Y-128300815D01*
X139842505Y-128189125D01*
X139885167Y-128189162D01*
X140228943Y-128047117D01*
X140492192Y-127784327D01*
X140634838Y-127440799D01*
X140635162Y-127068833D01*
X140493117Y-126725057D01*
X140230327Y-126461808D01*
X139886799Y-126319162D01*
X139873041Y-126319150D01*
X139873162Y-126179833D01*
X139731117Y-125836057D01*
X139468327Y-125572808D01*
X139124799Y-125430162D01*
X138752833Y-125429838D01*
X138556740Y-125510862D01*
X138556740Y-125450600D01*
X138512462Y-125215283D01*
X138373390Y-124999159D01*
X138176000Y-124864288D01*
X138176000Y-124194966D01*
X138206192Y-124164827D01*
X138348838Y-123821299D01*
X138349162Y-123449333D01*
X138207117Y-123105557D01*
X137944327Y-122842308D01*
X137600799Y-122699662D01*
X137228833Y-122699338D01*
X136885057Y-122841383D01*
X136621808Y-123104173D01*
X136479162Y-123447701D01*
X136478838Y-123819667D01*
X136620883Y-124163443D01*
X136652000Y-124194614D01*
X136652000Y-124867632D01*
X136467259Y-124986510D01*
X136322269Y-125198710D01*
X136271260Y-125450600D01*
X136271260Y-126659229D01*
X136016740Y-126404710D01*
X136016740Y-125450600D01*
X135972462Y-125215283D01*
X135833390Y-124999159D01*
X135636000Y-124864288D01*
X135636000Y-124702966D01*
X135666192Y-124672827D01*
X135808838Y-124329299D01*
X135809162Y-123957333D01*
X135667117Y-123613557D01*
X135404327Y-123350308D01*
X135060799Y-123207662D01*
X134688833Y-123207338D01*
X134345057Y-123349383D01*
X134081808Y-123612173D01*
X133939162Y-123955701D01*
X133938838Y-124327667D01*
X134080883Y-124671443D01*
X134112000Y-124702614D01*
X134112000Y-124867632D01*
X133927259Y-124986510D01*
X133782269Y-125198710D01*
X133731260Y-125450600D01*
X133476740Y-125450600D01*
X133432462Y-125215283D01*
X133293390Y-124999159D01*
X133081190Y-124854169D01*
X132829300Y-124803160D01*
X131838700Y-124803160D01*
X131826000Y-124805550D01*
X131826000Y-122056868D01*
X131838700Y-122059440D01*
X132829300Y-122059440D01*
X133064617Y-122015162D01*
X133280741Y-121876090D01*
X133425731Y-121663890D01*
X133476740Y-121412000D01*
X133476740Y-120143307D01*
X133477000Y-120142000D01*
X133477000Y-119634000D01*
X133731260Y-119634000D01*
X133731260Y-121412000D01*
X133775538Y-121647317D01*
X133914610Y-121863441D01*
X134126810Y-122008431D01*
X134378700Y-122059440D01*
X135369300Y-122059440D01*
X135604617Y-122015162D01*
X135820741Y-121876090D01*
X135965731Y-121663890D01*
X136016740Y-121412000D01*
X136016740Y-119634000D01*
X136271260Y-119634000D01*
X136271260Y-121412000D01*
X136315538Y-121647317D01*
X136454610Y-121863441D01*
X136666810Y-122008431D01*
X136918700Y-122059440D01*
X137909300Y-122059440D01*
X138144617Y-122015162D01*
X138360741Y-121876090D01*
X138505731Y-121663890D01*
X138556740Y-121412000D01*
X138556740Y-119634000D01*
X138512462Y-119398683D01*
X138373390Y-119182559D01*
X138161190Y-119037569D01*
X137909300Y-118986560D01*
X136918700Y-118986560D01*
X136683383Y-119030838D01*
X136467259Y-119169910D01*
X136322269Y-119382110D01*
X136271260Y-119634000D01*
X136016740Y-119634000D01*
X135972462Y-119398683D01*
X135833390Y-119182559D01*
X135621190Y-119037569D01*
X135369300Y-118986560D01*
X134378700Y-118986560D01*
X134143383Y-119030838D01*
X133927259Y-119169910D01*
X133782269Y-119382110D01*
X133731260Y-119634000D01*
X133477000Y-119634000D01*
X133477000Y-118313476D01*
X133731000Y-118364000D01*
X134580082Y-118364000D01*
X134678731Y-118462821D01*
X135052018Y-118617824D01*
X135456208Y-118618176D01*
X135829766Y-118463825D01*
X136115821Y-118178269D01*
X136270824Y-117804982D01*
X136271176Y-117400792D01*
X136116825Y-117027234D01*
X135831269Y-116741179D01*
X135457982Y-116586176D01*
X135053792Y-116585824D01*
X134680234Y-116740175D01*
X134580235Y-116840000D01*
X134175500Y-116840000D01*
X134175500Y-113399856D01*
X134269192Y-113306327D01*
X134374738Y-113052145D01*
X134393175Y-113096766D01*
X134678731Y-113382821D01*
X135052018Y-113537824D01*
X135445500Y-113538167D01*
X135445500Y-114046165D01*
X135053792Y-114045824D01*
X134680234Y-114200175D01*
X134394179Y-114485731D01*
X134239176Y-114859018D01*
X134238824Y-115263208D01*
X134393175Y-115636766D01*
X134678731Y-115922821D01*
X135052018Y-116077824D01*
X135456208Y-116078176D01*
X135829766Y-115923825D01*
X135971264Y-115782574D01*
X136054605Y-115765996D01*
X136301815Y-115600815D01*
X136398000Y-115504630D01*
X136398000Y-115951000D01*
X136456004Y-116242605D01*
X136561838Y-116400996D01*
X136621185Y-116489815D01*
X136938685Y-116807316D01*
X137040578Y-116875398D01*
X137185895Y-116972496D01*
X137477500Y-117030500D01*
X141160500Y-117030500D01*
X141160500Y-118765597D01*
X140469759Y-118764994D01*
X139776809Y-119051314D01*
X139246178Y-119581021D01*
X138958648Y-120273469D01*
X138957994Y-121023241D01*
X139244314Y-121716191D01*
X139774021Y-122246822D01*
X140466469Y-122534352D01*
X141216241Y-122535006D01*
X141909191Y-122248686D01*
X142439822Y-121718979D01*
X142727352Y-121026531D01*
X142728006Y-120276759D01*
X142583354Y-119926672D01*
X142626497Y-119862104D01*
X142684500Y-119570500D01*
X142684500Y-109589966D01*
X142714692Y-109559827D01*
X142857338Y-109216299D01*
X142857662Y-108844333D01*
X142715617Y-108500557D01*
X142684500Y-108469386D01*
X142684500Y-107994301D01*
X142688201Y-107995838D01*
X143060167Y-107996162D01*
X143403943Y-107854117D01*
X143667192Y-107591327D01*
X143809838Y-107247799D01*
X143810162Y-106875833D01*
X143668117Y-106532057D01*
X143637000Y-106500886D01*
X143637000Y-105837056D01*
X143758667Y-105837162D01*
X144102443Y-105695117D01*
X144365692Y-105432327D01*
X144508338Y-105088799D01*
X144508662Y-104716833D01*
X144366617Y-104373057D01*
X144335500Y-104341886D01*
X144335500Y-100264631D01*
X145034000Y-100963131D01*
X145034000Y-101166534D01*
X145003808Y-101196673D01*
X144861162Y-101540201D01*
X144860838Y-101912167D01*
X145002883Y-102255943D01*
X145265673Y-102519192D01*
X145609201Y-102661838D01*
X145669000Y-102661890D01*
X145669000Y-104601889D01*
X145610833Y-104601838D01*
X145267057Y-104743883D01*
X145003808Y-105006673D01*
X144861162Y-105350201D01*
X144860838Y-105722167D01*
X145002883Y-106065943D01*
X145034000Y-106097114D01*
X145034000Y-107643534D01*
X145003808Y-107673673D01*
X144861162Y-108017201D01*
X144860838Y-108389167D01*
X145002883Y-108732943D01*
X145265673Y-108996192D01*
X145609201Y-109138838D01*
X145669000Y-109138890D01*
X145669000Y-128166778D01*
X145613408Y-128222273D01*
X145470762Y-128565801D01*
X145470438Y-128937767D01*
X145612483Y-129281543D01*
X145875273Y-129544792D01*
X146205798Y-129682039D01*
X146323683Y-129967343D01*
X146586473Y-130230592D01*
X146930001Y-130373238D01*
X147301967Y-130373562D01*
X147645743Y-130231517D01*
X147908992Y-129968727D01*
X148051638Y-129625199D01*
X148051962Y-129253233D01*
X147909917Y-128909457D01*
X147878800Y-128878286D01*
X147878800Y-126296167D01*
X158576838Y-126296167D01*
X158718883Y-126639943D01*
X158957994Y-126879471D01*
X158957838Y-127058167D01*
X159099883Y-127401943D01*
X159362673Y-127665192D01*
X159706201Y-127807838D01*
X160078167Y-127808162D01*
X160421943Y-127666117D01*
X160685192Y-127403327D01*
X160827838Y-127059799D01*
X160827876Y-127015754D01*
X160876315Y-126967315D01*
X160939335Y-126872999D01*
X161041496Y-126720105D01*
X161099500Y-126428500D01*
X161099500Y-124899167D01*
X166831838Y-124899167D01*
X166973883Y-125242943D01*
X167236673Y-125506192D01*
X167580201Y-125648838D01*
X167952167Y-125649162D01*
X168295943Y-125507117D01*
X168559192Y-125244327D01*
X168701838Y-124900799D01*
X168701876Y-124856754D01*
X168750315Y-124808315D01*
X168767233Y-124782996D01*
X168915496Y-124561105D01*
X168973500Y-124269500D01*
X168973500Y-101026630D01*
X169941505Y-100058625D01*
X169984167Y-100058662D01*
X170327943Y-99916617D01*
X170591192Y-99653827D01*
X170733838Y-99310299D01*
X170734162Y-98938333D01*
X170592117Y-98594557D01*
X170329327Y-98331308D01*
X169985799Y-98188662D01*
X169613833Y-98188338D01*
X169270057Y-98330383D01*
X169006808Y-98593173D01*
X168864162Y-98936701D01*
X168864124Y-98980746D01*
X167672685Y-100172185D01*
X167507504Y-100419395D01*
X167449500Y-100711000D01*
X167449500Y-123833517D01*
X167238057Y-123920883D01*
X166974808Y-124183673D01*
X166832162Y-124527201D01*
X166831838Y-124899167D01*
X161099500Y-124899167D01*
X161099500Y-124321856D01*
X161193192Y-124228327D01*
X161335838Y-123884799D01*
X161336162Y-123512833D01*
X161194117Y-123169057D01*
X160931327Y-122905808D01*
X160587799Y-122763162D01*
X160215833Y-122762838D01*
X160126664Y-122799682D01*
X160105827Y-122778808D01*
X159762299Y-122636162D01*
X159390333Y-122635838D01*
X159046557Y-122777883D01*
X158783308Y-123040673D01*
X158640662Y-123384201D01*
X158640338Y-123756167D01*
X158782383Y-124099943D01*
X158813500Y-124131114D01*
X158813500Y-125487144D01*
X158719808Y-125580673D01*
X158577162Y-125924201D01*
X158576838Y-126296167D01*
X147878800Y-126296167D01*
X147878800Y-117279167D01*
X160672338Y-117279167D01*
X160814383Y-117622943D01*
X161077173Y-117886192D01*
X161420701Y-118028838D01*
X161792667Y-118029162D01*
X162136443Y-117887117D01*
X162399692Y-117624327D01*
X162542338Y-117280799D01*
X162542376Y-117236754D01*
X164241816Y-115537315D01*
X164406997Y-115290104D01*
X164465000Y-114998500D01*
X164465000Y-101138001D01*
X164650167Y-101138162D01*
X164993943Y-100996117D01*
X165257192Y-100733327D01*
X165399838Y-100389799D01*
X165400162Y-100017833D01*
X165384559Y-99980071D01*
X165765816Y-99598815D01*
X165871264Y-99441000D01*
X165930996Y-99351605D01*
X165989000Y-99060000D01*
X165989000Y-89367373D01*
X166041591Y-89367373D01*
X166400123Y-90235086D01*
X167063422Y-90899544D01*
X167930508Y-91259589D01*
X168869373Y-91260409D01*
X169737086Y-90901877D01*
X170401544Y-90238578D01*
X170761589Y-89371492D01*
X170762409Y-88432627D01*
X170403877Y-87564914D01*
X169740578Y-86900456D01*
X168873492Y-86540411D01*
X167934627Y-86539591D01*
X167066914Y-86898123D01*
X166402456Y-87561422D01*
X166042411Y-88428508D01*
X166041591Y-89367373D01*
X165989000Y-89367373D01*
X165989000Y-76667373D01*
X166041591Y-76667373D01*
X166400123Y-77535086D01*
X167063422Y-78199544D01*
X167930508Y-78559589D01*
X168869373Y-78560409D01*
X169737086Y-78201877D01*
X170401544Y-77538578D01*
X170761589Y-76671492D01*
X170762409Y-75732627D01*
X170403877Y-74864914D01*
X169740578Y-74200456D01*
X168873492Y-73840411D01*
X167934627Y-73839591D01*
X167066914Y-74198123D01*
X166402456Y-74861422D01*
X166042411Y-75728508D01*
X166041591Y-76667373D01*
X165989000Y-76667373D01*
X165989000Y-42225630D01*
X167066797Y-41147833D01*
X167535661Y-41148242D01*
X168049303Y-40936010D01*
X168442629Y-40543370D01*
X168655757Y-40030100D01*
X168656242Y-39474339D01*
X168444010Y-38960697D01*
X168051370Y-38567371D01*
X167538100Y-38354243D01*
X166982339Y-38353758D01*
X166468697Y-38565990D01*
X166075371Y-38958630D01*
X165989051Y-39166512D01*
X165904010Y-38960697D01*
X165511370Y-38567371D01*
X164998100Y-38354243D01*
X164442339Y-38353758D01*
X163928697Y-38565990D01*
X163535371Y-38958630D01*
X163322243Y-39471900D01*
X163321758Y-40027661D01*
X163533990Y-40541303D01*
X163926630Y-40934629D01*
X163957000Y-40947240D01*
X163957000Y-96462312D01*
X163381031Y-96223148D01*
X162631259Y-96222494D01*
X161938309Y-96508814D01*
X161407678Y-97038521D01*
X161120148Y-97730969D01*
X161119494Y-98480741D01*
X161405814Y-99173691D01*
X161935521Y-99704322D01*
X162214555Y-99820187D01*
X162133162Y-100016201D01*
X162132838Y-100388167D01*
X162274883Y-100731943D01*
X162306000Y-100763114D01*
X162306000Y-109866144D01*
X162212308Y-109959673D01*
X162069662Y-110303201D01*
X162069338Y-110675167D01*
X162211383Y-111018943D01*
X162474173Y-111282192D01*
X162817701Y-111424838D01*
X162941000Y-111424945D01*
X162941000Y-114682869D01*
X161464995Y-116158875D01*
X161422333Y-116158838D01*
X161078557Y-116300883D01*
X160815308Y-116563673D01*
X160672662Y-116907201D01*
X160672338Y-117279167D01*
X147878800Y-117279167D01*
X147878800Y-105640003D01*
X148059673Y-105821192D01*
X148403201Y-105963838D01*
X148775167Y-105964162D01*
X149118943Y-105822117D01*
X149382192Y-105559327D01*
X149524838Y-105215799D01*
X149525162Y-104843833D01*
X149383117Y-104500057D01*
X149352000Y-104468886D01*
X149352000Y-103487445D01*
X149600667Y-103487662D01*
X149944443Y-103345617D01*
X150207692Y-103082827D01*
X150350338Y-102739299D01*
X150350662Y-102367333D01*
X150208617Y-102023557D01*
X150177500Y-101992386D01*
X150177500Y-87929945D01*
X150305810Y-87930057D01*
X150400383Y-88158943D01*
X150663173Y-88422192D01*
X150956867Y-88544145D01*
X150956838Y-88577167D01*
X151098883Y-88920943D01*
X151361673Y-89184192D01*
X151705201Y-89326838D01*
X152077167Y-89327162D01*
X152420943Y-89185117D01*
X152654000Y-88952466D01*
X152654000Y-97155000D01*
X152712004Y-97446605D01*
X152768064Y-97530504D01*
X152877185Y-97693815D01*
X152925375Y-97742005D01*
X152925338Y-97784667D01*
X153067383Y-98128443D01*
X153330173Y-98391692D01*
X153673701Y-98534338D01*
X154045667Y-98534662D01*
X154389443Y-98392617D01*
X154652692Y-98129827D01*
X154795338Y-97786299D01*
X154795662Y-97414333D01*
X154653617Y-97070557D01*
X154390827Y-96807308D01*
X154178000Y-96718934D01*
X154178000Y-92899172D01*
X154252021Y-92973322D01*
X154944469Y-93260852D01*
X155694241Y-93261506D01*
X156387191Y-92975186D01*
X156917822Y-92445479D01*
X157205352Y-91753031D01*
X157206006Y-91003259D01*
X156919686Y-90310309D01*
X156389979Y-89779678D01*
X155697531Y-89492148D01*
X154947759Y-89491494D01*
X154254809Y-89777814D01*
X154178000Y-89854489D01*
X154178000Y-87794311D01*
X154407317Y-87751162D01*
X154623441Y-87612090D01*
X154768431Y-87399890D01*
X154780249Y-87341531D01*
X155077521Y-87639322D01*
X155769969Y-87926852D01*
X156519741Y-87927506D01*
X157212691Y-87641186D01*
X157743322Y-87111479D01*
X158030852Y-86419031D01*
X158031506Y-85669259D01*
X157906476Y-85366661D01*
X158368758Y-85366661D01*
X158580990Y-85880303D01*
X158973630Y-86273629D01*
X159181512Y-86359949D01*
X158975697Y-86444990D01*
X158582371Y-86837630D01*
X158369243Y-87350900D01*
X158368758Y-87906661D01*
X158580990Y-88420303D01*
X158973630Y-88813629D01*
X159486900Y-89026757D01*
X160042661Y-89027242D01*
X160556303Y-88815010D01*
X160949629Y-88422370D01*
X161162757Y-87909100D01*
X161163242Y-87353339D01*
X160951010Y-86839697D01*
X160558370Y-86446371D01*
X160350488Y-86360051D01*
X160556303Y-86275010D01*
X160949629Y-85882370D01*
X161162757Y-85369100D01*
X161163242Y-84813339D01*
X160951010Y-84299697D01*
X160558370Y-83906371D01*
X160045100Y-83693243D01*
X159489339Y-83692758D01*
X158975697Y-83904990D01*
X158582371Y-84297630D01*
X158369243Y-84810900D01*
X158368758Y-85366661D01*
X157906476Y-85366661D01*
X157745186Y-84976309D01*
X157215479Y-84445678D01*
X156523031Y-84158148D01*
X155773259Y-84157494D01*
X155080309Y-84443814D01*
X154549678Y-84973521D01*
X154395118Y-85345742D01*
X154172000Y-85300560D01*
X153557852Y-85300560D01*
X153519605Y-85275004D01*
X153259933Y-85223352D01*
X153053890Y-85082569D01*
X152802000Y-85031560D01*
X151574500Y-85031560D01*
X151574500Y-84386440D01*
X152802000Y-84386440D01*
X153037317Y-84342162D01*
X153253441Y-84203090D01*
X153254869Y-84201000D01*
X153606500Y-84201000D01*
X153898105Y-84142996D01*
X154145315Y-83977815D01*
X154843815Y-83279315D01*
X155008996Y-83032105D01*
X155015979Y-82997000D01*
X155067000Y-82740500D01*
X155067000Y-78538466D01*
X155097192Y-78508327D01*
X155239838Y-78164799D01*
X155240162Y-77792833D01*
X155221085Y-77746661D01*
X158368758Y-77746661D01*
X158580990Y-78260303D01*
X158973630Y-78653629D01*
X159181512Y-78739949D01*
X158975697Y-78824990D01*
X158582371Y-79217630D01*
X158369243Y-79730900D01*
X158368758Y-80286661D01*
X158580990Y-80800303D01*
X158973630Y-81193629D01*
X159486900Y-81406757D01*
X160042661Y-81407242D01*
X160556303Y-81195010D01*
X160949629Y-80802370D01*
X161162757Y-80289100D01*
X161163242Y-79733339D01*
X160951010Y-79219697D01*
X160558370Y-78826371D01*
X160350488Y-78740051D01*
X160556303Y-78655010D01*
X160949629Y-78262370D01*
X161162757Y-77749100D01*
X161163242Y-77193339D01*
X160951010Y-76679697D01*
X160558370Y-76286371D01*
X160045100Y-76073243D01*
X159489339Y-76072758D01*
X158975697Y-76284990D01*
X158582371Y-76677630D01*
X158369243Y-77190900D01*
X158368758Y-77746661D01*
X155221085Y-77746661D01*
X155150834Y-77576643D01*
X155567241Y-77577006D01*
X156260191Y-77290686D01*
X156790822Y-76760979D01*
X157078352Y-76068531D01*
X157079006Y-75318759D01*
X156792686Y-74625809D01*
X156262979Y-74095178D01*
X155570531Y-73807648D01*
X154820759Y-73806994D01*
X154127809Y-74093314D01*
X153597178Y-74623021D01*
X153309648Y-75315469D01*
X153308994Y-76065241D01*
X153595314Y-76758191D01*
X153949658Y-77113153D01*
X153776057Y-77184883D01*
X153512808Y-77447673D01*
X153375692Y-77777885D01*
X153341322Y-77724472D01*
X153398431Y-77640890D01*
X153449440Y-77389000D01*
X153449440Y-76789000D01*
X153405162Y-76553683D01*
X153266090Y-76337559D01*
X153053890Y-76192569D01*
X152802000Y-76141560D01*
X151302000Y-76141560D01*
X151066683Y-76185838D01*
X150850559Y-76324910D01*
X150705569Y-76537110D01*
X150654560Y-76789000D01*
X150654560Y-77389000D01*
X150698838Y-77624317D01*
X150762678Y-77723528D01*
X150705569Y-77807110D01*
X150654560Y-78059000D01*
X150654560Y-78659000D01*
X150698838Y-78894317D01*
X150754609Y-78980988D01*
X150591184Y-79090185D01*
X150337188Y-79344182D01*
X150337185Y-79344184D01*
X150273685Y-79407685D01*
X150108504Y-79654895D01*
X150050500Y-79946500D01*
X150050500Y-80265869D01*
X150045857Y-80270513D01*
X149945827Y-80170308D01*
X149602299Y-80027662D01*
X149230333Y-80027338D01*
X149098000Y-80082017D01*
X149098000Y-75311000D01*
X149039996Y-75019395D01*
X148874815Y-74772184D01*
X148717000Y-74614369D01*
X148717000Y-73960001D01*
X148902167Y-73960162D01*
X149245943Y-73818117D01*
X149509192Y-73555327D01*
X149651838Y-73211799D01*
X149652162Y-72839833D01*
X149510117Y-72496057D01*
X149479000Y-72464886D01*
X149479000Y-68251476D01*
X152152760Y-70925236D01*
X152152760Y-71278600D01*
X152197038Y-71513917D01*
X152336110Y-71730041D01*
X152548310Y-71875031D01*
X152800200Y-71926040D01*
X153710828Y-71926040D01*
X154000200Y-71983599D01*
X154289572Y-71926040D01*
X155200200Y-71926040D01*
X155435517Y-71881762D01*
X155651641Y-71742690D01*
X155796631Y-71530490D01*
X155847640Y-71278600D01*
X155847640Y-70367972D01*
X155905199Y-70078600D01*
X155847640Y-69789228D01*
X155847640Y-68878600D01*
X155803362Y-68643283D01*
X155664290Y-68427159D01*
X155452090Y-68282169D01*
X155200200Y-68231160D01*
X154846836Y-68231160D01*
X152219010Y-65603334D01*
X152219010Y-62819066D01*
X152794538Y-62243538D01*
X153207491Y-61625512D01*
X153238822Y-61468000D01*
X153352500Y-60896500D01*
X153352500Y-58007100D01*
X153339800Y-57943253D01*
X153339800Y-54254400D01*
X153282240Y-53965025D01*
X153282240Y-53054400D01*
X153237962Y-52819083D01*
X153098890Y-52602959D01*
X152886690Y-52457969D01*
X152634800Y-52406960D01*
X151724175Y-52406960D01*
X151434800Y-52349400D01*
X151145425Y-52406960D01*
X150234800Y-52406960D01*
X149999483Y-52451238D01*
X149783359Y-52590310D01*
X149638369Y-52802510D01*
X149587360Y-53054400D01*
X149587360Y-53965025D01*
X149529800Y-54254400D01*
X149529800Y-57994400D01*
X149542500Y-58058247D01*
X149542500Y-59239430D01*
X149510117Y-59161057D01*
X149247327Y-58897808D01*
X148903799Y-58755162D01*
X148717000Y-58754999D01*
X148717000Y-57785000D01*
X148658996Y-57493395D01*
X148574137Y-57366395D01*
X148493816Y-57246185D01*
X147293070Y-56045440D01*
X147441000Y-56045440D01*
X147676317Y-56001162D01*
X147892441Y-55862090D01*
X148037431Y-55649890D01*
X148088440Y-55398000D01*
X148088440Y-54198000D01*
X148044162Y-53962683D01*
X147905090Y-53746559D01*
X147692890Y-53601569D01*
X147441000Y-53550560D01*
X146691000Y-53550560D01*
X146680392Y-53552556D01*
X146691440Y-53498000D01*
X146691440Y-52298000D01*
X146647162Y-52062683D01*
X146508090Y-51846559D01*
X146295890Y-51701569D01*
X146044000Y-51650560D01*
X145294000Y-51650560D01*
X145058683Y-51694838D01*
X144842559Y-51833910D01*
X144697569Y-52046110D01*
X144679366Y-52136000D01*
X144218000Y-52136000D01*
X143926396Y-52194003D01*
X143679185Y-52359184D01*
X143548809Y-52489560D01*
X142814000Y-52489560D01*
X142814000Y-51537958D01*
X142887317Y-51524162D01*
X143103441Y-51385090D01*
X143248431Y-51172890D01*
X143299440Y-50921000D01*
X143299440Y-50171000D01*
X143255162Y-49935683D01*
X143116090Y-49719559D01*
X142903890Y-49574569D01*
X142652000Y-49523560D01*
X141452000Y-49523560D01*
X141216683Y-49567838D01*
X141000559Y-49706910D01*
X140855569Y-49919110D01*
X140804560Y-50171000D01*
X140804560Y-50921000D01*
X140848838Y-51156317D01*
X140987910Y-51372441D01*
X141200110Y-51517431D01*
X141290000Y-51535634D01*
X141290000Y-53975000D01*
X141287500Y-53975000D01*
X140999349Y-54032317D01*
X140995895Y-54033004D01*
X140748685Y-54198185D01*
X140481440Y-54465430D01*
X140481440Y-54407000D01*
X140437162Y-54171683D01*
X140393205Y-54103372D01*
X140430431Y-54048890D01*
X140481440Y-53797000D01*
X140481440Y-53137000D01*
X140437162Y-52901683D01*
X140393205Y-52833372D01*
X140430431Y-52778890D01*
X140481440Y-52527000D01*
X140481440Y-51867000D01*
X140437162Y-51631683D01*
X140355205Y-51504318D01*
X140362092Y-47523444D01*
X140606143Y-47422604D01*
X141500065Y-46530241D01*
X141984448Y-45363717D01*
X141984563Y-45231176D01*
X146175450Y-45231176D01*
X146657796Y-46398543D01*
X147550159Y-47292465D01*
X148716683Y-47776848D01*
X149979776Y-47777950D01*
X151147143Y-47295604D01*
X152041065Y-46403241D01*
X152525448Y-45236717D01*
X152526550Y-43973624D01*
X152044204Y-42806257D01*
X151151841Y-41912335D01*
X149985317Y-41427952D01*
X148722224Y-41426850D01*
X147554857Y-41909196D01*
X146660935Y-42801559D01*
X146176552Y-43968083D01*
X146175450Y-45231176D01*
X141984563Y-45231176D01*
X141985550Y-44100624D01*
X141503204Y-42933257D01*
X140610841Y-42039335D01*
X140371752Y-41940057D01*
X140389671Y-31582373D01*
X161088591Y-31582373D01*
X161447123Y-32450086D01*
X162110422Y-33114544D01*
X162977508Y-33474589D01*
X163916373Y-33475409D01*
X164784086Y-33116877D01*
X165448544Y-32453578D01*
X165808589Y-31586492D01*
X165809409Y-30647627D01*
X165450877Y-29779914D01*
X164787578Y-29115456D01*
X163920492Y-28755411D01*
X162981627Y-28754591D01*
X162113914Y-29113123D01*
X161449456Y-29776422D01*
X161089411Y-30643508D01*
X161088591Y-31582373D01*
X140389671Y-31582373D01*
X140397272Y-27189500D01*
X170364069Y-27189500D01*
X171128989Y-27341652D01*
G36*
X120111185Y-100157615D02*
X123921185Y-103967616D01*
X123921188Y-103967618D01*
X125191184Y-105237615D01*
X125191187Y-105237617D01*
X125546784Y-105593215D01*
X125727768Y-105714144D01*
X125809273Y-105795792D01*
X125810928Y-105796479D01*
X125810838Y-105899967D01*
X125952883Y-106243743D01*
X126215673Y-106506992D01*
X126559201Y-106649638D01*
X126922415Y-106649954D01*
X126943483Y-106700943D01*
X127206273Y-106964192D01*
X127549801Y-107106838D01*
X127921767Y-107107162D01*
X128107262Y-107030517D01*
X128413401Y-107157638D01*
X128785367Y-107157962D01*
X129129143Y-107015917D01*
X129287644Y-106857693D01*
X129581801Y-106979838D01*
X129895600Y-106980111D01*
X129895600Y-111374957D01*
X129888617Y-111358057D01*
X129625827Y-111094808D01*
X129282299Y-110952162D01*
X128910333Y-110951838D01*
X128566557Y-111093883D01*
X128303308Y-111356673D01*
X128181925Y-111648994D01*
X127837982Y-111506176D01*
X127433792Y-111505824D01*
X127060234Y-111660175D01*
X126774179Y-111945731D01*
X126746000Y-112013593D01*
X126746000Y-111558466D01*
X126776192Y-111528327D01*
X126918838Y-111184799D01*
X126919162Y-110812833D01*
X126777117Y-110469057D01*
X126514327Y-110205808D01*
X126170799Y-110063162D01*
X125798833Y-110062838D01*
X125666500Y-110117517D01*
X125666500Y-108764466D01*
X125696692Y-108734327D01*
X125839338Y-108390799D01*
X125839662Y-108018833D01*
X125697617Y-107675057D01*
X125434827Y-107411808D01*
X125091299Y-107269162D01*
X124719333Y-107268838D01*
X124375557Y-107410883D01*
X124112308Y-107673673D01*
X123969662Y-108017201D01*
X123969338Y-108389167D01*
X124111383Y-108732943D01*
X124142500Y-108764114D01*
X124142500Y-110570889D01*
X124084333Y-110570838D01*
X123740557Y-110712883D01*
X123477308Y-110975673D01*
X123334662Y-111319201D01*
X123334338Y-111691167D01*
X123476383Y-112034943D01*
X123507500Y-112066114D01*
X123507500Y-113793869D01*
X123222685Y-114078685D01*
X123057504Y-114325895D01*
X122999500Y-114617500D01*
X122999500Y-119091076D01*
X122921190Y-119037569D01*
X122669300Y-118986560D01*
X121678700Y-118986560D01*
X121539000Y-119012846D01*
X121539000Y-114479466D01*
X121569192Y-114449327D01*
X121711838Y-114105799D01*
X121712162Y-113733833D01*
X121570117Y-113390057D01*
X121307327Y-113126808D01*
X120963799Y-112984162D01*
X120591833Y-112983838D01*
X120248057Y-113125883D01*
X120088002Y-113285659D01*
X120088002Y-107436667D01*
X120413338Y-107436667D01*
X120555383Y-107780443D01*
X120586500Y-107811614D01*
X120586500Y-110945534D01*
X120556308Y-110975673D01*
X120413662Y-111319201D01*
X120413338Y-111691167D01*
X120555383Y-112034943D01*
X120818173Y-112298192D01*
X121161701Y-112440838D01*
X121533667Y-112441162D01*
X121877443Y-112299117D01*
X122140692Y-112036327D01*
X122283338Y-111692799D01*
X122283662Y-111320833D01*
X122141617Y-110977057D01*
X122110500Y-110945886D01*
X122110500Y-107811966D01*
X122140692Y-107781827D01*
X122283338Y-107438299D01*
X122283662Y-107066333D01*
X122141617Y-106722557D01*
X121878827Y-106459308D01*
X121535299Y-106316662D01*
X121163333Y-106316338D01*
X120819557Y-106458383D01*
X120556308Y-106721173D01*
X120413662Y-107064701D01*
X120413338Y-107436667D01*
X120088002Y-107436667D01*
X120088002Y-100122919D01*
X120111185Y-100157615D01*
X120111185Y-100157615D01*
G37*
X120111185Y-100157615D02*
X123921185Y-103967616D01*
X123921188Y-103967618D01*
X125191184Y-105237615D01*
X125191187Y-105237617D01*
X125546784Y-105593215D01*
X125727768Y-105714144D01*
X125809273Y-105795792D01*
X125810928Y-105796479D01*
X125810838Y-105899967D01*
X125952883Y-106243743D01*
X126215673Y-106506992D01*
X126559201Y-106649638D01*
X126922415Y-106649954D01*
X126943483Y-106700943D01*
X127206273Y-106964192D01*
X127549801Y-107106838D01*
X127921767Y-107107162D01*
X128107262Y-107030517D01*
X128413401Y-107157638D01*
X128785367Y-107157962D01*
X129129143Y-107015917D01*
X129287644Y-106857693D01*
X129581801Y-106979838D01*
X129895600Y-106980111D01*
X129895600Y-111374957D01*
X129888617Y-111358057D01*
X129625827Y-111094808D01*
X129282299Y-110952162D01*
X128910333Y-110951838D01*
X128566557Y-111093883D01*
X128303308Y-111356673D01*
X128181925Y-111648994D01*
X127837982Y-111506176D01*
X127433792Y-111505824D01*
X127060234Y-111660175D01*
X126774179Y-111945731D01*
X126746000Y-112013593D01*
X126746000Y-111558466D01*
X126776192Y-111528327D01*
X126918838Y-111184799D01*
X126919162Y-110812833D01*
X126777117Y-110469057D01*
X126514327Y-110205808D01*
X126170799Y-110063162D01*
X125798833Y-110062838D01*
X125666500Y-110117517D01*
X125666500Y-108764466D01*
X125696692Y-108734327D01*
X125839338Y-108390799D01*
X125839662Y-108018833D01*
X125697617Y-107675057D01*
X125434827Y-107411808D01*
X125091299Y-107269162D01*
X124719333Y-107268838D01*
X124375557Y-107410883D01*
X124112308Y-107673673D01*
X123969662Y-108017201D01*
X123969338Y-108389167D01*
X124111383Y-108732943D01*
X124142500Y-108764114D01*
X124142500Y-110570889D01*
X124084333Y-110570838D01*
X123740557Y-110712883D01*
X123477308Y-110975673D01*
X123334662Y-111319201D01*
X123334338Y-111691167D01*
X123476383Y-112034943D01*
X123507500Y-112066114D01*
X123507500Y-113793869D01*
X123222685Y-114078685D01*
X123057504Y-114325895D01*
X122999500Y-114617500D01*
X122999500Y-119091076D01*
X122921190Y-119037569D01*
X122669300Y-118986560D01*
X121678700Y-118986560D01*
X121539000Y-119012846D01*
X121539000Y-114479466D01*
X121569192Y-114449327D01*
X121711838Y-114105799D01*
X121712162Y-113733833D01*
X121570117Y-113390057D01*
X121307327Y-113126808D01*
X120963799Y-112984162D01*
X120591833Y-112983838D01*
X120248057Y-113125883D01*
X120088002Y-113285659D01*
X120088002Y-107436667D01*
X120413338Y-107436667D01*
X120555383Y-107780443D01*
X120586500Y-107811614D01*
X120586500Y-110945534D01*
X120556308Y-110975673D01*
X120413662Y-111319201D01*
X120413338Y-111691167D01*
X120555383Y-112034943D01*
X120818173Y-112298192D01*
X121161701Y-112440838D01*
X121533667Y-112441162D01*
X121877443Y-112299117D01*
X122140692Y-112036327D01*
X122283338Y-111692799D01*
X122283662Y-111320833D01*
X122141617Y-110977057D01*
X122110500Y-110945886D01*
X122110500Y-107811966D01*
X122140692Y-107781827D01*
X122283338Y-107438299D01*
X122283662Y-107066333D01*
X122141617Y-106722557D01*
X121878827Y-106459308D01*
X121535299Y-106316662D01*
X121163333Y-106316338D01*
X120819557Y-106458383D01*
X120556308Y-106721173D01*
X120413662Y-107064701D01*
X120413338Y-107436667D01*
X120088002Y-107436667D01*
X120088002Y-100122919D01*
X120111185Y-100157615D01*
G36*
X116332000Y-93298944D02*
X116210333Y-93298838D01*
X115866557Y-93440883D01*
X115603308Y-93703673D01*
X115474504Y-94013865D01*
X115285185Y-94203185D01*
X115120004Y-94450395D01*
X115062000Y-94742000D01*
X115062000Y-95440500D01*
X115120004Y-95732105D01*
X115197039Y-95847395D01*
X115285185Y-95979315D01*
X115316000Y-96010130D01*
X115316000Y-106244017D01*
X115104557Y-106331383D01*
X114841308Y-106594173D01*
X114698662Y-106937701D01*
X114698338Y-107309667D01*
X114840383Y-107653443D01*
X115103173Y-107916692D01*
X115316000Y-108005066D01*
X115316000Y-108278644D01*
X115222308Y-108372173D01*
X115079662Y-108715701D01*
X115079338Y-109087667D01*
X115221383Y-109431443D01*
X115484173Y-109694692D01*
X115827701Y-109837338D01*
X116014500Y-109837501D01*
X116014500Y-113024387D01*
X115905162Y-113287701D01*
X115904838Y-113659667D01*
X116046883Y-114003443D01*
X116222549Y-114179416D01*
X116222338Y-114421667D01*
X116364383Y-114765443D01*
X116627173Y-115028692D01*
X116970701Y-115171338D01*
X117342667Y-115171662D01*
X117493735Y-115109242D01*
X117792500Y-115233301D01*
X117792500Y-117429055D01*
X117543833Y-117428838D01*
X117200057Y-117570883D01*
X117016960Y-117753661D01*
X116998117Y-117708057D01*
X116735327Y-117444808D01*
X116391799Y-117302162D01*
X116019833Y-117301838D01*
X115676057Y-117443883D01*
X115412808Y-117706673D01*
X115270162Y-118050201D01*
X115270117Y-118101736D01*
X115120004Y-118326395D01*
X115062000Y-118618000D01*
X115062000Y-118989132D01*
X115049300Y-118986560D01*
X114427000Y-118986560D01*
X114427000Y-114733466D01*
X114457192Y-114703327D01*
X114599838Y-114359799D01*
X114600162Y-113987833D01*
X114458117Y-113644057D01*
X114195327Y-113380808D01*
X113994000Y-113297209D01*
X113994000Y-93324805D01*
X114482269Y-93527552D01*
X115232041Y-93528206D01*
X115924991Y-93241886D01*
X116332000Y-92835586D01*
X116332000Y-93298944D01*
X116332000Y-93298944D01*
G37*
X116332000Y-93298944D02*
X116210333Y-93298838D01*
X115866557Y-93440883D01*
X115603308Y-93703673D01*
X115474504Y-94013865D01*
X115285185Y-94203185D01*
X115120004Y-94450395D01*
X115062000Y-94742000D01*
X115062000Y-95440500D01*
X115120004Y-95732105D01*
X115197039Y-95847395D01*
X115285185Y-95979315D01*
X115316000Y-96010130D01*
X115316000Y-106244017D01*
X115104557Y-106331383D01*
X114841308Y-106594173D01*
X114698662Y-106937701D01*
X114698338Y-107309667D01*
X114840383Y-107653443D01*
X115103173Y-107916692D01*
X115316000Y-108005066D01*
X115316000Y-108278644D01*
X115222308Y-108372173D01*
X115079662Y-108715701D01*
X115079338Y-109087667D01*
X115221383Y-109431443D01*
X115484173Y-109694692D01*
X115827701Y-109837338D01*
X116014500Y-109837501D01*
X116014500Y-113024387D01*
X115905162Y-113287701D01*
X115904838Y-113659667D01*
X116046883Y-114003443D01*
X116222549Y-114179416D01*
X116222338Y-114421667D01*
X116364383Y-114765443D01*
X116627173Y-115028692D01*
X116970701Y-115171338D01*
X117342667Y-115171662D01*
X117493735Y-115109242D01*
X117792500Y-115233301D01*
X117792500Y-117429055D01*
X117543833Y-117428838D01*
X117200057Y-117570883D01*
X117016960Y-117753661D01*
X116998117Y-117708057D01*
X116735327Y-117444808D01*
X116391799Y-117302162D01*
X116019833Y-117301838D01*
X115676057Y-117443883D01*
X115412808Y-117706673D01*
X115270162Y-118050201D01*
X115270117Y-118101736D01*
X115120004Y-118326395D01*
X115062000Y-118618000D01*
X115062000Y-118989132D01*
X115049300Y-118986560D01*
X114427000Y-118986560D01*
X114427000Y-114733466D01*
X114457192Y-114703327D01*
X114599838Y-114359799D01*
X114600162Y-113987833D01*
X114458117Y-113644057D01*
X114195327Y-113380808D01*
X113994000Y-113297209D01*
X113994000Y-93324805D01*
X114482269Y-93527552D01*
X115232041Y-93528206D01*
X115924991Y-93241886D01*
X116332000Y-92835586D01*
X116332000Y-93298944D01*
G36*
X132033875Y-110442006D02*
X132033838Y-110484667D01*
X132175883Y-110828443D01*
X132308789Y-110961581D01*
X132176185Y-111094185D01*
X132011004Y-111341395D01*
X131953000Y-111633000D01*
X131953000Y-118986560D01*
X131838700Y-118986560D01*
X131826000Y-118988950D01*
X131826000Y-117906800D01*
X131767996Y-117615195D01*
X131713078Y-117533004D01*
X131602815Y-117367984D01*
X131419600Y-117184769D01*
X131419600Y-109827730D01*
X132033875Y-110442006D01*
X132033875Y-110442006D01*
G37*
X132033875Y-110442006D02*
X132033838Y-110484667D01*
X132175883Y-110828443D01*
X132308789Y-110961581D01*
X132176185Y-111094185D01*
X132011004Y-111341395D01*
X131953000Y-111633000D01*
X131953000Y-118986560D01*
X131838700Y-118986560D01*
X131826000Y-118988950D01*
X131826000Y-117906800D01*
X131767996Y-117615195D01*
X131713078Y-117533004D01*
X131602815Y-117367984D01*
X131419600Y-117184769D01*
X131419600Y-109827730D01*
X132033875Y-110442006D01*
G36*
X134687201Y-93517838D02*
X135059167Y-93518162D01*
X135181998Y-93467409D01*
X135181998Y-93663918D01*
X135107057Y-93694883D01*
X134843808Y-93957673D01*
X134701162Y-94301201D01*
X134700838Y-94673167D01*
X134842883Y-95016943D01*
X135105673Y-95280192D01*
X135449201Y-95422838D01*
X135821167Y-95423162D01*
X136164943Y-95281117D01*
X136428192Y-95018327D01*
X136570838Y-94674799D01*
X136570915Y-94586964D01*
X136600003Y-94543431D01*
X136550400Y-94792800D01*
X136550400Y-105726809D01*
X136525001Y-105854500D01*
X136583004Y-106146104D01*
X136748185Y-106393315D01*
X139971375Y-109616505D01*
X139971338Y-109659167D01*
X140113383Y-110002943D01*
X140376173Y-110266192D01*
X140719701Y-110408838D01*
X141091667Y-110409162D01*
X141160500Y-110380721D01*
X141160500Y-115506500D01*
X137922000Y-115506500D01*
X137922000Y-109855000D01*
X137863996Y-109563395D01*
X137824335Y-109504038D01*
X137698815Y-109316184D01*
X137190815Y-108808185D01*
X137149880Y-108780833D01*
X136943605Y-108643004D01*
X136652000Y-108585000D01*
X135570631Y-108585000D01*
X134493000Y-107507370D01*
X134493000Y-93524245D01*
X134554583Y-93462770D01*
X134687201Y-93517838D01*
X134687201Y-93517838D01*
G37*
X134687201Y-93517838D02*
X135059167Y-93518162D01*
X135181998Y-93467409D01*
X135181998Y-93663918D01*
X135107057Y-93694883D01*
X134843808Y-93957673D01*
X134701162Y-94301201D01*
X134700838Y-94673167D01*
X134842883Y-95016943D01*
X135105673Y-95280192D01*
X135449201Y-95422838D01*
X135821167Y-95423162D01*
X136164943Y-95281117D01*
X136428192Y-95018327D01*
X136570838Y-94674799D01*
X136570915Y-94586964D01*
X136600003Y-94543431D01*
X136550400Y-94792800D01*
X136550400Y-105726809D01*
X136525001Y-105854500D01*
X136583004Y-106146104D01*
X136748185Y-106393315D01*
X139971375Y-109616505D01*
X139971338Y-109659167D01*
X140113383Y-110002943D01*
X140376173Y-110266192D01*
X140719701Y-110408838D01*
X141091667Y-110409162D01*
X141160500Y-110380721D01*
X141160500Y-115506500D01*
X137922000Y-115506500D01*
X137922000Y-109855000D01*
X137863996Y-109563395D01*
X137824335Y-109504038D01*
X137698815Y-109316184D01*
X137190815Y-108808185D01*
X137149880Y-108780833D01*
X136943605Y-108643004D01*
X136652000Y-108585000D01*
X135570631Y-108585000D01*
X134493000Y-107507370D01*
X134493000Y-93524245D01*
X134554583Y-93462770D01*
X134687201Y-93517838D01*
G36*
X129298700Y-84696040D02*
X130048000Y-84696040D01*
X130048000Y-88568636D01*
X129979004Y-88671895D01*
X129921000Y-88963500D01*
X129921000Y-92213034D01*
X129890808Y-92243173D01*
X129748162Y-92586701D01*
X129747838Y-92958667D01*
X129889883Y-93302443D01*
X130152673Y-93565692D01*
X130496201Y-93708338D01*
X130708400Y-93708523D01*
X130708400Y-103519569D01*
X127843615Y-100654785D01*
X127757427Y-100597196D01*
X127596405Y-100489604D01*
X127313833Y-100433397D01*
X127386415Y-100360815D01*
X128758015Y-98989216D01*
X128758017Y-98989213D01*
X129012015Y-98735216D01*
X129177196Y-98488005D01*
X129189728Y-98425001D01*
X129235200Y-98196400D01*
X129235200Y-84683181D01*
X129298700Y-84696040D01*
X129298700Y-84696040D01*
G37*
X129298700Y-84696040D02*
X130048000Y-84696040D01*
X130048000Y-88568636D01*
X129979004Y-88671895D01*
X129921000Y-88963500D01*
X129921000Y-92213034D01*
X129890808Y-92243173D01*
X129748162Y-92586701D01*
X129747838Y-92958667D01*
X129889883Y-93302443D01*
X130152673Y-93565692D01*
X130496201Y-93708338D01*
X130708400Y-93708523D01*
X130708400Y-103519569D01*
X127843615Y-100654785D01*
X127757427Y-100597196D01*
X127596405Y-100489604D01*
X127313833Y-100433397D01*
X127386415Y-100360815D01*
X128758015Y-98989216D01*
X128758017Y-98989213D01*
X129012015Y-98735216D01*
X129177196Y-98488005D01*
X129189728Y-98425001D01*
X129235200Y-98196400D01*
X129235200Y-84683181D01*
X129298700Y-84696040D01*
G36*
X145650110Y-86875431D02*
X145902000Y-86926440D01*
X145929930Y-86926440D01*
X145892185Y-86964185D01*
X145727004Y-87211395D01*
X145669000Y-87503000D01*
X145669000Y-99442869D01*
X144318125Y-98091995D01*
X144318162Y-98049333D01*
X144176117Y-97705557D01*
X143913327Y-97442308D01*
X143569799Y-97299662D01*
X143197833Y-97299338D01*
X142854057Y-97441383D01*
X142590808Y-97704173D01*
X142552525Y-97796368D01*
X142426799Y-97744162D01*
X142077165Y-97743857D01*
X142407629Y-97413970D01*
X142620757Y-96900700D01*
X142621242Y-96344939D01*
X142409010Y-95831297D01*
X142016370Y-95437971D01*
X141802112Y-95349004D01*
X141927996Y-95160605D01*
X141954548Y-95027117D01*
X141986000Y-94869000D01*
X141986000Y-88819111D01*
X142044167Y-88819162D01*
X142387943Y-88677117D01*
X142651192Y-88414327D01*
X142761591Y-88148457D01*
X142785838Y-88277317D01*
X142924910Y-88493441D01*
X143137110Y-88638431D01*
X143389000Y-88689440D01*
X144139000Y-88689440D01*
X144374317Y-88645162D01*
X144590441Y-88506090D01*
X144735431Y-88293890D01*
X144786440Y-88042000D01*
X144786440Y-86842000D01*
X144767436Y-86741000D01*
X145453364Y-86741000D01*
X145650110Y-86875431D01*
X145650110Y-86875431D01*
G37*
X145650110Y-86875431D02*
X145902000Y-86926440D01*
X145929930Y-86926440D01*
X145892185Y-86964185D01*
X145727004Y-87211395D01*
X145669000Y-87503000D01*
X145669000Y-99442869D01*
X144318125Y-98091995D01*
X144318162Y-98049333D01*
X144176117Y-97705557D01*
X143913327Y-97442308D01*
X143569799Y-97299662D01*
X143197833Y-97299338D01*
X142854057Y-97441383D01*
X142590808Y-97704173D01*
X142552525Y-97796368D01*
X142426799Y-97744162D01*
X142077165Y-97743857D01*
X142407629Y-97413970D01*
X142620757Y-96900700D01*
X142621242Y-96344939D01*
X142409010Y-95831297D01*
X142016370Y-95437971D01*
X141802112Y-95349004D01*
X141927996Y-95160605D01*
X141954548Y-95027117D01*
X141986000Y-94869000D01*
X141986000Y-88819111D01*
X142044167Y-88819162D01*
X142387943Y-88677117D01*
X142651192Y-88414327D01*
X142761591Y-88148457D01*
X142785838Y-88277317D01*
X142924910Y-88493441D01*
X143137110Y-88638431D01*
X143389000Y-88689440D01*
X144139000Y-88689440D01*
X144374317Y-88645162D01*
X144590441Y-88506090D01*
X144735431Y-88293890D01*
X144786440Y-88042000D01*
X144786440Y-86842000D01*
X144767436Y-86741000D01*
X145453364Y-86741000D01*
X145650110Y-86875431D01*
G36*
X126318329Y-42063676D02*
X125451935Y-42928559D01*
X124967552Y-44095083D01*
X124966450Y-45358176D01*
X125448796Y-46525543D01*
X126341159Y-47419465D01*
X126345947Y-47421453D01*
X126364764Y-51071949D01*
X126356890Y-51066569D01*
X126105000Y-51015560D01*
X125355000Y-51015560D01*
X125119683Y-51059838D01*
X124903559Y-51198910D01*
X124758569Y-51411110D01*
X124707560Y-51663000D01*
X124707560Y-52863000D01*
X124717824Y-52917549D01*
X124708000Y-52915560D01*
X123958000Y-52915560D01*
X123722683Y-52959838D01*
X123635317Y-53016056D01*
X123562890Y-52966569D01*
X123311000Y-52915560D01*
X122561000Y-52915560D01*
X122325683Y-52959838D01*
X122109559Y-53098910D01*
X121964569Y-53311110D01*
X121913560Y-53563000D01*
X121913560Y-54763000D01*
X121957838Y-54998317D01*
X122096910Y-55214441D01*
X122174000Y-55267114D01*
X122174000Y-75247500D01*
X122232004Y-75539105D01*
X122361312Y-75732627D01*
X122397185Y-75786315D01*
X122417430Y-75806560D01*
X121678700Y-75806560D01*
X121443383Y-75850838D01*
X121227259Y-75989910D01*
X121082269Y-76202110D01*
X121031260Y-76454000D01*
X121031260Y-78232000D01*
X121075538Y-78467317D01*
X121214610Y-78683441D01*
X121426810Y-78828431D01*
X121678700Y-78879440D01*
X122669300Y-78879440D01*
X122682000Y-78877050D01*
X122682000Y-79322755D01*
X122524808Y-79479673D01*
X122388932Y-79806897D01*
X122280057Y-79851883D01*
X122016808Y-80114673D01*
X121874162Y-80458201D01*
X121873838Y-80830167D01*
X122015883Y-81173943D01*
X122278673Y-81437192D01*
X122428000Y-81499198D01*
X122428000Y-81623160D01*
X121678700Y-81623160D01*
X121443383Y-81667438D01*
X121227259Y-81806510D01*
X121082269Y-82018710D01*
X121031260Y-82270600D01*
X121031260Y-83225230D01*
X120776740Y-82970710D01*
X120776740Y-82270600D01*
X120732462Y-82035283D01*
X120637376Y-81887515D01*
X120759338Y-81593799D01*
X120759662Y-81221833D01*
X120617617Y-80878057D01*
X120396000Y-80656053D01*
X120396000Y-78814968D01*
X120580741Y-78696090D01*
X120725731Y-78483890D01*
X120776740Y-78232000D01*
X120776740Y-76454000D01*
X120732462Y-76218683D01*
X120593390Y-76002559D01*
X120381190Y-75857569D01*
X120129300Y-75806560D01*
X119952576Y-75806560D01*
X120172192Y-75587327D01*
X120314838Y-75243799D01*
X120315162Y-74871833D01*
X120269000Y-74760112D01*
X120269000Y-66092466D01*
X120299192Y-66062327D01*
X120441838Y-65718799D01*
X120442162Y-65346833D01*
X120300117Y-65003057D01*
X120037327Y-64739808D01*
X119693799Y-64597162D01*
X119321833Y-64596838D01*
X118978057Y-64738883D01*
X118714808Y-65001673D01*
X118572162Y-65345201D01*
X118571838Y-65717167D01*
X118713883Y-66060943D01*
X118745000Y-66092114D01*
X118745000Y-74369755D01*
X118587808Y-74526673D01*
X118445162Y-74870201D01*
X118444838Y-75242167D01*
X118506830Y-75392199D01*
X117856000Y-74741370D01*
X117856000Y-70358000D01*
X117797996Y-70066395D01*
X117775063Y-70032074D01*
X117775162Y-69918833D01*
X117633117Y-69575057D01*
X117503013Y-69444726D01*
X117520838Y-69401799D01*
X117521162Y-69029833D01*
X117379117Y-68686057D01*
X117348000Y-68654886D01*
X117348000Y-58989630D01*
X117917630Y-58420000D01*
X119708534Y-58420000D01*
X119738673Y-58450192D01*
X120082201Y-58592838D01*
X120454167Y-58593162D01*
X120797943Y-58451117D01*
X121061192Y-58188327D01*
X121203838Y-57844799D01*
X121204162Y-57472833D01*
X121062117Y-57129057D01*
X120799327Y-56865808D01*
X120455799Y-56723162D01*
X120083833Y-56722838D01*
X119740057Y-56864883D01*
X119708886Y-56896000D01*
X117602000Y-56896000D01*
X117310395Y-56954004D01*
X117132440Y-57072910D01*
X117063185Y-57119185D01*
X116047185Y-58135185D01*
X115882004Y-58382395D01*
X115824000Y-58674000D01*
X115824000Y-68654534D01*
X115793808Y-68684673D01*
X115651162Y-69028201D01*
X115650838Y-69400167D01*
X115792883Y-69743943D01*
X115922987Y-69874274D01*
X115905162Y-69917201D01*
X115904838Y-70289167D01*
X116046883Y-70632943D01*
X116309673Y-70896192D01*
X116332000Y-70905463D01*
X116332000Y-72343999D01*
X116146833Y-72343838D01*
X115803057Y-72485883D01*
X115539808Y-72748673D01*
X115397162Y-73092201D01*
X115396838Y-73464167D01*
X115538883Y-73807943D01*
X115570000Y-73839114D01*
X115570000Y-75258534D01*
X115539808Y-75288673D01*
X115397162Y-75632201D01*
X115396838Y-76004167D01*
X115538883Y-76347943D01*
X115801673Y-76611192D01*
X115951260Y-76673306D01*
X115951260Y-78232000D01*
X115995538Y-78467317D01*
X116134610Y-78683441D01*
X116332000Y-78818312D01*
X116332000Y-79208537D01*
X116010799Y-79075162D01*
X115638833Y-79074838D01*
X115295057Y-79216883D01*
X115031808Y-79479673D01*
X114889162Y-79823201D01*
X114888838Y-80195167D01*
X115030883Y-80538943D01*
X115293673Y-80802192D01*
X115316000Y-80811463D01*
X115316000Y-81684288D01*
X115301190Y-81674169D01*
X115049300Y-81623160D01*
X114058700Y-81623160D01*
X113994000Y-81635334D01*
X113994000Y-45358176D01*
X114298450Y-45358176D01*
X114780796Y-46525543D01*
X115673159Y-47419465D01*
X116839683Y-47903848D01*
X118102776Y-47904950D01*
X119270143Y-47422604D01*
X120164065Y-46530241D01*
X120648448Y-45363717D01*
X120649550Y-44100624D01*
X120167204Y-42933257D01*
X119274841Y-42039335D01*
X118108317Y-41554952D01*
X116845224Y-41553850D01*
X115677857Y-42036196D01*
X114783935Y-42928559D01*
X114299552Y-44095083D01*
X114298450Y-45358176D01*
X113994000Y-45358176D01*
X113994000Y-29089431D01*
X114146152Y-28324511D01*
X114539830Y-27735330D01*
X115129011Y-27341652D01*
X115893931Y-27189500D01*
X126241658Y-27189500D01*
X126318329Y-42063676D01*
X126318329Y-42063676D01*
G37*
X126318329Y-42063676D02*
X125451935Y-42928559D01*
X124967552Y-44095083D01*
X124966450Y-45358176D01*
X125448796Y-46525543D01*
X126341159Y-47419465D01*
X126345947Y-47421453D01*
X126364764Y-51071949D01*
X126356890Y-51066569D01*
X126105000Y-51015560D01*
X125355000Y-51015560D01*
X125119683Y-51059838D01*
X124903559Y-51198910D01*
X124758569Y-51411110D01*
X124707560Y-51663000D01*
X124707560Y-52863000D01*
X124717824Y-52917549D01*
X124708000Y-52915560D01*
X123958000Y-52915560D01*
X123722683Y-52959838D01*
X123635317Y-53016056D01*
X123562890Y-52966569D01*
X123311000Y-52915560D01*
X122561000Y-52915560D01*
X122325683Y-52959838D01*
X122109559Y-53098910D01*
X121964569Y-53311110D01*
X121913560Y-53563000D01*
X121913560Y-54763000D01*
X121957838Y-54998317D01*
X122096910Y-55214441D01*
X122174000Y-55267114D01*
X122174000Y-75247500D01*
X122232004Y-75539105D01*
X122361312Y-75732627D01*
X122397185Y-75786315D01*
X122417430Y-75806560D01*
X121678700Y-75806560D01*
X121443383Y-75850838D01*
X121227259Y-75989910D01*
X121082269Y-76202110D01*
X121031260Y-76454000D01*
X121031260Y-78232000D01*
X121075538Y-78467317D01*
X121214610Y-78683441D01*
X121426810Y-78828431D01*
X121678700Y-78879440D01*
X122669300Y-78879440D01*
X122682000Y-78877050D01*
X122682000Y-79322755D01*
X122524808Y-79479673D01*
X122388932Y-79806897D01*
X122280057Y-79851883D01*
X122016808Y-80114673D01*
X121874162Y-80458201D01*
X121873838Y-80830167D01*
X122015883Y-81173943D01*
X122278673Y-81437192D01*
X122428000Y-81499198D01*
X122428000Y-81623160D01*
X121678700Y-81623160D01*
X121443383Y-81667438D01*
X121227259Y-81806510D01*
X121082269Y-82018710D01*
X121031260Y-82270600D01*
X121031260Y-83225230D01*
X120776740Y-82970710D01*
X120776740Y-82270600D01*
X120732462Y-82035283D01*
X120637376Y-81887515D01*
X120759338Y-81593799D01*
X120759662Y-81221833D01*
X120617617Y-80878057D01*
X120396000Y-80656053D01*
X120396000Y-78814968D01*
X120580741Y-78696090D01*
X120725731Y-78483890D01*
X120776740Y-78232000D01*
X120776740Y-76454000D01*
X120732462Y-76218683D01*
X120593390Y-76002559D01*
X120381190Y-75857569D01*
X120129300Y-75806560D01*
X119952576Y-75806560D01*
X120172192Y-75587327D01*
X120314838Y-75243799D01*
X120315162Y-74871833D01*
X120269000Y-74760112D01*
X120269000Y-66092466D01*
X120299192Y-66062327D01*
X120441838Y-65718799D01*
X120442162Y-65346833D01*
X120300117Y-65003057D01*
X120037327Y-64739808D01*
X119693799Y-64597162D01*
X119321833Y-64596838D01*
X118978057Y-64738883D01*
X118714808Y-65001673D01*
X118572162Y-65345201D01*
X118571838Y-65717167D01*
X118713883Y-66060943D01*
X118745000Y-66092114D01*
X118745000Y-74369755D01*
X118587808Y-74526673D01*
X118445162Y-74870201D01*
X118444838Y-75242167D01*
X118506830Y-75392199D01*
X117856000Y-74741370D01*
X117856000Y-70358000D01*
X117797996Y-70066395D01*
X117775063Y-70032074D01*
X117775162Y-69918833D01*
X117633117Y-69575057D01*
X117503013Y-69444726D01*
X117520838Y-69401799D01*
X117521162Y-69029833D01*
X117379117Y-68686057D01*
X117348000Y-68654886D01*
X117348000Y-58989630D01*
X117917630Y-58420000D01*
X119708534Y-58420000D01*
X119738673Y-58450192D01*
X120082201Y-58592838D01*
X120454167Y-58593162D01*
X120797943Y-58451117D01*
X121061192Y-58188327D01*
X121203838Y-57844799D01*
X121204162Y-57472833D01*
X121062117Y-57129057D01*
X120799327Y-56865808D01*
X120455799Y-56723162D01*
X120083833Y-56722838D01*
X119740057Y-56864883D01*
X119708886Y-56896000D01*
X117602000Y-56896000D01*
X117310395Y-56954004D01*
X117132440Y-57072910D01*
X117063185Y-57119185D01*
X116047185Y-58135185D01*
X115882004Y-58382395D01*
X115824000Y-58674000D01*
X115824000Y-68654534D01*
X115793808Y-68684673D01*
X115651162Y-69028201D01*
X115650838Y-69400167D01*
X115792883Y-69743943D01*
X115922987Y-69874274D01*
X115905162Y-69917201D01*
X115904838Y-70289167D01*
X116046883Y-70632943D01*
X116309673Y-70896192D01*
X116332000Y-70905463D01*
X116332000Y-72343999D01*
X116146833Y-72343838D01*
X115803057Y-72485883D01*
X115539808Y-72748673D01*
X115397162Y-73092201D01*
X115396838Y-73464167D01*
X115538883Y-73807943D01*
X115570000Y-73839114D01*
X115570000Y-75258534D01*
X115539808Y-75288673D01*
X115397162Y-75632201D01*
X115396838Y-76004167D01*
X115538883Y-76347943D01*
X115801673Y-76611192D01*
X115951260Y-76673306D01*
X115951260Y-78232000D01*
X115995538Y-78467317D01*
X116134610Y-78683441D01*
X116332000Y-78818312D01*
X116332000Y-79208537D01*
X116010799Y-79075162D01*
X115638833Y-79074838D01*
X115295057Y-79216883D01*
X115031808Y-79479673D01*
X114889162Y-79823201D01*
X114888838Y-80195167D01*
X115030883Y-80538943D01*
X115293673Y-80802192D01*
X115316000Y-80811463D01*
X115316000Y-81684288D01*
X115301190Y-81674169D01*
X115049300Y-81623160D01*
X114058700Y-81623160D01*
X113994000Y-81635334D01*
X113994000Y-45358176D01*
X114298450Y-45358176D01*
X114780796Y-46525543D01*
X115673159Y-47419465D01*
X116839683Y-47903848D01*
X118102776Y-47904950D01*
X119270143Y-47422604D01*
X120164065Y-46530241D01*
X120648448Y-45363717D01*
X120649550Y-44100624D01*
X120167204Y-42933257D01*
X119274841Y-42039335D01*
X118108317Y-41554952D01*
X116845224Y-41553850D01*
X115677857Y-42036196D01*
X114783935Y-42928559D01*
X114299552Y-44095083D01*
X114298450Y-45358176D01*
X113994000Y-45358176D01*
X113994000Y-29089431D01*
X114146152Y-28324511D01*
X114539830Y-27735330D01*
X115129011Y-27341652D01*
X115893931Y-27189500D01*
X126241658Y-27189500D01*
X126318329Y-42063676D01*
G36*
X137050165Y-42021194D02*
X137013857Y-42036196D01*
X136119935Y-42928559D01*
X135635552Y-44095083D01*
X135634450Y-45358176D01*
X136116796Y-46525543D01*
X137009159Y-47419465D01*
X137078333Y-47448188D01*
X137107875Y-53139994D01*
X136697310Y-53550560D01*
X136023000Y-53550560D01*
X136012392Y-53552556D01*
X136023440Y-53498000D01*
X136023440Y-52298000D01*
X135979162Y-52062683D01*
X135840090Y-51846559D01*
X135627890Y-51701569D01*
X135376000Y-51650560D01*
X134626000Y-51650560D01*
X134390683Y-51694838D01*
X134174559Y-51833910D01*
X134029569Y-52046110D01*
X133978560Y-52298000D01*
X133978560Y-52489560D01*
X132146000Y-52489560D01*
X132146000Y-51537958D01*
X132219317Y-51524162D01*
X132435441Y-51385090D01*
X132580431Y-51172890D01*
X132631440Y-50921000D01*
X132631440Y-50171000D01*
X132587162Y-49935683D01*
X132448090Y-49719559D01*
X132235890Y-49574569D01*
X131984000Y-49523560D01*
X130784000Y-49523560D01*
X130548683Y-49567838D01*
X130332559Y-49706910D01*
X130187569Y-49919110D01*
X130136560Y-50171000D01*
X130136560Y-50921000D01*
X130180838Y-51156317D01*
X130319910Y-51372441D01*
X130532110Y-51517431D01*
X130622000Y-51535634D01*
X130622000Y-72456000D01*
X130680004Y-72747605D01*
X130758656Y-72865315D01*
X130845185Y-72994815D01*
X131414185Y-73563816D01*
X131661396Y-73728997D01*
X131953000Y-73787000D01*
X132526370Y-73787000D01*
X132588000Y-73848631D01*
X132588000Y-75806560D01*
X131838700Y-75806560D01*
X131603383Y-75850838D01*
X131387259Y-75989910D01*
X131242269Y-76202110D01*
X131191260Y-76454000D01*
X131191260Y-76663807D01*
X131187299Y-76662162D01*
X130936740Y-76661944D01*
X130936740Y-76454000D01*
X130892462Y-76218683D01*
X130753390Y-76002559D01*
X130541190Y-75857569D01*
X130289300Y-75806560D01*
X129298700Y-75806560D01*
X129063383Y-75850838D01*
X128847259Y-75989910D01*
X128702269Y-76202110D01*
X128651260Y-76454000D01*
X128651260Y-77408109D01*
X128396740Y-77662630D01*
X128396740Y-76454000D01*
X128352462Y-76218683D01*
X128213390Y-76002559D01*
X128001190Y-75857569D01*
X127749300Y-75806560D01*
X126758700Y-75806560D01*
X126523383Y-75850838D01*
X126307259Y-75989910D01*
X126162269Y-76202110D01*
X126111260Y-76454000D01*
X126111260Y-78043110D01*
X125840075Y-78314295D01*
X125856740Y-78232000D01*
X125856740Y-76454000D01*
X125812462Y-76218683D01*
X125673390Y-76002559D01*
X125461190Y-75857569D01*
X125209300Y-75806560D01*
X124218700Y-75806560D01*
X124206000Y-75808950D01*
X124206000Y-75755500D01*
X124147996Y-75463895D01*
X124107709Y-75403601D01*
X123982815Y-75216684D01*
X123698000Y-74931870D01*
X123698000Y-70858241D01*
X126003994Y-70858241D01*
X126290314Y-71551191D01*
X126820021Y-72081822D01*
X127512469Y-72369352D01*
X128262241Y-72370006D01*
X128955191Y-72083686D01*
X129485822Y-71553979D01*
X129773352Y-70861531D01*
X129774006Y-70111759D01*
X129487686Y-69418809D01*
X128957979Y-68888178D01*
X128265531Y-68600648D01*
X127515759Y-68599994D01*
X126822809Y-68886314D01*
X126292178Y-69416021D01*
X126004648Y-70108469D01*
X126003994Y-70858241D01*
X123698000Y-70858241D01*
X123698000Y-55353890D01*
X123706110Y-55359431D01*
X123958000Y-55410440D01*
X124708000Y-55410440D01*
X124943317Y-55366162D01*
X125030683Y-55309944D01*
X125103110Y-55359431D01*
X125355000Y-55410440D01*
X126105000Y-55410440D01*
X126340317Y-55366162D01*
X126386745Y-55336286D01*
X126402606Y-58413248D01*
X126319162Y-58614201D01*
X126318838Y-58986167D01*
X126399778Y-59182057D01*
X126319162Y-59376201D01*
X126318838Y-59748167D01*
X126399778Y-59944057D01*
X126319162Y-60138201D01*
X126318838Y-60510167D01*
X126399778Y-60706057D01*
X126319162Y-60900201D01*
X126318838Y-61272167D01*
X126399778Y-61468057D01*
X126319162Y-61662201D01*
X126318838Y-62034167D01*
X126399778Y-62230057D01*
X126319162Y-62424201D01*
X126318838Y-62796167D01*
X126426542Y-63056830D01*
X126428502Y-63437155D01*
X126438762Y-63486513D01*
X126467417Y-63527990D01*
X126509951Y-63555051D01*
X126555500Y-63563500D01*
X129730500Y-63563500D01*
X129779910Y-63553494D01*
X129821535Y-63525053D01*
X129848815Y-63482659D01*
X129857500Y-63436500D01*
X129857500Y-47455925D01*
X129938143Y-47422604D01*
X130832065Y-46530241D01*
X131316448Y-45363717D01*
X131317550Y-44100624D01*
X130835204Y-42933257D01*
X129942841Y-42039335D01*
X129857500Y-42003898D01*
X129857500Y-27189500D01*
X136973184Y-27189500D01*
X137050165Y-42021194D01*
X137050165Y-42021194D01*
G37*
X137050165Y-42021194D02*
X137013857Y-42036196D01*
X136119935Y-42928559D01*
X135635552Y-44095083D01*
X135634450Y-45358176D01*
X136116796Y-46525543D01*
X137009159Y-47419465D01*
X137078333Y-47448188D01*
X137107875Y-53139994D01*
X136697310Y-53550560D01*
X136023000Y-53550560D01*
X136012392Y-53552556D01*
X136023440Y-53498000D01*
X136023440Y-52298000D01*
X135979162Y-52062683D01*
X135840090Y-51846559D01*
X135627890Y-51701569D01*
X135376000Y-51650560D01*
X134626000Y-51650560D01*
X134390683Y-51694838D01*
X134174559Y-51833910D01*
X134029569Y-52046110D01*
X133978560Y-52298000D01*
X133978560Y-52489560D01*
X132146000Y-52489560D01*
X132146000Y-51537958D01*
X132219317Y-51524162D01*
X132435441Y-51385090D01*
X132580431Y-51172890D01*
X132631440Y-50921000D01*
X132631440Y-50171000D01*
X132587162Y-49935683D01*
X132448090Y-49719559D01*
X132235890Y-49574569D01*
X131984000Y-49523560D01*
X130784000Y-49523560D01*
X130548683Y-49567838D01*
X130332559Y-49706910D01*
X130187569Y-49919110D01*
X130136560Y-50171000D01*
X130136560Y-50921000D01*
X130180838Y-51156317D01*
X130319910Y-51372441D01*
X130532110Y-51517431D01*
X130622000Y-51535634D01*
X130622000Y-72456000D01*
X130680004Y-72747605D01*
X130758656Y-72865315D01*
X130845185Y-72994815D01*
X131414185Y-73563816D01*
X131661396Y-73728997D01*
X131953000Y-73787000D01*
X132526370Y-73787000D01*
X132588000Y-73848631D01*
X132588000Y-75806560D01*
X131838700Y-75806560D01*
X131603383Y-75850838D01*
X131387259Y-75989910D01*
X131242269Y-76202110D01*
X131191260Y-76454000D01*
X131191260Y-76663807D01*
X131187299Y-76662162D01*
X130936740Y-76661944D01*
X130936740Y-76454000D01*
X130892462Y-76218683D01*
X130753390Y-76002559D01*
X130541190Y-75857569D01*
X130289300Y-75806560D01*
X129298700Y-75806560D01*
X129063383Y-75850838D01*
X128847259Y-75989910D01*
X128702269Y-76202110D01*
X128651260Y-76454000D01*
X128651260Y-77408109D01*
X128396740Y-77662630D01*
X128396740Y-76454000D01*
X128352462Y-76218683D01*
X128213390Y-76002559D01*
X128001190Y-75857569D01*
X127749300Y-75806560D01*
X126758700Y-75806560D01*
X126523383Y-75850838D01*
X126307259Y-75989910D01*
X126162269Y-76202110D01*
X126111260Y-76454000D01*
X126111260Y-78043110D01*
X125840075Y-78314295D01*
X125856740Y-78232000D01*
X125856740Y-76454000D01*
X125812462Y-76218683D01*
X125673390Y-76002559D01*
X125461190Y-75857569D01*
X125209300Y-75806560D01*
X124218700Y-75806560D01*
X124206000Y-75808950D01*
X124206000Y-75755500D01*
X124147996Y-75463895D01*
X124107709Y-75403601D01*
X123982815Y-75216684D01*
X123698000Y-74931870D01*
X123698000Y-70858241D01*
X126003994Y-70858241D01*
X126290314Y-71551191D01*
X126820021Y-72081822D01*
X127512469Y-72369352D01*
X128262241Y-72370006D01*
X128955191Y-72083686D01*
X129485822Y-71553979D01*
X129773352Y-70861531D01*
X129774006Y-70111759D01*
X129487686Y-69418809D01*
X128957979Y-68888178D01*
X128265531Y-68600648D01*
X127515759Y-68599994D01*
X126822809Y-68886314D01*
X126292178Y-69416021D01*
X126004648Y-70108469D01*
X126003994Y-70858241D01*
X123698000Y-70858241D01*
X123698000Y-55353890D01*
X123706110Y-55359431D01*
X123958000Y-55410440D01*
X124708000Y-55410440D01*
X124943317Y-55366162D01*
X125030683Y-55309944D01*
X125103110Y-55359431D01*
X125355000Y-55410440D01*
X126105000Y-55410440D01*
X126340317Y-55366162D01*
X126386745Y-55336286D01*
X126402606Y-58413248D01*
X126319162Y-58614201D01*
X126318838Y-58986167D01*
X126399778Y-59182057D01*
X126319162Y-59376201D01*
X126318838Y-59748167D01*
X126399778Y-59944057D01*
X126319162Y-60138201D01*
X126318838Y-60510167D01*
X126399778Y-60706057D01*
X126319162Y-60900201D01*
X126318838Y-61272167D01*
X126399778Y-61468057D01*
X126319162Y-61662201D01*
X126318838Y-62034167D01*
X126399778Y-62230057D01*
X126319162Y-62424201D01*
X126318838Y-62796167D01*
X126426542Y-63056830D01*
X126428502Y-63437155D01*
X126438762Y-63486513D01*
X126467417Y-63527990D01*
X126509951Y-63555051D01*
X126555500Y-63563500D01*
X129730500Y-63563500D01*
X129779910Y-63553494D01*
X129821535Y-63525053D01*
X129848815Y-63482659D01*
X129857500Y-63436500D01*
X129857500Y-47455925D01*
X129938143Y-47422604D01*
X130832065Y-46530241D01*
X131316448Y-45363717D01*
X131317550Y-44100624D01*
X130835204Y-42933257D01*
X129942841Y-42039335D01*
X129857500Y-42003898D01*
X129857500Y-27189500D01*
X136973184Y-27189500D01*
X137050165Y-42021194D01*
G36*
X143844875Y-71453005D02*
X143844838Y-71495667D01*
X143986883Y-71839443D01*
X144171000Y-72023881D01*
X143911648Y-72648469D01*
X143910994Y-73398241D01*
X144197314Y-74091191D01*
X144727021Y-74621822D01*
X145419469Y-74909352D01*
X146169241Y-74910006D01*
X146685000Y-74696900D01*
X146685000Y-74750534D01*
X146654808Y-74780673D01*
X146512162Y-75124201D01*
X146511838Y-75496167D01*
X146653883Y-75839943D01*
X146916673Y-76103192D01*
X147009073Y-76141560D01*
X145902000Y-76141560D01*
X145666683Y-76185838D01*
X145450559Y-76324910D01*
X145305569Y-76537110D01*
X145254560Y-76789000D01*
X145254560Y-77389000D01*
X145298838Y-77624317D01*
X145362678Y-77723528D01*
X145305569Y-77807110D01*
X145262824Y-78018193D01*
X144821015Y-77576385D01*
X144756370Y-77533190D01*
X144742162Y-77457683D01*
X144603090Y-77241559D01*
X144390890Y-77096569D01*
X144139000Y-77045560D01*
X143389000Y-77045560D01*
X143256000Y-77070586D01*
X143256000Y-71753130D01*
X143635131Y-71374000D01*
X143765870Y-71374000D01*
X143844875Y-71453005D01*
X143844875Y-71453005D01*
G37*
X143844875Y-71453005D02*
X143844838Y-71495667D01*
X143986883Y-71839443D01*
X144171000Y-72023881D01*
X143911648Y-72648469D01*
X143910994Y-73398241D01*
X144197314Y-74091191D01*
X144727021Y-74621822D01*
X145419469Y-74909352D01*
X146169241Y-74910006D01*
X146685000Y-74696900D01*
X146685000Y-74750534D01*
X146654808Y-74780673D01*
X146512162Y-75124201D01*
X146511838Y-75496167D01*
X146653883Y-75839943D01*
X146916673Y-76103192D01*
X147009073Y-76141560D01*
X145902000Y-76141560D01*
X145666683Y-76185838D01*
X145450559Y-76324910D01*
X145305569Y-76537110D01*
X145254560Y-76789000D01*
X145254560Y-77389000D01*
X145298838Y-77624317D01*
X145362678Y-77723528D01*
X145305569Y-77807110D01*
X145262824Y-78018193D01*
X144821015Y-77576385D01*
X144756370Y-77533190D01*
X144742162Y-77457683D01*
X144603090Y-77241559D01*
X144390890Y-77096569D01*
X144139000Y-77045560D01*
X143389000Y-77045560D01*
X143256000Y-77070586D01*
X143256000Y-71753130D01*
X143635131Y-71374000D01*
X143765870Y-71374000D01*
X143844875Y-71453005D01*
G36*
X136987039Y-58755114D02*
X136670033Y-58754838D01*
X136326257Y-58896883D01*
X136063008Y-59159673D01*
X135920362Y-59503201D01*
X135920038Y-59875167D01*
X136062083Y-60218943D01*
X136093200Y-60250114D01*
X136093200Y-61294955D01*
X135958833Y-61294838D01*
X135615057Y-61436883D01*
X135351808Y-61699673D01*
X135209162Y-62043201D01*
X135208838Y-62415167D01*
X135350883Y-62758943D01*
X135509000Y-62917336D01*
X135509000Y-72718534D01*
X135478808Y-72748673D01*
X135336162Y-73092201D01*
X135335838Y-73464167D01*
X135477883Y-73807943D01*
X135740673Y-74071192D01*
X136050518Y-74199852D01*
X135595095Y-74655275D01*
X135552433Y-74655238D01*
X135208657Y-74797283D01*
X134945408Y-75060073D01*
X134802762Y-75403601D01*
X134802438Y-75775567D01*
X134815244Y-75806560D01*
X134566002Y-75806560D01*
X134566002Y-73288502D01*
X134507998Y-72996897D01*
X134441917Y-72898000D01*
X134342817Y-72749686D01*
X134048500Y-72455370D01*
X134048500Y-71997966D01*
X134078692Y-71967827D01*
X134221338Y-71624299D01*
X134221662Y-71252333D01*
X134079617Y-70908557D01*
X133816827Y-70645308D01*
X133473299Y-70502662D01*
X133101333Y-70502338D01*
X132842000Y-70609492D01*
X132842000Y-61728440D01*
X133698500Y-61728440D01*
X133933817Y-61684162D01*
X134149941Y-61545090D01*
X134294931Y-61332890D01*
X134345940Y-61081000D01*
X134345940Y-60331000D01*
X134301662Y-60095683D01*
X134245444Y-60008317D01*
X134294931Y-59935890D01*
X134345940Y-59684000D01*
X134345940Y-58934000D01*
X134343944Y-58923392D01*
X134398500Y-58934440D01*
X135598500Y-58934440D01*
X135833817Y-58890162D01*
X136049941Y-58751090D01*
X136102614Y-58674000D01*
X136779000Y-58674000D01*
X136987146Y-58632597D01*
X136987039Y-58755114D01*
X136987039Y-58755114D01*
G37*
X136987039Y-58755114D02*
X136670033Y-58754838D01*
X136326257Y-58896883D01*
X136063008Y-59159673D01*
X135920362Y-59503201D01*
X135920038Y-59875167D01*
X136062083Y-60218943D01*
X136093200Y-60250114D01*
X136093200Y-61294955D01*
X135958833Y-61294838D01*
X135615057Y-61436883D01*
X135351808Y-61699673D01*
X135209162Y-62043201D01*
X135208838Y-62415167D01*
X135350883Y-62758943D01*
X135509000Y-62917336D01*
X135509000Y-72718534D01*
X135478808Y-72748673D01*
X135336162Y-73092201D01*
X135335838Y-73464167D01*
X135477883Y-73807943D01*
X135740673Y-74071192D01*
X136050518Y-74199852D01*
X135595095Y-74655275D01*
X135552433Y-74655238D01*
X135208657Y-74797283D01*
X134945408Y-75060073D01*
X134802762Y-75403601D01*
X134802438Y-75775567D01*
X134815244Y-75806560D01*
X134566002Y-75806560D01*
X134566002Y-73288502D01*
X134507998Y-72996897D01*
X134441917Y-72898000D01*
X134342817Y-72749686D01*
X134048500Y-72455370D01*
X134048500Y-71997966D01*
X134078692Y-71967827D01*
X134221338Y-71624299D01*
X134221662Y-71252333D01*
X134079617Y-70908557D01*
X133816827Y-70645308D01*
X133473299Y-70502662D01*
X133101333Y-70502338D01*
X132842000Y-70609492D01*
X132842000Y-61728440D01*
X133698500Y-61728440D01*
X133933817Y-61684162D01*
X134149941Y-61545090D01*
X134294931Y-61332890D01*
X134345940Y-61081000D01*
X134345940Y-60331000D01*
X134301662Y-60095683D01*
X134245444Y-60008317D01*
X134294931Y-59935890D01*
X134345940Y-59684000D01*
X134345940Y-58934000D01*
X134343944Y-58923392D01*
X134398500Y-58934440D01*
X135598500Y-58934440D01*
X135833817Y-58890162D01*
X136049941Y-58751090D01*
X136102614Y-58674000D01*
X136779000Y-58674000D01*
X136987146Y-58632597D01*
X136987039Y-58755114D01*
G36*
X171128989Y-27341652D02*
X171718170Y-27735330D01*
X172111848Y-28324511D01*
X172256716Y-29052813D01*
X171540492Y-28755411D01*
X170601627Y-28754591D01*
X169733914Y-29113123D01*
X169069456Y-29776422D01*
X168709411Y-30643508D01*
X168708591Y-31582373D01*
X169067123Y-32450086D01*
X169730422Y-33114544D01*
X170597508Y-33474589D01*
X171536373Y-33475409D01*
X172264000Y-33174759D01*
X172264000Y-41593255D01*
X166615366Y-41599264D01*
X167066797Y-41147833D01*
X167535661Y-41148242D01*
X168049303Y-40936010D01*
X168442629Y-40543370D01*
X168655757Y-40030100D01*
X168656242Y-39474339D01*
X168444010Y-38960697D01*
X168051370Y-38567371D01*
X167538100Y-38354243D01*
X166982339Y-38353758D01*
X166468697Y-38565990D01*
X166075371Y-38958630D01*
X165989051Y-39166512D01*
X165904010Y-38960697D01*
X165511370Y-38567371D01*
X164998100Y-38354243D01*
X164442339Y-38353758D01*
X163928697Y-38565990D01*
X163535371Y-38958630D01*
X163322243Y-39471900D01*
X163321758Y-40027661D01*
X163533990Y-40541303D01*
X163926630Y-40934629D01*
X163957000Y-40947240D01*
X163957000Y-41602092D01*
X150439326Y-41616473D01*
X149985317Y-41427952D01*
X148722224Y-41426850D01*
X148257684Y-41618794D01*
X139620195Y-41627983D01*
X139444317Y-41554952D01*
X138181224Y-41553850D01*
X137997631Y-41629709D01*
X128979456Y-41639303D01*
X128776317Y-41554952D01*
X127513224Y-41553850D01*
X127302094Y-41641087D01*
X118338718Y-41650623D01*
X118108317Y-41554952D01*
X116845224Y-41553850D01*
X116606556Y-41652465D01*
X113994000Y-41655245D01*
X113994000Y-31582373D01*
X161088591Y-31582373D01*
X161447123Y-32450086D01*
X162110422Y-33114544D01*
X162977508Y-33474589D01*
X163916373Y-33475409D01*
X164784086Y-33116877D01*
X165448544Y-32453578D01*
X165808589Y-31586492D01*
X165809409Y-30647627D01*
X165450877Y-29779914D01*
X164787578Y-29115456D01*
X163920492Y-28755411D01*
X162981627Y-28754591D01*
X162113914Y-29113123D01*
X161449456Y-29776422D01*
X161089411Y-30643508D01*
X161088591Y-31582373D01*
X113994000Y-31582373D01*
X113994000Y-29089431D01*
X114146152Y-28324511D01*
X114539830Y-27735330D01*
X115129011Y-27341652D01*
X115893931Y-27189500D01*
X170364069Y-27189500D01*
X171128989Y-27341652D01*
X171128989Y-27341652D01*
G37*
X171128989Y-27341652D02*
X171718170Y-27735330D01*
X172111848Y-28324511D01*
X172256716Y-29052813D01*
X171540492Y-28755411D01*
X170601627Y-28754591D01*
X169733914Y-29113123D01*
X169069456Y-29776422D01*
X168709411Y-30643508D01*
X168708591Y-31582373D01*
X169067123Y-32450086D01*
X169730422Y-33114544D01*
X170597508Y-33474589D01*
X171536373Y-33475409D01*
X172264000Y-33174759D01*
X172264000Y-41593255D01*
X166615366Y-41599264D01*
X167066797Y-41147833D01*
X167535661Y-41148242D01*
X168049303Y-40936010D01*
X168442629Y-40543370D01*
X168655757Y-40030100D01*
X168656242Y-39474339D01*
X168444010Y-38960697D01*
X168051370Y-38567371D01*
X167538100Y-38354243D01*
X166982339Y-38353758D01*
X166468697Y-38565990D01*
X166075371Y-38958630D01*
X165989051Y-39166512D01*
X165904010Y-38960697D01*
X165511370Y-38567371D01*
X164998100Y-38354243D01*
X164442339Y-38353758D01*
X163928697Y-38565990D01*
X163535371Y-38958630D01*
X163322243Y-39471900D01*
X163321758Y-40027661D01*
X163533990Y-40541303D01*
X163926630Y-40934629D01*
X163957000Y-40947240D01*
X163957000Y-41602092D01*
X150439326Y-41616473D01*
X149985317Y-41427952D01*
X148722224Y-41426850D01*
X148257684Y-41618794D01*
X139620195Y-41627983D01*
X139444317Y-41554952D01*
X138181224Y-41553850D01*
X137997631Y-41629709D01*
X128979456Y-41639303D01*
X128776317Y-41554952D01*
X127513224Y-41553850D01*
X127302094Y-41641087D01*
X118338718Y-41650623D01*
X118108317Y-41554952D01*
X116845224Y-41553850D01*
X116606556Y-41652465D01*
X113994000Y-41655245D01*
X113994000Y-31582373D01*
X161088591Y-31582373D01*
X161447123Y-32450086D01*
X162110422Y-33114544D01*
X162977508Y-33474589D01*
X163916373Y-33475409D01*
X164784086Y-33116877D01*
X165448544Y-32453578D01*
X165808589Y-31586492D01*
X165809409Y-30647627D01*
X165450877Y-29779914D01*
X164787578Y-29115456D01*
X163920492Y-28755411D01*
X162981627Y-28754591D01*
X162113914Y-29113123D01*
X161449456Y-29776422D01*
X161089411Y-30643508D01*
X161088591Y-31582373D01*
X113994000Y-31582373D01*
X113994000Y-29089431D01*
X114146152Y-28324511D01*
X114539830Y-27735330D01*
X115129011Y-27341652D01*
X115893931Y-27189500D01*
X170364069Y-27189500D01*
X171128989Y-27341652D01*
M02*
